G04 #@! TF.GenerationSoftware,KiCad,Pcbnew,9.0.6*
G04 #@! TF.CreationDate,2026-03-10T14:58:34+09:00*
G04 #@! TF.ProjectId,MainBoard2026,4d61696e-426f-4617-9264-323032362e6b,rev?*
G04 #@! TF.SameCoordinates,Original*
G04 #@! TF.FileFunction,Legend,Bot*
G04 #@! TF.FilePolarity,Positive*
%FSLAX46Y46*%
G04 Gerber Fmt 4.6, Leading zero omitted, Abs format (unit mm)*
G04 Created by KiCad (PCBNEW 9.0.6) date 2026-03-10 14:58:34*
%MOMM*%
%LPD*%
G01*
G04 APERTURE LIST*
G04 Aperture macros list*
%AMRoundRect*
0 Rectangle with rounded corners*
0 $1 Rounding radius*
0 $2 $3 $4 $5 $6 $7 $8 $9 X,Y pos of 4 corners*
0 Add a 4 corners polygon primitive as box body*
4,1,4,$2,$3,$4,$5,$6,$7,$8,$9,$2,$3,0*
0 Add four circle primitives for the rounded corners*
1,1,$1+$1,$2,$3*
1,1,$1+$1,$4,$5*
1,1,$1+$1,$6,$7*
1,1,$1+$1,$8,$9*
0 Add four rect primitives between the rounded corners*
20,1,$1+$1,$2,$3,$4,$5,0*
20,1,$1+$1,$4,$5,$6,$7,0*
20,1,$1+$1,$6,$7,$8,$9,0*
20,1,$1+$1,$8,$9,$2,$3,0*%
%AMFreePoly0*
4,1,23,0.500000,-0.750000,0.000000,-0.750000,0.000000,-0.745722,-0.065263,-0.745722,-0.191342,-0.711940,-0.304381,-0.646677,-0.396677,-0.554381,-0.461940,-0.441342,-0.495722,-0.315263,-0.495722,-0.250000,-0.500000,-0.250000,-0.500000,0.250000,-0.495722,0.250000,-0.495722,0.315263,-0.461940,0.441342,-0.396677,0.554381,-0.304381,0.646677,-0.191342,0.711940,-0.065263,0.745722,0.000000,0.745722,
0.000000,0.750000,0.500000,0.750000,0.500000,-0.750000,0.500000,-0.750000,$1*%
%AMFreePoly1*
4,1,23,0.000000,0.745722,0.065263,0.745722,0.191342,0.711940,0.304381,0.646677,0.396677,0.554381,0.461940,0.441342,0.495722,0.315263,0.495722,0.250000,0.500000,0.250000,0.500000,-0.250000,0.495722,-0.250000,0.495722,-0.315263,0.461940,-0.441342,0.396677,-0.554381,0.304381,-0.646677,0.191342,-0.711940,0.065263,-0.745722,0.000000,-0.745722,0.000000,-0.750000,-0.500000,-0.750000,
-0.500000,0.750000,0.000000,0.750000,0.000000,0.745722,0.000000,0.745722,$1*%
G04 Aperture macros list end*
%ADD10C,0.150000*%
%ADD11C,0.120000*%
%ADD12C,4.300000*%
%ADD13C,2.300000*%
%ADD14R,1.520000X1.520000*%
%ADD15C,1.520000*%
%ADD16R,1.500000X2.300000*%
%ADD17O,1.500000X2.300000*%
%ADD18C,1.600000*%
%ADD19R,1.300000X1.300000*%
%ADD20C,1.300000*%
%ADD21O,2.000000X2.800000*%
%ADD22RoundRect,0.250000X0.725000X-0.600000X0.725000X0.600000X-0.725000X0.600000X-0.725000X-0.600000X0*%
%ADD23O,1.950000X1.700000*%
%ADD24RoundRect,0.250000X-0.550000X-0.550000X0.550000X-0.550000X0.550000X0.550000X-0.550000X0.550000X0*%
%ADD25R,0.850000X0.850000*%
%ADD26O,0.850000X0.850000*%
%ADD27R,2.000000X0.900000*%
%ADD28RoundRect,1.025000X-1.025000X1.025000X-1.025000X-1.025000X1.025000X-1.025000X1.025000X1.025000X0*%
%ADD29C,4.100000*%
%ADD30R,1.700000X1.700000*%
%ADD31O,1.700000X1.700000*%
%ADD32RoundRect,0.225000X0.225000X0.250000X-0.225000X0.250000X-0.225000X-0.250000X0.225000X-0.250000X0*%
%ADD33RoundRect,0.200000X0.200000X0.275000X-0.200000X0.275000X-0.200000X-0.275000X0.200000X-0.275000X0*%
%ADD34RoundRect,0.200000X-0.275000X0.200000X-0.275000X-0.200000X0.275000X-0.200000X0.275000X0.200000X0*%
%ADD35RoundRect,0.225000X-0.225000X-0.250000X0.225000X-0.250000X0.225000X0.250000X-0.225000X0.250000X0*%
%ADD36C,1.700000*%
%ADD37RoundRect,0.225000X0.250000X-0.225000X0.250000X0.225000X-0.250000X0.225000X-0.250000X-0.225000X0*%
%ADD38RoundRect,0.225000X-0.250000X0.225000X-0.250000X-0.225000X0.250000X-0.225000X0.250000X0.225000X0*%
%ADD39RoundRect,0.218750X0.218750X0.256250X-0.218750X0.256250X-0.218750X-0.256250X0.218750X-0.256250X0*%
%ADD40R,2.000000X0.800000*%
%ADD41RoundRect,0.150000X-0.150000X0.587500X-0.150000X-0.587500X0.150000X-0.587500X0.150000X0.587500X0*%
%ADD42RoundRect,0.200000X0.275000X-0.200000X0.275000X0.200000X-0.275000X0.200000X-0.275000X-0.200000X0*%
%ADD43R,0.400000X1.900000*%
%ADD44RoundRect,0.225000X0.375000X-0.225000X0.375000X0.225000X-0.375000X0.225000X-0.375000X-0.225000X0*%
%ADD45RoundRect,0.225000X0.225000X0.375000X-0.225000X0.375000X-0.225000X-0.375000X0.225000X-0.375000X0*%
%ADD46RoundRect,0.200000X-0.200000X-0.275000X0.200000X-0.275000X0.200000X0.275000X-0.200000X0.275000X0*%
%ADD47RoundRect,0.225000X-0.375000X0.225000X-0.375000X-0.225000X0.375000X-0.225000X0.375000X0.225000X0*%
%ADD48FreePoly0,270.000000*%
%ADD49FreePoly1,270.000000*%
%ADD50RoundRect,0.250000X0.650000X-0.325000X0.650000X0.325000X-0.650000X0.325000X-0.650000X-0.325000X0*%
%ADD51RoundRect,0.225000X-0.225000X-0.375000X0.225000X-0.375000X0.225000X0.375000X-0.225000X0.375000X0*%
G04 APERTURE END LIST*
D10*
X140642857Y-76029580D02*
X140690476Y-76077200D01*
X140690476Y-76077200D02*
X140833333Y-76124819D01*
X140833333Y-76124819D02*
X140928571Y-76124819D01*
X140928571Y-76124819D02*
X141071428Y-76077200D01*
X141071428Y-76077200D02*
X141166666Y-75981961D01*
X141166666Y-75981961D02*
X141214285Y-75886723D01*
X141214285Y-75886723D02*
X141261904Y-75696247D01*
X141261904Y-75696247D02*
X141261904Y-75553390D01*
X141261904Y-75553390D02*
X141214285Y-75362914D01*
X141214285Y-75362914D02*
X141166666Y-75267676D01*
X141166666Y-75267676D02*
X141071428Y-75172438D01*
X141071428Y-75172438D02*
X140928571Y-75124819D01*
X140928571Y-75124819D02*
X140833333Y-75124819D01*
X140833333Y-75124819D02*
X140690476Y-75172438D01*
X140690476Y-75172438D02*
X140642857Y-75220057D01*
X140261904Y-75220057D02*
X140214285Y-75172438D01*
X140214285Y-75172438D02*
X140119047Y-75124819D01*
X140119047Y-75124819D02*
X139880952Y-75124819D01*
X139880952Y-75124819D02*
X139785714Y-75172438D01*
X139785714Y-75172438D02*
X139738095Y-75220057D01*
X139738095Y-75220057D02*
X139690476Y-75315295D01*
X139690476Y-75315295D02*
X139690476Y-75410533D01*
X139690476Y-75410533D02*
X139738095Y-75553390D01*
X139738095Y-75553390D02*
X140309523Y-76124819D01*
X140309523Y-76124819D02*
X139690476Y-76124819D01*
X138785714Y-75124819D02*
X139261904Y-75124819D01*
X139261904Y-75124819D02*
X139309523Y-75601009D01*
X139309523Y-75601009D02*
X139261904Y-75553390D01*
X139261904Y-75553390D02*
X139166666Y-75505771D01*
X139166666Y-75505771D02*
X138928571Y-75505771D01*
X138928571Y-75505771D02*
X138833333Y-75553390D01*
X138833333Y-75553390D02*
X138785714Y-75601009D01*
X138785714Y-75601009D02*
X138738095Y-75696247D01*
X138738095Y-75696247D02*
X138738095Y-75934342D01*
X138738095Y-75934342D02*
X138785714Y-76029580D01*
X138785714Y-76029580D02*
X138833333Y-76077200D01*
X138833333Y-76077200D02*
X138928571Y-76124819D01*
X138928571Y-76124819D02*
X139166666Y-76124819D01*
X139166666Y-76124819D02*
X139261904Y-76077200D01*
X139261904Y-76077200D02*
X139309523Y-76029580D01*
X119281666Y-39344819D02*
X119614999Y-38868628D01*
X119853094Y-39344819D02*
X119853094Y-38344819D01*
X119853094Y-38344819D02*
X119472142Y-38344819D01*
X119472142Y-38344819D02*
X119376904Y-38392438D01*
X119376904Y-38392438D02*
X119329285Y-38440057D01*
X119329285Y-38440057D02*
X119281666Y-38535295D01*
X119281666Y-38535295D02*
X119281666Y-38678152D01*
X119281666Y-38678152D02*
X119329285Y-38773390D01*
X119329285Y-38773390D02*
X119376904Y-38821009D01*
X119376904Y-38821009D02*
X119472142Y-38868628D01*
X119472142Y-38868628D02*
X119853094Y-38868628D01*
X118948332Y-38344819D02*
X118281666Y-38344819D01*
X118281666Y-38344819D02*
X118710237Y-39344819D01*
X133524819Y-54433333D02*
X133048628Y-54100000D01*
X133524819Y-53861905D02*
X132524819Y-53861905D01*
X132524819Y-53861905D02*
X132524819Y-54242857D01*
X132524819Y-54242857D02*
X132572438Y-54338095D01*
X132572438Y-54338095D02*
X132620057Y-54385714D01*
X132620057Y-54385714D02*
X132715295Y-54433333D01*
X132715295Y-54433333D02*
X132858152Y-54433333D01*
X132858152Y-54433333D02*
X132953390Y-54385714D01*
X132953390Y-54385714D02*
X133001009Y-54338095D01*
X133001009Y-54338095D02*
X133048628Y-54242857D01*
X133048628Y-54242857D02*
X133048628Y-53861905D01*
X132953390Y-55004762D02*
X132905771Y-54909524D01*
X132905771Y-54909524D02*
X132858152Y-54861905D01*
X132858152Y-54861905D02*
X132762914Y-54814286D01*
X132762914Y-54814286D02*
X132715295Y-54814286D01*
X132715295Y-54814286D02*
X132620057Y-54861905D01*
X132620057Y-54861905D02*
X132572438Y-54909524D01*
X132572438Y-54909524D02*
X132524819Y-55004762D01*
X132524819Y-55004762D02*
X132524819Y-55195238D01*
X132524819Y-55195238D02*
X132572438Y-55290476D01*
X132572438Y-55290476D02*
X132620057Y-55338095D01*
X132620057Y-55338095D02*
X132715295Y-55385714D01*
X132715295Y-55385714D02*
X132762914Y-55385714D01*
X132762914Y-55385714D02*
X132858152Y-55338095D01*
X132858152Y-55338095D02*
X132905771Y-55290476D01*
X132905771Y-55290476D02*
X132953390Y-55195238D01*
X132953390Y-55195238D02*
X132953390Y-55004762D01*
X132953390Y-55004762D02*
X133001009Y-54909524D01*
X133001009Y-54909524D02*
X133048628Y-54861905D01*
X133048628Y-54861905D02*
X133143866Y-54814286D01*
X133143866Y-54814286D02*
X133334342Y-54814286D01*
X133334342Y-54814286D02*
X133429580Y-54861905D01*
X133429580Y-54861905D02*
X133477200Y-54909524D01*
X133477200Y-54909524D02*
X133524819Y-55004762D01*
X133524819Y-55004762D02*
X133524819Y-55195238D01*
X133524819Y-55195238D02*
X133477200Y-55290476D01*
X133477200Y-55290476D02*
X133429580Y-55338095D01*
X133429580Y-55338095D02*
X133334342Y-55385714D01*
X133334342Y-55385714D02*
X133143866Y-55385714D01*
X133143866Y-55385714D02*
X133048628Y-55338095D01*
X133048628Y-55338095D02*
X133001009Y-55290476D01*
X133001009Y-55290476D02*
X132953390Y-55195238D01*
X142767857Y-73289580D02*
X142815476Y-73337200D01*
X142815476Y-73337200D02*
X142958333Y-73384819D01*
X142958333Y-73384819D02*
X143053571Y-73384819D01*
X143053571Y-73384819D02*
X143196428Y-73337200D01*
X143196428Y-73337200D02*
X143291666Y-73241961D01*
X143291666Y-73241961D02*
X143339285Y-73146723D01*
X143339285Y-73146723D02*
X143386904Y-72956247D01*
X143386904Y-72956247D02*
X143386904Y-72813390D01*
X143386904Y-72813390D02*
X143339285Y-72622914D01*
X143339285Y-72622914D02*
X143291666Y-72527676D01*
X143291666Y-72527676D02*
X143196428Y-72432438D01*
X143196428Y-72432438D02*
X143053571Y-72384819D01*
X143053571Y-72384819D02*
X142958333Y-72384819D01*
X142958333Y-72384819D02*
X142815476Y-72432438D01*
X142815476Y-72432438D02*
X142767857Y-72480057D01*
X142386904Y-72480057D02*
X142339285Y-72432438D01*
X142339285Y-72432438D02*
X142244047Y-72384819D01*
X142244047Y-72384819D02*
X142005952Y-72384819D01*
X142005952Y-72384819D02*
X141910714Y-72432438D01*
X141910714Y-72432438D02*
X141863095Y-72480057D01*
X141863095Y-72480057D02*
X141815476Y-72575295D01*
X141815476Y-72575295D02*
X141815476Y-72670533D01*
X141815476Y-72670533D02*
X141863095Y-72813390D01*
X141863095Y-72813390D02*
X142434523Y-73384819D01*
X142434523Y-73384819D02*
X141815476Y-73384819D01*
X141434523Y-72480057D02*
X141386904Y-72432438D01*
X141386904Y-72432438D02*
X141291666Y-72384819D01*
X141291666Y-72384819D02*
X141053571Y-72384819D01*
X141053571Y-72384819D02*
X140958333Y-72432438D01*
X140958333Y-72432438D02*
X140910714Y-72480057D01*
X140910714Y-72480057D02*
X140863095Y-72575295D01*
X140863095Y-72575295D02*
X140863095Y-72670533D01*
X140863095Y-72670533D02*
X140910714Y-72813390D01*
X140910714Y-72813390D02*
X141482142Y-73384819D01*
X141482142Y-73384819D02*
X140863095Y-73384819D01*
X151534819Y-43536666D02*
X152249104Y-43536666D01*
X152249104Y-43536666D02*
X152391961Y-43489047D01*
X152391961Y-43489047D02*
X152487200Y-43393809D01*
X152487200Y-43393809D02*
X152534819Y-43250952D01*
X152534819Y-43250952D02*
X152534819Y-43155714D01*
X151534819Y-43917619D02*
X151534819Y-44536666D01*
X151534819Y-44536666D02*
X151915771Y-44203333D01*
X151915771Y-44203333D02*
X151915771Y-44346190D01*
X151915771Y-44346190D02*
X151963390Y-44441428D01*
X151963390Y-44441428D02*
X152011009Y-44489047D01*
X152011009Y-44489047D02*
X152106247Y-44536666D01*
X152106247Y-44536666D02*
X152344342Y-44536666D01*
X152344342Y-44536666D02*
X152439580Y-44489047D01*
X152439580Y-44489047D02*
X152487200Y-44441428D01*
X152487200Y-44441428D02*
X152534819Y-44346190D01*
X152534819Y-44346190D02*
X152534819Y-44060476D01*
X152534819Y-44060476D02*
X152487200Y-43965238D01*
X152487200Y-43965238D02*
X152439580Y-43917619D01*
X119747857Y-40944819D02*
X120081190Y-40468628D01*
X120319285Y-40944819D02*
X120319285Y-39944819D01*
X120319285Y-39944819D02*
X119938333Y-39944819D01*
X119938333Y-39944819D02*
X119843095Y-39992438D01*
X119843095Y-39992438D02*
X119795476Y-40040057D01*
X119795476Y-40040057D02*
X119747857Y-40135295D01*
X119747857Y-40135295D02*
X119747857Y-40278152D01*
X119747857Y-40278152D02*
X119795476Y-40373390D01*
X119795476Y-40373390D02*
X119843095Y-40421009D01*
X119843095Y-40421009D02*
X119938333Y-40468628D01*
X119938333Y-40468628D02*
X120319285Y-40468628D01*
X118795476Y-40944819D02*
X119366904Y-40944819D01*
X119081190Y-40944819D02*
X119081190Y-39944819D01*
X119081190Y-39944819D02*
X119176428Y-40087676D01*
X119176428Y-40087676D02*
X119271666Y-40182914D01*
X119271666Y-40182914D02*
X119366904Y-40230533D01*
X117843095Y-40944819D02*
X118414523Y-40944819D01*
X118128809Y-40944819D02*
X118128809Y-39944819D01*
X118128809Y-39944819D02*
X118224047Y-40087676D01*
X118224047Y-40087676D02*
X118319285Y-40182914D01*
X118319285Y-40182914D02*
X118414523Y-40230533D01*
X154889580Y-50757142D02*
X154937200Y-50709523D01*
X154937200Y-50709523D02*
X154984819Y-50566666D01*
X154984819Y-50566666D02*
X154984819Y-50471428D01*
X154984819Y-50471428D02*
X154937200Y-50328571D01*
X154937200Y-50328571D02*
X154841961Y-50233333D01*
X154841961Y-50233333D02*
X154746723Y-50185714D01*
X154746723Y-50185714D02*
X154556247Y-50138095D01*
X154556247Y-50138095D02*
X154413390Y-50138095D01*
X154413390Y-50138095D02*
X154222914Y-50185714D01*
X154222914Y-50185714D02*
X154127676Y-50233333D01*
X154127676Y-50233333D02*
X154032438Y-50328571D01*
X154032438Y-50328571D02*
X153984819Y-50471428D01*
X153984819Y-50471428D02*
X153984819Y-50566666D01*
X153984819Y-50566666D02*
X154032438Y-50709523D01*
X154032438Y-50709523D02*
X154080057Y-50757142D01*
X154080057Y-51138095D02*
X154032438Y-51185714D01*
X154032438Y-51185714D02*
X153984819Y-51280952D01*
X153984819Y-51280952D02*
X153984819Y-51519047D01*
X153984819Y-51519047D02*
X154032438Y-51614285D01*
X154032438Y-51614285D02*
X154080057Y-51661904D01*
X154080057Y-51661904D02*
X154175295Y-51709523D01*
X154175295Y-51709523D02*
X154270533Y-51709523D01*
X154270533Y-51709523D02*
X154413390Y-51661904D01*
X154413390Y-51661904D02*
X154984819Y-51090476D01*
X154984819Y-51090476D02*
X154984819Y-51709523D01*
X154413390Y-52280952D02*
X154365771Y-52185714D01*
X154365771Y-52185714D02*
X154318152Y-52138095D01*
X154318152Y-52138095D02*
X154222914Y-52090476D01*
X154222914Y-52090476D02*
X154175295Y-52090476D01*
X154175295Y-52090476D02*
X154080057Y-52138095D01*
X154080057Y-52138095D02*
X154032438Y-52185714D01*
X154032438Y-52185714D02*
X153984819Y-52280952D01*
X153984819Y-52280952D02*
X153984819Y-52471428D01*
X153984819Y-52471428D02*
X154032438Y-52566666D01*
X154032438Y-52566666D02*
X154080057Y-52614285D01*
X154080057Y-52614285D02*
X154175295Y-52661904D01*
X154175295Y-52661904D02*
X154222914Y-52661904D01*
X154222914Y-52661904D02*
X154318152Y-52614285D01*
X154318152Y-52614285D02*
X154365771Y-52566666D01*
X154365771Y-52566666D02*
X154413390Y-52471428D01*
X154413390Y-52471428D02*
X154413390Y-52280952D01*
X154413390Y-52280952D02*
X154461009Y-52185714D01*
X154461009Y-52185714D02*
X154508628Y-52138095D01*
X154508628Y-52138095D02*
X154603866Y-52090476D01*
X154603866Y-52090476D02*
X154794342Y-52090476D01*
X154794342Y-52090476D02*
X154889580Y-52138095D01*
X154889580Y-52138095D02*
X154937200Y-52185714D01*
X154937200Y-52185714D02*
X154984819Y-52280952D01*
X154984819Y-52280952D02*
X154984819Y-52471428D01*
X154984819Y-52471428D02*
X154937200Y-52566666D01*
X154937200Y-52566666D02*
X154889580Y-52614285D01*
X154889580Y-52614285D02*
X154794342Y-52661904D01*
X154794342Y-52661904D02*
X154603866Y-52661904D01*
X154603866Y-52661904D02*
X154508628Y-52614285D01*
X154508628Y-52614285D02*
X154461009Y-52566666D01*
X154461009Y-52566666D02*
X154413390Y-52471428D01*
X126842857Y-74989580D02*
X126890476Y-75037200D01*
X126890476Y-75037200D02*
X127033333Y-75084819D01*
X127033333Y-75084819D02*
X127128571Y-75084819D01*
X127128571Y-75084819D02*
X127271428Y-75037200D01*
X127271428Y-75037200D02*
X127366666Y-74941961D01*
X127366666Y-74941961D02*
X127414285Y-74846723D01*
X127414285Y-74846723D02*
X127461904Y-74656247D01*
X127461904Y-74656247D02*
X127461904Y-74513390D01*
X127461904Y-74513390D02*
X127414285Y-74322914D01*
X127414285Y-74322914D02*
X127366666Y-74227676D01*
X127366666Y-74227676D02*
X127271428Y-74132438D01*
X127271428Y-74132438D02*
X127128571Y-74084819D01*
X127128571Y-74084819D02*
X127033333Y-74084819D01*
X127033333Y-74084819D02*
X126890476Y-74132438D01*
X126890476Y-74132438D02*
X126842857Y-74180057D01*
X125890476Y-75084819D02*
X126461904Y-75084819D01*
X126176190Y-75084819D02*
X126176190Y-74084819D01*
X126176190Y-74084819D02*
X126271428Y-74227676D01*
X126271428Y-74227676D02*
X126366666Y-74322914D01*
X126366666Y-74322914D02*
X126461904Y-74370533D01*
X124985714Y-74084819D02*
X125461904Y-74084819D01*
X125461904Y-74084819D02*
X125509523Y-74561009D01*
X125509523Y-74561009D02*
X125461904Y-74513390D01*
X125461904Y-74513390D02*
X125366666Y-74465771D01*
X125366666Y-74465771D02*
X125128571Y-74465771D01*
X125128571Y-74465771D02*
X125033333Y-74513390D01*
X125033333Y-74513390D02*
X124985714Y-74561009D01*
X124985714Y-74561009D02*
X124938095Y-74656247D01*
X124938095Y-74656247D02*
X124938095Y-74894342D01*
X124938095Y-74894342D02*
X124985714Y-74989580D01*
X124985714Y-74989580D02*
X125033333Y-75037200D01*
X125033333Y-75037200D02*
X125128571Y-75084819D01*
X125128571Y-75084819D02*
X125366666Y-75084819D01*
X125366666Y-75084819D02*
X125461904Y-75037200D01*
X125461904Y-75037200D02*
X125509523Y-74989580D01*
X136324819Y-52057142D02*
X135848628Y-51723809D01*
X136324819Y-51485714D02*
X135324819Y-51485714D01*
X135324819Y-51485714D02*
X135324819Y-51866666D01*
X135324819Y-51866666D02*
X135372438Y-51961904D01*
X135372438Y-51961904D02*
X135420057Y-52009523D01*
X135420057Y-52009523D02*
X135515295Y-52057142D01*
X135515295Y-52057142D02*
X135658152Y-52057142D01*
X135658152Y-52057142D02*
X135753390Y-52009523D01*
X135753390Y-52009523D02*
X135801009Y-51961904D01*
X135801009Y-51961904D02*
X135848628Y-51866666D01*
X135848628Y-51866666D02*
X135848628Y-51485714D01*
X136324819Y-53009523D02*
X136324819Y-52438095D01*
X136324819Y-52723809D02*
X135324819Y-52723809D01*
X135324819Y-52723809D02*
X135467676Y-52628571D01*
X135467676Y-52628571D02*
X135562914Y-52533333D01*
X135562914Y-52533333D02*
X135610533Y-52438095D01*
X136324819Y-53485714D02*
X136324819Y-53676190D01*
X136324819Y-53676190D02*
X136277200Y-53771428D01*
X136277200Y-53771428D02*
X136229580Y-53819047D01*
X136229580Y-53819047D02*
X136086723Y-53914285D01*
X136086723Y-53914285D02*
X135896247Y-53961904D01*
X135896247Y-53961904D02*
X135515295Y-53961904D01*
X135515295Y-53961904D02*
X135420057Y-53914285D01*
X135420057Y-53914285D02*
X135372438Y-53866666D01*
X135372438Y-53866666D02*
X135324819Y-53771428D01*
X135324819Y-53771428D02*
X135324819Y-53580952D01*
X135324819Y-53580952D02*
X135372438Y-53485714D01*
X135372438Y-53485714D02*
X135420057Y-53438095D01*
X135420057Y-53438095D02*
X135515295Y-53390476D01*
X135515295Y-53390476D02*
X135753390Y-53390476D01*
X135753390Y-53390476D02*
X135848628Y-53438095D01*
X135848628Y-53438095D02*
X135896247Y-53485714D01*
X135896247Y-53485714D02*
X135943866Y-53580952D01*
X135943866Y-53580952D02*
X135943866Y-53771428D01*
X135943866Y-53771428D02*
X135896247Y-53866666D01*
X135896247Y-53866666D02*
X135848628Y-53914285D01*
X135848628Y-53914285D02*
X135753390Y-53961904D01*
X124624819Y-89108333D02*
X124148628Y-88775000D01*
X124624819Y-88536905D02*
X123624819Y-88536905D01*
X123624819Y-88536905D02*
X123624819Y-88917857D01*
X123624819Y-88917857D02*
X123672438Y-89013095D01*
X123672438Y-89013095D02*
X123720057Y-89060714D01*
X123720057Y-89060714D02*
X123815295Y-89108333D01*
X123815295Y-89108333D02*
X123958152Y-89108333D01*
X123958152Y-89108333D02*
X124053390Y-89060714D01*
X124053390Y-89060714D02*
X124101009Y-89013095D01*
X124101009Y-89013095D02*
X124148628Y-88917857D01*
X124148628Y-88917857D02*
X124148628Y-88536905D01*
X124624819Y-90060714D02*
X124624819Y-89489286D01*
X124624819Y-89775000D02*
X123624819Y-89775000D01*
X123624819Y-89775000D02*
X123767676Y-89679762D01*
X123767676Y-89679762D02*
X123862914Y-89584524D01*
X123862914Y-89584524D02*
X123910533Y-89489286D01*
X120424819Y-44732142D02*
X119948628Y-44398809D01*
X120424819Y-44160714D02*
X119424819Y-44160714D01*
X119424819Y-44160714D02*
X119424819Y-44541666D01*
X119424819Y-44541666D02*
X119472438Y-44636904D01*
X119472438Y-44636904D02*
X119520057Y-44684523D01*
X119520057Y-44684523D02*
X119615295Y-44732142D01*
X119615295Y-44732142D02*
X119758152Y-44732142D01*
X119758152Y-44732142D02*
X119853390Y-44684523D01*
X119853390Y-44684523D02*
X119901009Y-44636904D01*
X119901009Y-44636904D02*
X119948628Y-44541666D01*
X119948628Y-44541666D02*
X119948628Y-44160714D01*
X120424819Y-45684523D02*
X120424819Y-45113095D01*
X120424819Y-45398809D02*
X119424819Y-45398809D01*
X119424819Y-45398809D02*
X119567676Y-45303571D01*
X119567676Y-45303571D02*
X119662914Y-45208333D01*
X119662914Y-45208333D02*
X119710533Y-45113095D01*
X119424819Y-46017857D02*
X119424819Y-46636904D01*
X119424819Y-46636904D02*
X119805771Y-46303571D01*
X119805771Y-46303571D02*
X119805771Y-46446428D01*
X119805771Y-46446428D02*
X119853390Y-46541666D01*
X119853390Y-46541666D02*
X119901009Y-46589285D01*
X119901009Y-46589285D02*
X119996247Y-46636904D01*
X119996247Y-46636904D02*
X120234342Y-46636904D01*
X120234342Y-46636904D02*
X120329580Y-46589285D01*
X120329580Y-46589285D02*
X120377200Y-46541666D01*
X120377200Y-46541666D02*
X120424819Y-46446428D01*
X120424819Y-46446428D02*
X120424819Y-46160714D01*
X120424819Y-46160714D02*
X120377200Y-46065476D01*
X120377200Y-46065476D02*
X120329580Y-46017857D01*
X152159580Y-53082142D02*
X152207200Y-53034523D01*
X152207200Y-53034523D02*
X152254819Y-52891666D01*
X152254819Y-52891666D02*
X152254819Y-52796428D01*
X152254819Y-52796428D02*
X152207200Y-52653571D01*
X152207200Y-52653571D02*
X152111961Y-52558333D01*
X152111961Y-52558333D02*
X152016723Y-52510714D01*
X152016723Y-52510714D02*
X151826247Y-52463095D01*
X151826247Y-52463095D02*
X151683390Y-52463095D01*
X151683390Y-52463095D02*
X151492914Y-52510714D01*
X151492914Y-52510714D02*
X151397676Y-52558333D01*
X151397676Y-52558333D02*
X151302438Y-52653571D01*
X151302438Y-52653571D02*
X151254819Y-52796428D01*
X151254819Y-52796428D02*
X151254819Y-52891666D01*
X151254819Y-52891666D02*
X151302438Y-53034523D01*
X151302438Y-53034523D02*
X151350057Y-53082142D01*
X151350057Y-53463095D02*
X151302438Y-53510714D01*
X151302438Y-53510714D02*
X151254819Y-53605952D01*
X151254819Y-53605952D02*
X151254819Y-53844047D01*
X151254819Y-53844047D02*
X151302438Y-53939285D01*
X151302438Y-53939285D02*
X151350057Y-53986904D01*
X151350057Y-53986904D02*
X151445295Y-54034523D01*
X151445295Y-54034523D02*
X151540533Y-54034523D01*
X151540533Y-54034523D02*
X151683390Y-53986904D01*
X151683390Y-53986904D02*
X152254819Y-53415476D01*
X152254819Y-53415476D02*
X152254819Y-54034523D01*
X151254819Y-54367857D02*
X151254819Y-55034523D01*
X151254819Y-55034523D02*
X152254819Y-54605952D01*
X127545833Y-68401009D02*
X127879166Y-68401009D01*
X127879166Y-68924819D02*
X127879166Y-67924819D01*
X127879166Y-67924819D02*
X127402976Y-67924819D01*
X126688690Y-68401009D02*
X126545833Y-68448628D01*
X126545833Y-68448628D02*
X126498214Y-68496247D01*
X126498214Y-68496247D02*
X126450595Y-68591485D01*
X126450595Y-68591485D02*
X126450595Y-68734342D01*
X126450595Y-68734342D02*
X126498214Y-68829580D01*
X126498214Y-68829580D02*
X126545833Y-68877200D01*
X126545833Y-68877200D02*
X126641071Y-68924819D01*
X126641071Y-68924819D02*
X127022023Y-68924819D01*
X127022023Y-68924819D02*
X127022023Y-67924819D01*
X127022023Y-67924819D02*
X126688690Y-67924819D01*
X126688690Y-67924819D02*
X126593452Y-67972438D01*
X126593452Y-67972438D02*
X126545833Y-68020057D01*
X126545833Y-68020057D02*
X126498214Y-68115295D01*
X126498214Y-68115295D02*
X126498214Y-68210533D01*
X126498214Y-68210533D02*
X126545833Y-68305771D01*
X126545833Y-68305771D02*
X126593452Y-68353390D01*
X126593452Y-68353390D02*
X126688690Y-68401009D01*
X126688690Y-68401009D02*
X127022023Y-68401009D01*
X125498214Y-68924819D02*
X126069642Y-68924819D01*
X125783928Y-68924819D02*
X125783928Y-67924819D01*
X125783928Y-67924819D02*
X125879166Y-68067676D01*
X125879166Y-68067676D02*
X125974404Y-68162914D01*
X125974404Y-68162914D02*
X126069642Y-68210533D01*
X123391666Y-70429580D02*
X123439285Y-70477200D01*
X123439285Y-70477200D02*
X123582142Y-70524819D01*
X123582142Y-70524819D02*
X123677380Y-70524819D01*
X123677380Y-70524819D02*
X123820237Y-70477200D01*
X123820237Y-70477200D02*
X123915475Y-70381961D01*
X123915475Y-70381961D02*
X123963094Y-70286723D01*
X123963094Y-70286723D02*
X124010713Y-70096247D01*
X124010713Y-70096247D02*
X124010713Y-69953390D01*
X124010713Y-69953390D02*
X123963094Y-69762914D01*
X123963094Y-69762914D02*
X123915475Y-69667676D01*
X123915475Y-69667676D02*
X123820237Y-69572438D01*
X123820237Y-69572438D02*
X123677380Y-69524819D01*
X123677380Y-69524819D02*
X123582142Y-69524819D01*
X123582142Y-69524819D02*
X123439285Y-69572438D01*
X123439285Y-69572438D02*
X123391666Y-69620057D01*
X123010713Y-69620057D02*
X122963094Y-69572438D01*
X122963094Y-69572438D02*
X122867856Y-69524819D01*
X122867856Y-69524819D02*
X122629761Y-69524819D01*
X122629761Y-69524819D02*
X122534523Y-69572438D01*
X122534523Y-69572438D02*
X122486904Y-69620057D01*
X122486904Y-69620057D02*
X122439285Y-69715295D01*
X122439285Y-69715295D02*
X122439285Y-69810533D01*
X122439285Y-69810533D02*
X122486904Y-69953390D01*
X122486904Y-69953390D02*
X123058332Y-70524819D01*
X123058332Y-70524819D02*
X122439285Y-70524819D01*
X128089580Y-28533333D02*
X128137200Y-28485714D01*
X128137200Y-28485714D02*
X128184819Y-28342857D01*
X128184819Y-28342857D02*
X128184819Y-28247619D01*
X128184819Y-28247619D02*
X128137200Y-28104762D01*
X128137200Y-28104762D02*
X128041961Y-28009524D01*
X128041961Y-28009524D02*
X127946723Y-27961905D01*
X127946723Y-27961905D02*
X127756247Y-27914286D01*
X127756247Y-27914286D02*
X127613390Y-27914286D01*
X127613390Y-27914286D02*
X127422914Y-27961905D01*
X127422914Y-27961905D02*
X127327676Y-28009524D01*
X127327676Y-28009524D02*
X127232438Y-28104762D01*
X127232438Y-28104762D02*
X127184819Y-28247619D01*
X127184819Y-28247619D02*
X127184819Y-28342857D01*
X127184819Y-28342857D02*
X127232438Y-28485714D01*
X127232438Y-28485714D02*
X127280057Y-28533333D01*
X127184819Y-29438095D02*
X127184819Y-28961905D01*
X127184819Y-28961905D02*
X127661009Y-28914286D01*
X127661009Y-28914286D02*
X127613390Y-28961905D01*
X127613390Y-28961905D02*
X127565771Y-29057143D01*
X127565771Y-29057143D02*
X127565771Y-29295238D01*
X127565771Y-29295238D02*
X127613390Y-29390476D01*
X127613390Y-29390476D02*
X127661009Y-29438095D01*
X127661009Y-29438095D02*
X127756247Y-29485714D01*
X127756247Y-29485714D02*
X127994342Y-29485714D01*
X127994342Y-29485714D02*
X128089580Y-29438095D01*
X128089580Y-29438095D02*
X128137200Y-29390476D01*
X128137200Y-29390476D02*
X128184819Y-29295238D01*
X128184819Y-29295238D02*
X128184819Y-29057143D01*
X128184819Y-29057143D02*
X128137200Y-28961905D01*
X128137200Y-28961905D02*
X128089580Y-28914286D01*
X161527612Y-25971009D02*
X161384755Y-26018628D01*
X161384755Y-26018628D02*
X161337136Y-26066247D01*
X161337136Y-26066247D02*
X161289517Y-26161485D01*
X161289517Y-26161485D02*
X161289517Y-26304342D01*
X161289517Y-26304342D02*
X161337136Y-26399580D01*
X161337136Y-26399580D02*
X161384755Y-26447200D01*
X161384755Y-26447200D02*
X161479993Y-26494819D01*
X161479993Y-26494819D02*
X161860945Y-26494819D01*
X161860945Y-26494819D02*
X161860945Y-25494819D01*
X161860945Y-25494819D02*
X161527612Y-25494819D01*
X161527612Y-25494819D02*
X161432374Y-25542438D01*
X161432374Y-25542438D02*
X161384755Y-25590057D01*
X161384755Y-25590057D02*
X161337136Y-25685295D01*
X161337136Y-25685295D02*
X161337136Y-25780533D01*
X161337136Y-25780533D02*
X161384755Y-25875771D01*
X161384755Y-25875771D02*
X161432374Y-25923390D01*
X161432374Y-25923390D02*
X161527612Y-25971009D01*
X161527612Y-25971009D02*
X161860945Y-25971009D01*
X161003802Y-25494819D02*
X160432374Y-25494819D01*
X160718088Y-26494819D02*
X160718088Y-25494819D01*
X159575231Y-26494819D02*
X160146659Y-26494819D01*
X159860945Y-26494819D02*
X159860945Y-25494819D01*
X159860945Y-25494819D02*
X159956183Y-25637676D01*
X159956183Y-25637676D02*
X160051421Y-25732914D01*
X160051421Y-25732914D02*
X160146659Y-25780533D01*
X136450057Y-69504761D02*
X136402438Y-69409523D01*
X136402438Y-69409523D02*
X136307200Y-69314285D01*
X136307200Y-69314285D02*
X136164342Y-69171428D01*
X136164342Y-69171428D02*
X136116723Y-69076190D01*
X136116723Y-69076190D02*
X136116723Y-68980952D01*
X136354819Y-69028571D02*
X136307200Y-68933333D01*
X136307200Y-68933333D02*
X136211961Y-68838095D01*
X136211961Y-68838095D02*
X136021485Y-68790476D01*
X136021485Y-68790476D02*
X135688152Y-68790476D01*
X135688152Y-68790476D02*
X135497676Y-68838095D01*
X135497676Y-68838095D02*
X135402438Y-68933333D01*
X135402438Y-68933333D02*
X135354819Y-69028571D01*
X135354819Y-69028571D02*
X135354819Y-69219047D01*
X135354819Y-69219047D02*
X135402438Y-69314285D01*
X135402438Y-69314285D02*
X135497676Y-69409523D01*
X135497676Y-69409523D02*
X135688152Y-69457142D01*
X135688152Y-69457142D02*
X136021485Y-69457142D01*
X136021485Y-69457142D02*
X136211961Y-69409523D01*
X136211961Y-69409523D02*
X136307200Y-69314285D01*
X136307200Y-69314285D02*
X136354819Y-69219047D01*
X136354819Y-69219047D02*
X136354819Y-69028571D01*
X135688152Y-70314285D02*
X136354819Y-70314285D01*
X135307200Y-70076190D02*
X136021485Y-69838095D01*
X136021485Y-69838095D02*
X136021485Y-70457142D01*
X140024819Y-47532142D02*
X139548628Y-47198809D01*
X140024819Y-46960714D02*
X139024819Y-46960714D01*
X139024819Y-46960714D02*
X139024819Y-47341666D01*
X139024819Y-47341666D02*
X139072438Y-47436904D01*
X139072438Y-47436904D02*
X139120057Y-47484523D01*
X139120057Y-47484523D02*
X139215295Y-47532142D01*
X139215295Y-47532142D02*
X139358152Y-47532142D01*
X139358152Y-47532142D02*
X139453390Y-47484523D01*
X139453390Y-47484523D02*
X139501009Y-47436904D01*
X139501009Y-47436904D02*
X139548628Y-47341666D01*
X139548628Y-47341666D02*
X139548628Y-46960714D01*
X139120057Y-47913095D02*
X139072438Y-47960714D01*
X139072438Y-47960714D02*
X139024819Y-48055952D01*
X139024819Y-48055952D02*
X139024819Y-48294047D01*
X139024819Y-48294047D02*
X139072438Y-48389285D01*
X139072438Y-48389285D02*
X139120057Y-48436904D01*
X139120057Y-48436904D02*
X139215295Y-48484523D01*
X139215295Y-48484523D02*
X139310533Y-48484523D01*
X139310533Y-48484523D02*
X139453390Y-48436904D01*
X139453390Y-48436904D02*
X140024819Y-47865476D01*
X140024819Y-47865476D02*
X140024819Y-48484523D01*
X139024819Y-49389285D02*
X139024819Y-48913095D01*
X139024819Y-48913095D02*
X139501009Y-48865476D01*
X139501009Y-48865476D02*
X139453390Y-48913095D01*
X139453390Y-48913095D02*
X139405771Y-49008333D01*
X139405771Y-49008333D02*
X139405771Y-49246428D01*
X139405771Y-49246428D02*
X139453390Y-49341666D01*
X139453390Y-49341666D02*
X139501009Y-49389285D01*
X139501009Y-49389285D02*
X139596247Y-49436904D01*
X139596247Y-49436904D02*
X139834342Y-49436904D01*
X139834342Y-49436904D02*
X139929580Y-49389285D01*
X139929580Y-49389285D02*
X139977200Y-49341666D01*
X139977200Y-49341666D02*
X140024819Y-49246428D01*
X140024819Y-49246428D02*
X140024819Y-49008333D01*
X140024819Y-49008333D02*
X139977200Y-48913095D01*
X139977200Y-48913095D02*
X139929580Y-48865476D01*
X136184819Y-57832142D02*
X135708628Y-57498809D01*
X136184819Y-57260714D02*
X135184819Y-57260714D01*
X135184819Y-57260714D02*
X135184819Y-57641666D01*
X135184819Y-57641666D02*
X135232438Y-57736904D01*
X135232438Y-57736904D02*
X135280057Y-57784523D01*
X135280057Y-57784523D02*
X135375295Y-57832142D01*
X135375295Y-57832142D02*
X135518152Y-57832142D01*
X135518152Y-57832142D02*
X135613390Y-57784523D01*
X135613390Y-57784523D02*
X135661009Y-57736904D01*
X135661009Y-57736904D02*
X135708628Y-57641666D01*
X135708628Y-57641666D02*
X135708628Y-57260714D01*
X136184819Y-58784523D02*
X136184819Y-58213095D01*
X136184819Y-58498809D02*
X135184819Y-58498809D01*
X135184819Y-58498809D02*
X135327676Y-58403571D01*
X135327676Y-58403571D02*
X135422914Y-58308333D01*
X135422914Y-58308333D02*
X135470533Y-58213095D01*
X135280057Y-59165476D02*
X135232438Y-59213095D01*
X135232438Y-59213095D02*
X135184819Y-59308333D01*
X135184819Y-59308333D02*
X135184819Y-59546428D01*
X135184819Y-59546428D02*
X135232438Y-59641666D01*
X135232438Y-59641666D02*
X135280057Y-59689285D01*
X135280057Y-59689285D02*
X135375295Y-59736904D01*
X135375295Y-59736904D02*
X135470533Y-59736904D01*
X135470533Y-59736904D02*
X135613390Y-59689285D01*
X135613390Y-59689285D02*
X136184819Y-59117857D01*
X136184819Y-59117857D02*
X136184819Y-59736904D01*
X129476190Y-78278628D02*
X129476190Y-78754819D01*
X129809523Y-77754819D02*
X129476190Y-78278628D01*
X129476190Y-78278628D02*
X129142857Y-77754819D01*
X128285714Y-78754819D02*
X128857142Y-78754819D01*
X128571428Y-78754819D02*
X128571428Y-77754819D01*
X128571428Y-77754819D02*
X128666666Y-77897676D01*
X128666666Y-77897676D02*
X128761904Y-77992914D01*
X128761904Y-77992914D02*
X128857142Y-78040533D01*
X138917857Y-36924819D02*
X139251190Y-36448628D01*
X139489285Y-36924819D02*
X139489285Y-35924819D01*
X139489285Y-35924819D02*
X139108333Y-35924819D01*
X139108333Y-35924819D02*
X139013095Y-35972438D01*
X139013095Y-35972438D02*
X138965476Y-36020057D01*
X138965476Y-36020057D02*
X138917857Y-36115295D01*
X138917857Y-36115295D02*
X138917857Y-36258152D01*
X138917857Y-36258152D02*
X138965476Y-36353390D01*
X138965476Y-36353390D02*
X139013095Y-36401009D01*
X139013095Y-36401009D02*
X139108333Y-36448628D01*
X139108333Y-36448628D02*
X139489285Y-36448628D01*
X138584523Y-35924819D02*
X137965476Y-35924819D01*
X137965476Y-35924819D02*
X138298809Y-36305771D01*
X138298809Y-36305771D02*
X138155952Y-36305771D01*
X138155952Y-36305771D02*
X138060714Y-36353390D01*
X138060714Y-36353390D02*
X138013095Y-36401009D01*
X138013095Y-36401009D02*
X137965476Y-36496247D01*
X137965476Y-36496247D02*
X137965476Y-36734342D01*
X137965476Y-36734342D02*
X138013095Y-36829580D01*
X138013095Y-36829580D02*
X138060714Y-36877200D01*
X138060714Y-36877200D02*
X138155952Y-36924819D01*
X138155952Y-36924819D02*
X138441666Y-36924819D01*
X138441666Y-36924819D02*
X138536904Y-36877200D01*
X138536904Y-36877200D02*
X138584523Y-36829580D01*
X137584523Y-36020057D02*
X137536904Y-35972438D01*
X137536904Y-35972438D02*
X137441666Y-35924819D01*
X137441666Y-35924819D02*
X137203571Y-35924819D01*
X137203571Y-35924819D02*
X137108333Y-35972438D01*
X137108333Y-35972438D02*
X137060714Y-36020057D01*
X137060714Y-36020057D02*
X137013095Y-36115295D01*
X137013095Y-36115295D02*
X137013095Y-36210533D01*
X137013095Y-36210533D02*
X137060714Y-36353390D01*
X137060714Y-36353390D02*
X137632142Y-36924819D01*
X137632142Y-36924819D02*
X137013095Y-36924819D01*
X130324819Y-57358333D02*
X129848628Y-57025000D01*
X130324819Y-56786905D02*
X129324819Y-56786905D01*
X129324819Y-56786905D02*
X129324819Y-57167857D01*
X129324819Y-57167857D02*
X129372438Y-57263095D01*
X129372438Y-57263095D02*
X129420057Y-57310714D01*
X129420057Y-57310714D02*
X129515295Y-57358333D01*
X129515295Y-57358333D02*
X129658152Y-57358333D01*
X129658152Y-57358333D02*
X129753390Y-57310714D01*
X129753390Y-57310714D02*
X129801009Y-57263095D01*
X129801009Y-57263095D02*
X129848628Y-57167857D01*
X129848628Y-57167857D02*
X129848628Y-56786905D01*
X129658152Y-58215476D02*
X130324819Y-58215476D01*
X129277200Y-57977381D02*
X129991485Y-57739286D01*
X129991485Y-57739286D02*
X129991485Y-58358333D01*
X127630580Y-61858142D02*
X127678200Y-61810523D01*
X127678200Y-61810523D02*
X127725819Y-61667666D01*
X127725819Y-61667666D02*
X127725819Y-61572428D01*
X127725819Y-61572428D02*
X127678200Y-61429571D01*
X127678200Y-61429571D02*
X127582961Y-61334333D01*
X127582961Y-61334333D02*
X127487723Y-61286714D01*
X127487723Y-61286714D02*
X127297247Y-61239095D01*
X127297247Y-61239095D02*
X127154390Y-61239095D01*
X127154390Y-61239095D02*
X126963914Y-61286714D01*
X126963914Y-61286714D02*
X126868676Y-61334333D01*
X126868676Y-61334333D02*
X126773438Y-61429571D01*
X126773438Y-61429571D02*
X126725819Y-61572428D01*
X126725819Y-61572428D02*
X126725819Y-61667666D01*
X126725819Y-61667666D02*
X126773438Y-61810523D01*
X126773438Y-61810523D02*
X126821057Y-61858142D01*
X127725819Y-62810523D02*
X127725819Y-62239095D01*
X127725819Y-62524809D02*
X126725819Y-62524809D01*
X126725819Y-62524809D02*
X126868676Y-62429571D01*
X126868676Y-62429571D02*
X126963914Y-62334333D01*
X126963914Y-62334333D02*
X127011533Y-62239095D01*
X126725819Y-63143857D02*
X126725819Y-63762904D01*
X126725819Y-63762904D02*
X127106771Y-63429571D01*
X127106771Y-63429571D02*
X127106771Y-63572428D01*
X127106771Y-63572428D02*
X127154390Y-63667666D01*
X127154390Y-63667666D02*
X127202009Y-63715285D01*
X127202009Y-63715285D02*
X127297247Y-63762904D01*
X127297247Y-63762904D02*
X127535342Y-63762904D01*
X127535342Y-63762904D02*
X127630580Y-63715285D01*
X127630580Y-63715285D02*
X127678200Y-63667666D01*
X127678200Y-63667666D02*
X127725819Y-63572428D01*
X127725819Y-63572428D02*
X127725819Y-63286714D01*
X127725819Y-63286714D02*
X127678200Y-63191476D01*
X127678200Y-63191476D02*
X127630580Y-63143857D01*
X150529580Y-53757142D02*
X150577200Y-53709523D01*
X150577200Y-53709523D02*
X150624819Y-53566666D01*
X150624819Y-53566666D02*
X150624819Y-53471428D01*
X150624819Y-53471428D02*
X150577200Y-53328571D01*
X150577200Y-53328571D02*
X150481961Y-53233333D01*
X150481961Y-53233333D02*
X150386723Y-53185714D01*
X150386723Y-53185714D02*
X150196247Y-53138095D01*
X150196247Y-53138095D02*
X150053390Y-53138095D01*
X150053390Y-53138095D02*
X149862914Y-53185714D01*
X149862914Y-53185714D02*
X149767676Y-53233333D01*
X149767676Y-53233333D02*
X149672438Y-53328571D01*
X149672438Y-53328571D02*
X149624819Y-53471428D01*
X149624819Y-53471428D02*
X149624819Y-53566666D01*
X149624819Y-53566666D02*
X149672438Y-53709523D01*
X149672438Y-53709523D02*
X149720057Y-53757142D01*
X149720057Y-54138095D02*
X149672438Y-54185714D01*
X149672438Y-54185714D02*
X149624819Y-54280952D01*
X149624819Y-54280952D02*
X149624819Y-54519047D01*
X149624819Y-54519047D02*
X149672438Y-54614285D01*
X149672438Y-54614285D02*
X149720057Y-54661904D01*
X149720057Y-54661904D02*
X149815295Y-54709523D01*
X149815295Y-54709523D02*
X149910533Y-54709523D01*
X149910533Y-54709523D02*
X150053390Y-54661904D01*
X150053390Y-54661904D02*
X150624819Y-54090476D01*
X150624819Y-54090476D02*
X150624819Y-54709523D01*
X149624819Y-55566666D02*
X149624819Y-55376190D01*
X149624819Y-55376190D02*
X149672438Y-55280952D01*
X149672438Y-55280952D02*
X149720057Y-55233333D01*
X149720057Y-55233333D02*
X149862914Y-55138095D01*
X149862914Y-55138095D02*
X150053390Y-55090476D01*
X150053390Y-55090476D02*
X150434342Y-55090476D01*
X150434342Y-55090476D02*
X150529580Y-55138095D01*
X150529580Y-55138095D02*
X150577200Y-55185714D01*
X150577200Y-55185714D02*
X150624819Y-55280952D01*
X150624819Y-55280952D02*
X150624819Y-55471428D01*
X150624819Y-55471428D02*
X150577200Y-55566666D01*
X150577200Y-55566666D02*
X150529580Y-55614285D01*
X150529580Y-55614285D02*
X150434342Y-55661904D01*
X150434342Y-55661904D02*
X150196247Y-55661904D01*
X150196247Y-55661904D02*
X150101009Y-55614285D01*
X150101009Y-55614285D02*
X150053390Y-55566666D01*
X150053390Y-55566666D02*
X150005771Y-55471428D01*
X150005771Y-55471428D02*
X150005771Y-55280952D01*
X150005771Y-55280952D02*
X150053390Y-55185714D01*
X150053390Y-55185714D02*
X150101009Y-55138095D01*
X150101009Y-55138095D02*
X150196247Y-55090476D01*
X130767857Y-71789580D02*
X130815476Y-71837200D01*
X130815476Y-71837200D02*
X130958333Y-71884819D01*
X130958333Y-71884819D02*
X131053571Y-71884819D01*
X131053571Y-71884819D02*
X131196428Y-71837200D01*
X131196428Y-71837200D02*
X131291666Y-71741961D01*
X131291666Y-71741961D02*
X131339285Y-71646723D01*
X131339285Y-71646723D02*
X131386904Y-71456247D01*
X131386904Y-71456247D02*
X131386904Y-71313390D01*
X131386904Y-71313390D02*
X131339285Y-71122914D01*
X131339285Y-71122914D02*
X131291666Y-71027676D01*
X131291666Y-71027676D02*
X131196428Y-70932438D01*
X131196428Y-70932438D02*
X131053571Y-70884819D01*
X131053571Y-70884819D02*
X130958333Y-70884819D01*
X130958333Y-70884819D02*
X130815476Y-70932438D01*
X130815476Y-70932438D02*
X130767857Y-70980057D01*
X129815476Y-71884819D02*
X130386904Y-71884819D01*
X130101190Y-71884819D02*
X130101190Y-70884819D01*
X130101190Y-70884819D02*
X130196428Y-71027676D01*
X130196428Y-71027676D02*
X130291666Y-71122914D01*
X130291666Y-71122914D02*
X130386904Y-71170533D01*
X128958333Y-71218152D02*
X128958333Y-71884819D01*
X129196428Y-70837200D02*
X129434523Y-71551485D01*
X129434523Y-71551485D02*
X128815476Y-71551485D01*
X140642857Y-74529580D02*
X140690476Y-74577200D01*
X140690476Y-74577200D02*
X140833333Y-74624819D01*
X140833333Y-74624819D02*
X140928571Y-74624819D01*
X140928571Y-74624819D02*
X141071428Y-74577200D01*
X141071428Y-74577200D02*
X141166666Y-74481961D01*
X141166666Y-74481961D02*
X141214285Y-74386723D01*
X141214285Y-74386723D02*
X141261904Y-74196247D01*
X141261904Y-74196247D02*
X141261904Y-74053390D01*
X141261904Y-74053390D02*
X141214285Y-73862914D01*
X141214285Y-73862914D02*
X141166666Y-73767676D01*
X141166666Y-73767676D02*
X141071428Y-73672438D01*
X141071428Y-73672438D02*
X140928571Y-73624819D01*
X140928571Y-73624819D02*
X140833333Y-73624819D01*
X140833333Y-73624819D02*
X140690476Y-73672438D01*
X140690476Y-73672438D02*
X140642857Y-73720057D01*
X140261904Y-73720057D02*
X140214285Y-73672438D01*
X140214285Y-73672438D02*
X140119047Y-73624819D01*
X140119047Y-73624819D02*
X139880952Y-73624819D01*
X139880952Y-73624819D02*
X139785714Y-73672438D01*
X139785714Y-73672438D02*
X139738095Y-73720057D01*
X139738095Y-73720057D02*
X139690476Y-73815295D01*
X139690476Y-73815295D02*
X139690476Y-73910533D01*
X139690476Y-73910533D02*
X139738095Y-74053390D01*
X139738095Y-74053390D02*
X140309523Y-74624819D01*
X140309523Y-74624819D02*
X139690476Y-74624819D01*
X138833333Y-73958152D02*
X138833333Y-74624819D01*
X139071428Y-73577200D02*
X139309523Y-74291485D01*
X139309523Y-74291485D02*
X138690476Y-74291485D01*
X141024819Y-62557142D02*
X140548628Y-62223809D01*
X141024819Y-61985714D02*
X140024819Y-61985714D01*
X140024819Y-61985714D02*
X140024819Y-62366666D01*
X140024819Y-62366666D02*
X140072438Y-62461904D01*
X140072438Y-62461904D02*
X140120057Y-62509523D01*
X140120057Y-62509523D02*
X140215295Y-62557142D01*
X140215295Y-62557142D02*
X140358152Y-62557142D01*
X140358152Y-62557142D02*
X140453390Y-62509523D01*
X140453390Y-62509523D02*
X140501009Y-62461904D01*
X140501009Y-62461904D02*
X140548628Y-62366666D01*
X140548628Y-62366666D02*
X140548628Y-61985714D01*
X140358152Y-63414285D02*
X141024819Y-63414285D01*
X139977200Y-63176190D02*
X140691485Y-62938095D01*
X140691485Y-62938095D02*
X140691485Y-63557142D01*
X140120057Y-63890476D02*
X140072438Y-63938095D01*
X140072438Y-63938095D02*
X140024819Y-64033333D01*
X140024819Y-64033333D02*
X140024819Y-64271428D01*
X140024819Y-64271428D02*
X140072438Y-64366666D01*
X140072438Y-64366666D02*
X140120057Y-64414285D01*
X140120057Y-64414285D02*
X140215295Y-64461904D01*
X140215295Y-64461904D02*
X140310533Y-64461904D01*
X140310533Y-64461904D02*
X140453390Y-64414285D01*
X140453390Y-64414285D02*
X141024819Y-63842857D01*
X141024819Y-63842857D02*
X141024819Y-64461904D01*
X153389580Y-50757142D02*
X153437200Y-50709523D01*
X153437200Y-50709523D02*
X153484819Y-50566666D01*
X153484819Y-50566666D02*
X153484819Y-50471428D01*
X153484819Y-50471428D02*
X153437200Y-50328571D01*
X153437200Y-50328571D02*
X153341961Y-50233333D01*
X153341961Y-50233333D02*
X153246723Y-50185714D01*
X153246723Y-50185714D02*
X153056247Y-50138095D01*
X153056247Y-50138095D02*
X152913390Y-50138095D01*
X152913390Y-50138095D02*
X152722914Y-50185714D01*
X152722914Y-50185714D02*
X152627676Y-50233333D01*
X152627676Y-50233333D02*
X152532438Y-50328571D01*
X152532438Y-50328571D02*
X152484819Y-50471428D01*
X152484819Y-50471428D02*
X152484819Y-50566666D01*
X152484819Y-50566666D02*
X152532438Y-50709523D01*
X152532438Y-50709523D02*
X152580057Y-50757142D01*
X152580057Y-51138095D02*
X152532438Y-51185714D01*
X152532438Y-51185714D02*
X152484819Y-51280952D01*
X152484819Y-51280952D02*
X152484819Y-51519047D01*
X152484819Y-51519047D02*
X152532438Y-51614285D01*
X152532438Y-51614285D02*
X152580057Y-51661904D01*
X152580057Y-51661904D02*
X152675295Y-51709523D01*
X152675295Y-51709523D02*
X152770533Y-51709523D01*
X152770533Y-51709523D02*
X152913390Y-51661904D01*
X152913390Y-51661904D02*
X153484819Y-51090476D01*
X153484819Y-51090476D02*
X153484819Y-51709523D01*
X153484819Y-52185714D02*
X153484819Y-52376190D01*
X153484819Y-52376190D02*
X153437200Y-52471428D01*
X153437200Y-52471428D02*
X153389580Y-52519047D01*
X153389580Y-52519047D02*
X153246723Y-52614285D01*
X153246723Y-52614285D02*
X153056247Y-52661904D01*
X153056247Y-52661904D02*
X152675295Y-52661904D01*
X152675295Y-52661904D02*
X152580057Y-52614285D01*
X152580057Y-52614285D02*
X152532438Y-52566666D01*
X152532438Y-52566666D02*
X152484819Y-52471428D01*
X152484819Y-52471428D02*
X152484819Y-52280952D01*
X152484819Y-52280952D02*
X152532438Y-52185714D01*
X152532438Y-52185714D02*
X152580057Y-52138095D01*
X152580057Y-52138095D02*
X152675295Y-52090476D01*
X152675295Y-52090476D02*
X152913390Y-52090476D01*
X152913390Y-52090476D02*
X153008628Y-52138095D01*
X153008628Y-52138095D02*
X153056247Y-52185714D01*
X153056247Y-52185714D02*
X153103866Y-52280952D01*
X153103866Y-52280952D02*
X153103866Y-52471428D01*
X153103866Y-52471428D02*
X153056247Y-52566666D01*
X153056247Y-52566666D02*
X153008628Y-52614285D01*
X153008628Y-52614285D02*
X152913390Y-52661904D01*
X138917857Y-38424819D02*
X139251190Y-37948628D01*
X139489285Y-38424819D02*
X139489285Y-37424819D01*
X139489285Y-37424819D02*
X139108333Y-37424819D01*
X139108333Y-37424819D02*
X139013095Y-37472438D01*
X139013095Y-37472438D02*
X138965476Y-37520057D01*
X138965476Y-37520057D02*
X138917857Y-37615295D01*
X138917857Y-37615295D02*
X138917857Y-37758152D01*
X138917857Y-37758152D02*
X138965476Y-37853390D01*
X138965476Y-37853390D02*
X139013095Y-37901009D01*
X139013095Y-37901009D02*
X139108333Y-37948628D01*
X139108333Y-37948628D02*
X139489285Y-37948628D01*
X138584523Y-37424819D02*
X137965476Y-37424819D01*
X137965476Y-37424819D02*
X138298809Y-37805771D01*
X138298809Y-37805771D02*
X138155952Y-37805771D01*
X138155952Y-37805771D02*
X138060714Y-37853390D01*
X138060714Y-37853390D02*
X138013095Y-37901009D01*
X138013095Y-37901009D02*
X137965476Y-37996247D01*
X137965476Y-37996247D02*
X137965476Y-38234342D01*
X137965476Y-38234342D02*
X138013095Y-38329580D01*
X138013095Y-38329580D02*
X138060714Y-38377200D01*
X138060714Y-38377200D02*
X138155952Y-38424819D01*
X138155952Y-38424819D02*
X138441666Y-38424819D01*
X138441666Y-38424819D02*
X138536904Y-38377200D01*
X138536904Y-38377200D02*
X138584523Y-38329580D01*
X137346428Y-37424819D02*
X137251190Y-37424819D01*
X137251190Y-37424819D02*
X137155952Y-37472438D01*
X137155952Y-37472438D02*
X137108333Y-37520057D01*
X137108333Y-37520057D02*
X137060714Y-37615295D01*
X137060714Y-37615295D02*
X137013095Y-37805771D01*
X137013095Y-37805771D02*
X137013095Y-38043866D01*
X137013095Y-38043866D02*
X137060714Y-38234342D01*
X137060714Y-38234342D02*
X137108333Y-38329580D01*
X137108333Y-38329580D02*
X137155952Y-38377200D01*
X137155952Y-38377200D02*
X137251190Y-38424819D01*
X137251190Y-38424819D02*
X137346428Y-38424819D01*
X137346428Y-38424819D02*
X137441666Y-38377200D01*
X137441666Y-38377200D02*
X137489285Y-38329580D01*
X137489285Y-38329580D02*
X137536904Y-38234342D01*
X137536904Y-38234342D02*
X137584523Y-38043866D01*
X137584523Y-38043866D02*
X137584523Y-37805771D01*
X137584523Y-37805771D02*
X137536904Y-37615295D01*
X137536904Y-37615295D02*
X137489285Y-37520057D01*
X137489285Y-37520057D02*
X137441666Y-37472438D01*
X137441666Y-37472438D02*
X137346428Y-37424819D01*
X138284819Y-48033333D02*
X137808628Y-47700000D01*
X138284819Y-47461905D02*
X137284819Y-47461905D01*
X137284819Y-47461905D02*
X137284819Y-47842857D01*
X137284819Y-47842857D02*
X137332438Y-47938095D01*
X137332438Y-47938095D02*
X137380057Y-47985714D01*
X137380057Y-47985714D02*
X137475295Y-48033333D01*
X137475295Y-48033333D02*
X137618152Y-48033333D01*
X137618152Y-48033333D02*
X137713390Y-47985714D01*
X137713390Y-47985714D02*
X137761009Y-47938095D01*
X137761009Y-47938095D02*
X137808628Y-47842857D01*
X137808628Y-47842857D02*
X137808628Y-47461905D01*
X137284819Y-48890476D02*
X137284819Y-48700000D01*
X137284819Y-48700000D02*
X137332438Y-48604762D01*
X137332438Y-48604762D02*
X137380057Y-48557143D01*
X137380057Y-48557143D02*
X137522914Y-48461905D01*
X137522914Y-48461905D02*
X137713390Y-48414286D01*
X137713390Y-48414286D02*
X138094342Y-48414286D01*
X138094342Y-48414286D02*
X138189580Y-48461905D01*
X138189580Y-48461905D02*
X138237200Y-48509524D01*
X138237200Y-48509524D02*
X138284819Y-48604762D01*
X138284819Y-48604762D02*
X138284819Y-48795238D01*
X138284819Y-48795238D02*
X138237200Y-48890476D01*
X138237200Y-48890476D02*
X138189580Y-48938095D01*
X138189580Y-48938095D02*
X138094342Y-48985714D01*
X138094342Y-48985714D02*
X137856247Y-48985714D01*
X137856247Y-48985714D02*
X137761009Y-48938095D01*
X137761009Y-48938095D02*
X137713390Y-48890476D01*
X137713390Y-48890476D02*
X137665771Y-48795238D01*
X137665771Y-48795238D02*
X137665771Y-48604762D01*
X137665771Y-48604762D02*
X137713390Y-48509524D01*
X137713390Y-48509524D02*
X137761009Y-48461905D01*
X137761009Y-48461905D02*
X137856247Y-48414286D01*
X137024819Y-61957142D02*
X136548628Y-61623809D01*
X137024819Y-61385714D02*
X136024819Y-61385714D01*
X136024819Y-61385714D02*
X136024819Y-61766666D01*
X136024819Y-61766666D02*
X136072438Y-61861904D01*
X136072438Y-61861904D02*
X136120057Y-61909523D01*
X136120057Y-61909523D02*
X136215295Y-61957142D01*
X136215295Y-61957142D02*
X136358152Y-61957142D01*
X136358152Y-61957142D02*
X136453390Y-61909523D01*
X136453390Y-61909523D02*
X136501009Y-61861904D01*
X136501009Y-61861904D02*
X136548628Y-61766666D01*
X136548628Y-61766666D02*
X136548628Y-61385714D01*
X136358152Y-62814285D02*
X137024819Y-62814285D01*
X135977200Y-62576190D02*
X136691485Y-62338095D01*
X136691485Y-62338095D02*
X136691485Y-62957142D01*
X136358152Y-63766666D02*
X137024819Y-63766666D01*
X135977200Y-63528571D02*
X136691485Y-63290476D01*
X136691485Y-63290476D02*
X136691485Y-63909523D01*
X126589580Y-28533333D02*
X126637200Y-28485714D01*
X126637200Y-28485714D02*
X126684819Y-28342857D01*
X126684819Y-28342857D02*
X126684819Y-28247619D01*
X126684819Y-28247619D02*
X126637200Y-28104762D01*
X126637200Y-28104762D02*
X126541961Y-28009524D01*
X126541961Y-28009524D02*
X126446723Y-27961905D01*
X126446723Y-27961905D02*
X126256247Y-27914286D01*
X126256247Y-27914286D02*
X126113390Y-27914286D01*
X126113390Y-27914286D02*
X125922914Y-27961905D01*
X125922914Y-27961905D02*
X125827676Y-28009524D01*
X125827676Y-28009524D02*
X125732438Y-28104762D01*
X125732438Y-28104762D02*
X125684819Y-28247619D01*
X125684819Y-28247619D02*
X125684819Y-28342857D01*
X125684819Y-28342857D02*
X125732438Y-28485714D01*
X125732438Y-28485714D02*
X125780057Y-28533333D01*
X126113390Y-29104762D02*
X126065771Y-29009524D01*
X126065771Y-29009524D02*
X126018152Y-28961905D01*
X126018152Y-28961905D02*
X125922914Y-28914286D01*
X125922914Y-28914286D02*
X125875295Y-28914286D01*
X125875295Y-28914286D02*
X125780057Y-28961905D01*
X125780057Y-28961905D02*
X125732438Y-29009524D01*
X125732438Y-29009524D02*
X125684819Y-29104762D01*
X125684819Y-29104762D02*
X125684819Y-29295238D01*
X125684819Y-29295238D02*
X125732438Y-29390476D01*
X125732438Y-29390476D02*
X125780057Y-29438095D01*
X125780057Y-29438095D02*
X125875295Y-29485714D01*
X125875295Y-29485714D02*
X125922914Y-29485714D01*
X125922914Y-29485714D02*
X126018152Y-29438095D01*
X126018152Y-29438095D02*
X126065771Y-29390476D01*
X126065771Y-29390476D02*
X126113390Y-29295238D01*
X126113390Y-29295238D02*
X126113390Y-29104762D01*
X126113390Y-29104762D02*
X126161009Y-29009524D01*
X126161009Y-29009524D02*
X126208628Y-28961905D01*
X126208628Y-28961905D02*
X126303866Y-28914286D01*
X126303866Y-28914286D02*
X126494342Y-28914286D01*
X126494342Y-28914286D02*
X126589580Y-28961905D01*
X126589580Y-28961905D02*
X126637200Y-29009524D01*
X126637200Y-29009524D02*
X126684819Y-29104762D01*
X126684819Y-29104762D02*
X126684819Y-29295238D01*
X126684819Y-29295238D02*
X126637200Y-29390476D01*
X126637200Y-29390476D02*
X126589580Y-29438095D01*
X126589580Y-29438095D02*
X126494342Y-29485714D01*
X126494342Y-29485714D02*
X126303866Y-29485714D01*
X126303866Y-29485714D02*
X126208628Y-29438095D01*
X126208628Y-29438095D02*
X126161009Y-29390476D01*
X126161009Y-29390476D02*
X126113390Y-29295238D01*
X125484819Y-82108333D02*
X125008628Y-81775000D01*
X125484819Y-81536905D02*
X124484819Y-81536905D01*
X124484819Y-81536905D02*
X124484819Y-81917857D01*
X124484819Y-81917857D02*
X124532438Y-82013095D01*
X124532438Y-82013095D02*
X124580057Y-82060714D01*
X124580057Y-82060714D02*
X124675295Y-82108333D01*
X124675295Y-82108333D02*
X124818152Y-82108333D01*
X124818152Y-82108333D02*
X124913390Y-82060714D01*
X124913390Y-82060714D02*
X124961009Y-82013095D01*
X124961009Y-82013095D02*
X125008628Y-81917857D01*
X125008628Y-81917857D02*
X125008628Y-81536905D01*
X125484819Y-82584524D02*
X125484819Y-82775000D01*
X125484819Y-82775000D02*
X125437200Y-82870238D01*
X125437200Y-82870238D02*
X125389580Y-82917857D01*
X125389580Y-82917857D02*
X125246723Y-83013095D01*
X125246723Y-83013095D02*
X125056247Y-83060714D01*
X125056247Y-83060714D02*
X124675295Y-83060714D01*
X124675295Y-83060714D02*
X124580057Y-83013095D01*
X124580057Y-83013095D02*
X124532438Y-82965476D01*
X124532438Y-82965476D02*
X124484819Y-82870238D01*
X124484819Y-82870238D02*
X124484819Y-82679762D01*
X124484819Y-82679762D02*
X124532438Y-82584524D01*
X124532438Y-82584524D02*
X124580057Y-82536905D01*
X124580057Y-82536905D02*
X124675295Y-82489286D01*
X124675295Y-82489286D02*
X124913390Y-82489286D01*
X124913390Y-82489286D02*
X125008628Y-82536905D01*
X125008628Y-82536905D02*
X125056247Y-82584524D01*
X125056247Y-82584524D02*
X125103866Y-82679762D01*
X125103866Y-82679762D02*
X125103866Y-82870238D01*
X125103866Y-82870238D02*
X125056247Y-82965476D01*
X125056247Y-82965476D02*
X125008628Y-83013095D01*
X125008628Y-83013095D02*
X124913390Y-83060714D01*
X130291666Y-73289580D02*
X130339285Y-73337200D01*
X130339285Y-73337200D02*
X130482142Y-73384819D01*
X130482142Y-73384819D02*
X130577380Y-73384819D01*
X130577380Y-73384819D02*
X130720237Y-73337200D01*
X130720237Y-73337200D02*
X130815475Y-73241961D01*
X130815475Y-73241961D02*
X130863094Y-73146723D01*
X130863094Y-73146723D02*
X130910713Y-72956247D01*
X130910713Y-72956247D02*
X130910713Y-72813390D01*
X130910713Y-72813390D02*
X130863094Y-72622914D01*
X130863094Y-72622914D02*
X130815475Y-72527676D01*
X130815475Y-72527676D02*
X130720237Y-72432438D01*
X130720237Y-72432438D02*
X130577380Y-72384819D01*
X130577380Y-72384819D02*
X130482142Y-72384819D01*
X130482142Y-72384819D02*
X130339285Y-72432438D01*
X130339285Y-72432438D02*
X130291666Y-72480057D01*
X129958332Y-72384819D02*
X129339285Y-72384819D01*
X129339285Y-72384819D02*
X129672618Y-72765771D01*
X129672618Y-72765771D02*
X129529761Y-72765771D01*
X129529761Y-72765771D02*
X129434523Y-72813390D01*
X129434523Y-72813390D02*
X129386904Y-72861009D01*
X129386904Y-72861009D02*
X129339285Y-72956247D01*
X129339285Y-72956247D02*
X129339285Y-73194342D01*
X129339285Y-73194342D02*
X129386904Y-73289580D01*
X129386904Y-73289580D02*
X129434523Y-73337200D01*
X129434523Y-73337200D02*
X129529761Y-73384819D01*
X129529761Y-73384819D02*
X129815475Y-73384819D01*
X129815475Y-73384819D02*
X129910713Y-73337200D01*
X129910713Y-73337200D02*
X129958332Y-73289580D01*
X152154819Y-52136905D02*
X151154819Y-52136905D01*
X151154819Y-52136905D02*
X151154819Y-52375000D01*
X151154819Y-52375000D02*
X151202438Y-52517857D01*
X151202438Y-52517857D02*
X151297676Y-52613095D01*
X151297676Y-52613095D02*
X151392914Y-52660714D01*
X151392914Y-52660714D02*
X151583390Y-52708333D01*
X151583390Y-52708333D02*
X151726247Y-52708333D01*
X151726247Y-52708333D02*
X151916723Y-52660714D01*
X151916723Y-52660714D02*
X152011961Y-52613095D01*
X152011961Y-52613095D02*
X152107200Y-52517857D01*
X152107200Y-52517857D02*
X152154819Y-52375000D01*
X152154819Y-52375000D02*
X152154819Y-52136905D01*
X152154819Y-53184524D02*
X152154819Y-53375000D01*
X152154819Y-53375000D02*
X152107200Y-53470238D01*
X152107200Y-53470238D02*
X152059580Y-53517857D01*
X152059580Y-53517857D02*
X151916723Y-53613095D01*
X151916723Y-53613095D02*
X151726247Y-53660714D01*
X151726247Y-53660714D02*
X151345295Y-53660714D01*
X151345295Y-53660714D02*
X151250057Y-53613095D01*
X151250057Y-53613095D02*
X151202438Y-53565476D01*
X151202438Y-53565476D02*
X151154819Y-53470238D01*
X151154819Y-53470238D02*
X151154819Y-53279762D01*
X151154819Y-53279762D02*
X151202438Y-53184524D01*
X151202438Y-53184524D02*
X151250057Y-53136905D01*
X151250057Y-53136905D02*
X151345295Y-53089286D01*
X151345295Y-53089286D02*
X151583390Y-53089286D01*
X151583390Y-53089286D02*
X151678628Y-53136905D01*
X151678628Y-53136905D02*
X151726247Y-53184524D01*
X151726247Y-53184524D02*
X151773866Y-53279762D01*
X151773866Y-53279762D02*
X151773866Y-53470238D01*
X151773866Y-53470238D02*
X151726247Y-53565476D01*
X151726247Y-53565476D02*
X151678628Y-53613095D01*
X151678628Y-53613095D02*
X151583390Y-53660714D01*
X151238094Y-26804819D02*
X151238094Y-25804819D01*
X151238094Y-25804819D02*
X150999999Y-25804819D01*
X150999999Y-25804819D02*
X150857142Y-25852438D01*
X150857142Y-25852438D02*
X150761904Y-25947676D01*
X150761904Y-25947676D02*
X150714285Y-26042914D01*
X150714285Y-26042914D02*
X150666666Y-26233390D01*
X150666666Y-26233390D02*
X150666666Y-26376247D01*
X150666666Y-26376247D02*
X150714285Y-26566723D01*
X150714285Y-26566723D02*
X150761904Y-26661961D01*
X150761904Y-26661961D02*
X150857142Y-26757200D01*
X150857142Y-26757200D02*
X150999999Y-26804819D01*
X150999999Y-26804819D02*
X151238094Y-26804819D01*
X150333332Y-25804819D02*
X149666666Y-25804819D01*
X149666666Y-25804819D02*
X150095237Y-26804819D01*
X142742857Y-74789580D02*
X142790476Y-74837200D01*
X142790476Y-74837200D02*
X142933333Y-74884819D01*
X142933333Y-74884819D02*
X143028571Y-74884819D01*
X143028571Y-74884819D02*
X143171428Y-74837200D01*
X143171428Y-74837200D02*
X143266666Y-74741961D01*
X143266666Y-74741961D02*
X143314285Y-74646723D01*
X143314285Y-74646723D02*
X143361904Y-74456247D01*
X143361904Y-74456247D02*
X143361904Y-74313390D01*
X143361904Y-74313390D02*
X143314285Y-74122914D01*
X143314285Y-74122914D02*
X143266666Y-74027676D01*
X143266666Y-74027676D02*
X143171428Y-73932438D01*
X143171428Y-73932438D02*
X143028571Y-73884819D01*
X143028571Y-73884819D02*
X142933333Y-73884819D01*
X142933333Y-73884819D02*
X142790476Y-73932438D01*
X142790476Y-73932438D02*
X142742857Y-73980057D01*
X142361904Y-73980057D02*
X142314285Y-73932438D01*
X142314285Y-73932438D02*
X142219047Y-73884819D01*
X142219047Y-73884819D02*
X141980952Y-73884819D01*
X141980952Y-73884819D02*
X141885714Y-73932438D01*
X141885714Y-73932438D02*
X141838095Y-73980057D01*
X141838095Y-73980057D02*
X141790476Y-74075295D01*
X141790476Y-74075295D02*
X141790476Y-74170533D01*
X141790476Y-74170533D02*
X141838095Y-74313390D01*
X141838095Y-74313390D02*
X142409523Y-74884819D01*
X142409523Y-74884819D02*
X141790476Y-74884819D01*
X141457142Y-73884819D02*
X140838095Y-73884819D01*
X140838095Y-73884819D02*
X141171428Y-74265771D01*
X141171428Y-74265771D02*
X141028571Y-74265771D01*
X141028571Y-74265771D02*
X140933333Y-74313390D01*
X140933333Y-74313390D02*
X140885714Y-74361009D01*
X140885714Y-74361009D02*
X140838095Y-74456247D01*
X140838095Y-74456247D02*
X140838095Y-74694342D01*
X140838095Y-74694342D02*
X140885714Y-74789580D01*
X140885714Y-74789580D02*
X140933333Y-74837200D01*
X140933333Y-74837200D02*
X141028571Y-74884819D01*
X141028571Y-74884819D02*
X141314285Y-74884819D01*
X141314285Y-74884819D02*
X141409523Y-74837200D01*
X141409523Y-74837200D02*
X141457142Y-74789580D01*
X130317857Y-74984819D02*
X130651190Y-74508628D01*
X130889285Y-74984819D02*
X130889285Y-73984819D01*
X130889285Y-73984819D02*
X130508333Y-73984819D01*
X130508333Y-73984819D02*
X130413095Y-74032438D01*
X130413095Y-74032438D02*
X130365476Y-74080057D01*
X130365476Y-74080057D02*
X130317857Y-74175295D01*
X130317857Y-74175295D02*
X130317857Y-74318152D01*
X130317857Y-74318152D02*
X130365476Y-74413390D01*
X130365476Y-74413390D02*
X130413095Y-74461009D01*
X130413095Y-74461009D02*
X130508333Y-74508628D01*
X130508333Y-74508628D02*
X130889285Y-74508628D01*
X129936904Y-74080057D02*
X129889285Y-74032438D01*
X129889285Y-74032438D02*
X129794047Y-73984819D01*
X129794047Y-73984819D02*
X129555952Y-73984819D01*
X129555952Y-73984819D02*
X129460714Y-74032438D01*
X129460714Y-74032438D02*
X129413095Y-74080057D01*
X129413095Y-74080057D02*
X129365476Y-74175295D01*
X129365476Y-74175295D02*
X129365476Y-74270533D01*
X129365476Y-74270533D02*
X129413095Y-74413390D01*
X129413095Y-74413390D02*
X129984523Y-74984819D01*
X129984523Y-74984819D02*
X129365476Y-74984819D01*
X129032142Y-73984819D02*
X128413095Y-73984819D01*
X128413095Y-73984819D02*
X128746428Y-74365771D01*
X128746428Y-74365771D02*
X128603571Y-74365771D01*
X128603571Y-74365771D02*
X128508333Y-74413390D01*
X128508333Y-74413390D02*
X128460714Y-74461009D01*
X128460714Y-74461009D02*
X128413095Y-74556247D01*
X128413095Y-74556247D02*
X128413095Y-74794342D01*
X128413095Y-74794342D02*
X128460714Y-74889580D01*
X128460714Y-74889580D02*
X128508333Y-74937200D01*
X128508333Y-74937200D02*
X128603571Y-74984819D01*
X128603571Y-74984819D02*
X128889285Y-74984819D01*
X128889285Y-74984819D02*
X128984523Y-74937200D01*
X128984523Y-74937200D02*
X129032142Y-74889580D01*
X128729580Y-55533333D02*
X128777200Y-55485714D01*
X128777200Y-55485714D02*
X128824819Y-55342857D01*
X128824819Y-55342857D02*
X128824819Y-55247619D01*
X128824819Y-55247619D02*
X128777200Y-55104762D01*
X128777200Y-55104762D02*
X128681961Y-55009524D01*
X128681961Y-55009524D02*
X128586723Y-54961905D01*
X128586723Y-54961905D02*
X128396247Y-54914286D01*
X128396247Y-54914286D02*
X128253390Y-54914286D01*
X128253390Y-54914286D02*
X128062914Y-54961905D01*
X128062914Y-54961905D02*
X127967676Y-55009524D01*
X127967676Y-55009524D02*
X127872438Y-55104762D01*
X127872438Y-55104762D02*
X127824819Y-55247619D01*
X127824819Y-55247619D02*
X127824819Y-55342857D01*
X127824819Y-55342857D02*
X127872438Y-55485714D01*
X127872438Y-55485714D02*
X127920057Y-55533333D01*
X127824819Y-56390476D02*
X127824819Y-56200000D01*
X127824819Y-56200000D02*
X127872438Y-56104762D01*
X127872438Y-56104762D02*
X127920057Y-56057143D01*
X127920057Y-56057143D02*
X128062914Y-55961905D01*
X128062914Y-55961905D02*
X128253390Y-55914286D01*
X128253390Y-55914286D02*
X128634342Y-55914286D01*
X128634342Y-55914286D02*
X128729580Y-55961905D01*
X128729580Y-55961905D02*
X128777200Y-56009524D01*
X128777200Y-56009524D02*
X128824819Y-56104762D01*
X128824819Y-56104762D02*
X128824819Y-56295238D01*
X128824819Y-56295238D02*
X128777200Y-56390476D01*
X128777200Y-56390476D02*
X128729580Y-56438095D01*
X128729580Y-56438095D02*
X128634342Y-56485714D01*
X128634342Y-56485714D02*
X128396247Y-56485714D01*
X128396247Y-56485714D02*
X128301009Y-56438095D01*
X128301009Y-56438095D02*
X128253390Y-56390476D01*
X128253390Y-56390476D02*
X128205771Y-56295238D01*
X128205771Y-56295238D02*
X128205771Y-56104762D01*
X128205771Y-56104762D02*
X128253390Y-56009524D01*
X128253390Y-56009524D02*
X128301009Y-55961905D01*
X128301009Y-55961905D02*
X128396247Y-55914286D01*
X138391666Y-40224819D02*
X138724999Y-39748628D01*
X138963094Y-40224819D02*
X138963094Y-39224819D01*
X138963094Y-39224819D02*
X138582142Y-39224819D01*
X138582142Y-39224819D02*
X138486904Y-39272438D01*
X138486904Y-39272438D02*
X138439285Y-39320057D01*
X138439285Y-39320057D02*
X138391666Y-39415295D01*
X138391666Y-39415295D02*
X138391666Y-39558152D01*
X138391666Y-39558152D02*
X138439285Y-39653390D01*
X138439285Y-39653390D02*
X138486904Y-39701009D01*
X138486904Y-39701009D02*
X138582142Y-39748628D01*
X138582142Y-39748628D02*
X138963094Y-39748628D01*
X137486904Y-39224819D02*
X137963094Y-39224819D01*
X137963094Y-39224819D02*
X138010713Y-39701009D01*
X138010713Y-39701009D02*
X137963094Y-39653390D01*
X137963094Y-39653390D02*
X137867856Y-39605771D01*
X137867856Y-39605771D02*
X137629761Y-39605771D01*
X137629761Y-39605771D02*
X137534523Y-39653390D01*
X137534523Y-39653390D02*
X137486904Y-39701009D01*
X137486904Y-39701009D02*
X137439285Y-39796247D01*
X137439285Y-39796247D02*
X137439285Y-40034342D01*
X137439285Y-40034342D02*
X137486904Y-40129580D01*
X137486904Y-40129580D02*
X137534523Y-40177200D01*
X137534523Y-40177200D02*
X137629761Y-40224819D01*
X137629761Y-40224819D02*
X137867856Y-40224819D01*
X137867856Y-40224819D02*
X137963094Y-40177200D01*
X137963094Y-40177200D02*
X138010713Y-40129580D01*
X119454819Y-28335714D02*
X118454819Y-28335714D01*
X118454819Y-28335714D02*
X118454819Y-28573809D01*
X118454819Y-28573809D02*
X118502438Y-28716666D01*
X118502438Y-28716666D02*
X118597676Y-28811904D01*
X118597676Y-28811904D02*
X118692914Y-28859523D01*
X118692914Y-28859523D02*
X118883390Y-28907142D01*
X118883390Y-28907142D02*
X119026247Y-28907142D01*
X119026247Y-28907142D02*
X119216723Y-28859523D01*
X119216723Y-28859523D02*
X119311961Y-28811904D01*
X119311961Y-28811904D02*
X119407200Y-28716666D01*
X119407200Y-28716666D02*
X119454819Y-28573809D01*
X119454819Y-28573809D02*
X119454819Y-28335714D01*
X119454819Y-29859523D02*
X119454819Y-29288095D01*
X119454819Y-29573809D02*
X118454819Y-29573809D01*
X118454819Y-29573809D02*
X118597676Y-29478571D01*
X118597676Y-29478571D02*
X118692914Y-29383333D01*
X118692914Y-29383333D02*
X118740533Y-29288095D01*
X118454819Y-30478571D02*
X118454819Y-30573809D01*
X118454819Y-30573809D02*
X118502438Y-30669047D01*
X118502438Y-30669047D02*
X118550057Y-30716666D01*
X118550057Y-30716666D02*
X118645295Y-30764285D01*
X118645295Y-30764285D02*
X118835771Y-30811904D01*
X118835771Y-30811904D02*
X119073866Y-30811904D01*
X119073866Y-30811904D02*
X119264342Y-30764285D01*
X119264342Y-30764285D02*
X119359580Y-30716666D01*
X119359580Y-30716666D02*
X119407200Y-30669047D01*
X119407200Y-30669047D02*
X119454819Y-30573809D01*
X119454819Y-30573809D02*
X119454819Y-30478571D01*
X119454819Y-30478571D02*
X119407200Y-30383333D01*
X119407200Y-30383333D02*
X119359580Y-30335714D01*
X119359580Y-30335714D02*
X119264342Y-30288095D01*
X119264342Y-30288095D02*
X119073866Y-30240476D01*
X119073866Y-30240476D02*
X118835771Y-30240476D01*
X118835771Y-30240476D02*
X118645295Y-30288095D01*
X118645295Y-30288095D02*
X118550057Y-30335714D01*
X118550057Y-30335714D02*
X118502438Y-30383333D01*
X118502438Y-30383333D02*
X118454819Y-30478571D01*
X128541666Y-91884819D02*
X128874999Y-91408628D01*
X129113094Y-91884819D02*
X129113094Y-90884819D01*
X129113094Y-90884819D02*
X128732142Y-90884819D01*
X128732142Y-90884819D02*
X128636904Y-90932438D01*
X128636904Y-90932438D02*
X128589285Y-90980057D01*
X128589285Y-90980057D02*
X128541666Y-91075295D01*
X128541666Y-91075295D02*
X128541666Y-91218152D01*
X128541666Y-91218152D02*
X128589285Y-91313390D01*
X128589285Y-91313390D02*
X128636904Y-91361009D01*
X128636904Y-91361009D02*
X128732142Y-91408628D01*
X128732142Y-91408628D02*
X129113094Y-91408628D01*
X128160713Y-90980057D02*
X128113094Y-90932438D01*
X128113094Y-90932438D02*
X128017856Y-90884819D01*
X128017856Y-90884819D02*
X127779761Y-90884819D01*
X127779761Y-90884819D02*
X127684523Y-90932438D01*
X127684523Y-90932438D02*
X127636904Y-90980057D01*
X127636904Y-90980057D02*
X127589285Y-91075295D01*
X127589285Y-91075295D02*
X127589285Y-91170533D01*
X127589285Y-91170533D02*
X127636904Y-91313390D01*
X127636904Y-91313390D02*
X128208332Y-91884819D01*
X128208332Y-91884819D02*
X127589285Y-91884819D01*
X139117857Y-28324819D02*
X139451190Y-27848628D01*
X139689285Y-28324819D02*
X139689285Y-27324819D01*
X139689285Y-27324819D02*
X139308333Y-27324819D01*
X139308333Y-27324819D02*
X139213095Y-27372438D01*
X139213095Y-27372438D02*
X139165476Y-27420057D01*
X139165476Y-27420057D02*
X139117857Y-27515295D01*
X139117857Y-27515295D02*
X139117857Y-27658152D01*
X139117857Y-27658152D02*
X139165476Y-27753390D01*
X139165476Y-27753390D02*
X139213095Y-27801009D01*
X139213095Y-27801009D02*
X139308333Y-27848628D01*
X139308333Y-27848628D02*
X139689285Y-27848628D01*
X138784523Y-27324819D02*
X138165476Y-27324819D01*
X138165476Y-27324819D02*
X138498809Y-27705771D01*
X138498809Y-27705771D02*
X138355952Y-27705771D01*
X138355952Y-27705771D02*
X138260714Y-27753390D01*
X138260714Y-27753390D02*
X138213095Y-27801009D01*
X138213095Y-27801009D02*
X138165476Y-27896247D01*
X138165476Y-27896247D02*
X138165476Y-28134342D01*
X138165476Y-28134342D02*
X138213095Y-28229580D01*
X138213095Y-28229580D02*
X138260714Y-28277200D01*
X138260714Y-28277200D02*
X138355952Y-28324819D01*
X138355952Y-28324819D02*
X138641666Y-28324819D01*
X138641666Y-28324819D02*
X138736904Y-28277200D01*
X138736904Y-28277200D02*
X138784523Y-28229580D01*
X137213095Y-28324819D02*
X137784523Y-28324819D01*
X137498809Y-28324819D02*
X137498809Y-27324819D01*
X137498809Y-27324819D02*
X137594047Y-27467676D01*
X137594047Y-27467676D02*
X137689285Y-27562914D01*
X137689285Y-27562914D02*
X137784523Y-27610533D01*
X128341666Y-64624819D02*
X128674999Y-64148628D01*
X128913094Y-64624819D02*
X128913094Y-63624819D01*
X128913094Y-63624819D02*
X128532142Y-63624819D01*
X128532142Y-63624819D02*
X128436904Y-63672438D01*
X128436904Y-63672438D02*
X128389285Y-63720057D01*
X128389285Y-63720057D02*
X128341666Y-63815295D01*
X128341666Y-63815295D02*
X128341666Y-63958152D01*
X128341666Y-63958152D02*
X128389285Y-64053390D01*
X128389285Y-64053390D02*
X128436904Y-64101009D01*
X128436904Y-64101009D02*
X128532142Y-64148628D01*
X128532142Y-64148628D02*
X128913094Y-64148628D01*
X128008332Y-63624819D02*
X127389285Y-63624819D01*
X127389285Y-63624819D02*
X127722618Y-64005771D01*
X127722618Y-64005771D02*
X127579761Y-64005771D01*
X127579761Y-64005771D02*
X127484523Y-64053390D01*
X127484523Y-64053390D02*
X127436904Y-64101009D01*
X127436904Y-64101009D02*
X127389285Y-64196247D01*
X127389285Y-64196247D02*
X127389285Y-64434342D01*
X127389285Y-64434342D02*
X127436904Y-64529580D01*
X127436904Y-64529580D02*
X127484523Y-64577200D01*
X127484523Y-64577200D02*
X127579761Y-64624819D01*
X127579761Y-64624819D02*
X127865475Y-64624819D01*
X127865475Y-64624819D02*
X127960713Y-64577200D01*
X127960713Y-64577200D02*
X128008332Y-64529580D01*
X119684819Y-79936666D02*
X120399104Y-79936666D01*
X120399104Y-79936666D02*
X120541961Y-79889047D01*
X120541961Y-79889047D02*
X120637200Y-79793809D01*
X120637200Y-79793809D02*
X120684819Y-79650952D01*
X120684819Y-79650952D02*
X120684819Y-79555714D01*
X120684819Y-80412857D02*
X119684819Y-80412857D01*
X119684819Y-80412857D02*
X119684819Y-80793809D01*
X119684819Y-80793809D02*
X119732438Y-80889047D01*
X119732438Y-80889047D02*
X119780057Y-80936666D01*
X119780057Y-80936666D02*
X119875295Y-80984285D01*
X119875295Y-80984285D02*
X120018152Y-80984285D01*
X120018152Y-80984285D02*
X120113390Y-80936666D01*
X120113390Y-80936666D02*
X120161009Y-80889047D01*
X120161009Y-80889047D02*
X120208628Y-80793809D01*
X120208628Y-80793809D02*
X120208628Y-80412857D01*
X120684819Y-81936666D02*
X120684819Y-81365238D01*
X120684819Y-81650952D02*
X119684819Y-81650952D01*
X119684819Y-81650952D02*
X119827676Y-81555714D01*
X119827676Y-81555714D02*
X119922914Y-81460476D01*
X119922914Y-81460476D02*
X119970533Y-81365238D01*
X126142857Y-34684819D02*
X126476190Y-34208628D01*
X126714285Y-34684819D02*
X126714285Y-33684819D01*
X126714285Y-33684819D02*
X126333333Y-33684819D01*
X126333333Y-33684819D02*
X126238095Y-33732438D01*
X126238095Y-33732438D02*
X126190476Y-33780057D01*
X126190476Y-33780057D02*
X126142857Y-33875295D01*
X126142857Y-33875295D02*
X126142857Y-34018152D01*
X126142857Y-34018152D02*
X126190476Y-34113390D01*
X126190476Y-34113390D02*
X126238095Y-34161009D01*
X126238095Y-34161009D02*
X126333333Y-34208628D01*
X126333333Y-34208628D02*
X126714285Y-34208628D01*
X125761904Y-33780057D02*
X125714285Y-33732438D01*
X125714285Y-33732438D02*
X125619047Y-33684819D01*
X125619047Y-33684819D02*
X125380952Y-33684819D01*
X125380952Y-33684819D02*
X125285714Y-33732438D01*
X125285714Y-33732438D02*
X125238095Y-33780057D01*
X125238095Y-33780057D02*
X125190476Y-33875295D01*
X125190476Y-33875295D02*
X125190476Y-33970533D01*
X125190476Y-33970533D02*
X125238095Y-34113390D01*
X125238095Y-34113390D02*
X125809523Y-34684819D01*
X125809523Y-34684819D02*
X125190476Y-34684819D01*
X124333333Y-33684819D02*
X124523809Y-33684819D01*
X124523809Y-33684819D02*
X124619047Y-33732438D01*
X124619047Y-33732438D02*
X124666666Y-33780057D01*
X124666666Y-33780057D02*
X124761904Y-33922914D01*
X124761904Y-33922914D02*
X124809523Y-34113390D01*
X124809523Y-34113390D02*
X124809523Y-34494342D01*
X124809523Y-34494342D02*
X124761904Y-34589580D01*
X124761904Y-34589580D02*
X124714285Y-34637200D01*
X124714285Y-34637200D02*
X124619047Y-34684819D01*
X124619047Y-34684819D02*
X124428571Y-34684819D01*
X124428571Y-34684819D02*
X124333333Y-34637200D01*
X124333333Y-34637200D02*
X124285714Y-34589580D01*
X124285714Y-34589580D02*
X124238095Y-34494342D01*
X124238095Y-34494342D02*
X124238095Y-34256247D01*
X124238095Y-34256247D02*
X124285714Y-34161009D01*
X124285714Y-34161009D02*
X124333333Y-34113390D01*
X124333333Y-34113390D02*
X124428571Y-34065771D01*
X124428571Y-34065771D02*
X124619047Y-34065771D01*
X124619047Y-34065771D02*
X124714285Y-34113390D01*
X124714285Y-34113390D02*
X124761904Y-34161009D01*
X124761904Y-34161009D02*
X124809523Y-34256247D01*
X139429580Y-64957142D02*
X139477200Y-64909523D01*
X139477200Y-64909523D02*
X139524819Y-64766666D01*
X139524819Y-64766666D02*
X139524819Y-64671428D01*
X139524819Y-64671428D02*
X139477200Y-64528571D01*
X139477200Y-64528571D02*
X139381961Y-64433333D01*
X139381961Y-64433333D02*
X139286723Y-64385714D01*
X139286723Y-64385714D02*
X139096247Y-64338095D01*
X139096247Y-64338095D02*
X138953390Y-64338095D01*
X138953390Y-64338095D02*
X138762914Y-64385714D01*
X138762914Y-64385714D02*
X138667676Y-64433333D01*
X138667676Y-64433333D02*
X138572438Y-64528571D01*
X138572438Y-64528571D02*
X138524819Y-64671428D01*
X138524819Y-64671428D02*
X138524819Y-64766666D01*
X138524819Y-64766666D02*
X138572438Y-64909523D01*
X138572438Y-64909523D02*
X138620057Y-64957142D01*
X138620057Y-65338095D02*
X138572438Y-65385714D01*
X138572438Y-65385714D02*
X138524819Y-65480952D01*
X138524819Y-65480952D02*
X138524819Y-65719047D01*
X138524819Y-65719047D02*
X138572438Y-65814285D01*
X138572438Y-65814285D02*
X138620057Y-65861904D01*
X138620057Y-65861904D02*
X138715295Y-65909523D01*
X138715295Y-65909523D02*
X138810533Y-65909523D01*
X138810533Y-65909523D02*
X138953390Y-65861904D01*
X138953390Y-65861904D02*
X139524819Y-65290476D01*
X139524819Y-65290476D02*
X139524819Y-65909523D01*
X139524819Y-66861904D02*
X139524819Y-66290476D01*
X139524819Y-66576190D02*
X138524819Y-66576190D01*
X138524819Y-66576190D02*
X138667676Y-66480952D01*
X138667676Y-66480952D02*
X138762914Y-66385714D01*
X138762914Y-66385714D02*
X138810533Y-66290476D01*
X125691666Y-37589580D02*
X125739285Y-37637200D01*
X125739285Y-37637200D02*
X125882142Y-37684819D01*
X125882142Y-37684819D02*
X125977380Y-37684819D01*
X125977380Y-37684819D02*
X126120237Y-37637200D01*
X126120237Y-37637200D02*
X126215475Y-37541961D01*
X126215475Y-37541961D02*
X126263094Y-37446723D01*
X126263094Y-37446723D02*
X126310713Y-37256247D01*
X126310713Y-37256247D02*
X126310713Y-37113390D01*
X126310713Y-37113390D02*
X126263094Y-36922914D01*
X126263094Y-36922914D02*
X126215475Y-36827676D01*
X126215475Y-36827676D02*
X126120237Y-36732438D01*
X126120237Y-36732438D02*
X125977380Y-36684819D01*
X125977380Y-36684819D02*
X125882142Y-36684819D01*
X125882142Y-36684819D02*
X125739285Y-36732438D01*
X125739285Y-36732438D02*
X125691666Y-36780057D01*
X125358332Y-36684819D02*
X124691666Y-36684819D01*
X124691666Y-36684819D02*
X125120237Y-37684819D01*
X155132857Y-29984819D02*
X155466190Y-29508628D01*
X155704285Y-29984819D02*
X155704285Y-28984819D01*
X155704285Y-28984819D02*
X155323333Y-28984819D01*
X155323333Y-28984819D02*
X155228095Y-29032438D01*
X155228095Y-29032438D02*
X155180476Y-29080057D01*
X155180476Y-29080057D02*
X155132857Y-29175295D01*
X155132857Y-29175295D02*
X155132857Y-29318152D01*
X155132857Y-29318152D02*
X155180476Y-29413390D01*
X155180476Y-29413390D02*
X155228095Y-29461009D01*
X155228095Y-29461009D02*
X155323333Y-29508628D01*
X155323333Y-29508628D02*
X155704285Y-29508628D01*
X154180476Y-29984819D02*
X154751904Y-29984819D01*
X154466190Y-29984819D02*
X154466190Y-28984819D01*
X154466190Y-28984819D02*
X154561428Y-29127676D01*
X154561428Y-29127676D02*
X154656666Y-29222914D01*
X154656666Y-29222914D02*
X154751904Y-29270533D01*
X153561428Y-28984819D02*
X153466190Y-28984819D01*
X153466190Y-28984819D02*
X153370952Y-29032438D01*
X153370952Y-29032438D02*
X153323333Y-29080057D01*
X153323333Y-29080057D02*
X153275714Y-29175295D01*
X153275714Y-29175295D02*
X153228095Y-29365771D01*
X153228095Y-29365771D02*
X153228095Y-29603866D01*
X153228095Y-29603866D02*
X153275714Y-29794342D01*
X153275714Y-29794342D02*
X153323333Y-29889580D01*
X153323333Y-29889580D02*
X153370952Y-29937200D01*
X153370952Y-29937200D02*
X153466190Y-29984819D01*
X153466190Y-29984819D02*
X153561428Y-29984819D01*
X153561428Y-29984819D02*
X153656666Y-29937200D01*
X153656666Y-29937200D02*
X153704285Y-29889580D01*
X153704285Y-29889580D02*
X153751904Y-29794342D01*
X153751904Y-29794342D02*
X153799523Y-29603866D01*
X153799523Y-29603866D02*
X153799523Y-29365771D01*
X153799523Y-29365771D02*
X153751904Y-29175295D01*
X153751904Y-29175295D02*
X153704285Y-29080057D01*
X153704285Y-29080057D02*
X153656666Y-29032438D01*
X153656666Y-29032438D02*
X153561428Y-28984819D01*
X123391666Y-68929580D02*
X123439285Y-68977200D01*
X123439285Y-68977200D02*
X123582142Y-69024819D01*
X123582142Y-69024819D02*
X123677380Y-69024819D01*
X123677380Y-69024819D02*
X123820237Y-68977200D01*
X123820237Y-68977200D02*
X123915475Y-68881961D01*
X123915475Y-68881961D02*
X123963094Y-68786723D01*
X123963094Y-68786723D02*
X124010713Y-68596247D01*
X124010713Y-68596247D02*
X124010713Y-68453390D01*
X124010713Y-68453390D02*
X123963094Y-68262914D01*
X123963094Y-68262914D02*
X123915475Y-68167676D01*
X123915475Y-68167676D02*
X123820237Y-68072438D01*
X123820237Y-68072438D02*
X123677380Y-68024819D01*
X123677380Y-68024819D02*
X123582142Y-68024819D01*
X123582142Y-68024819D02*
X123439285Y-68072438D01*
X123439285Y-68072438D02*
X123391666Y-68120057D01*
X122534523Y-68358152D02*
X122534523Y-69024819D01*
X122772618Y-67977200D02*
X123010713Y-68691485D01*
X123010713Y-68691485D02*
X122391666Y-68691485D01*
X126117857Y-33324819D02*
X126451190Y-32848628D01*
X126689285Y-33324819D02*
X126689285Y-32324819D01*
X126689285Y-32324819D02*
X126308333Y-32324819D01*
X126308333Y-32324819D02*
X126213095Y-32372438D01*
X126213095Y-32372438D02*
X126165476Y-32420057D01*
X126165476Y-32420057D02*
X126117857Y-32515295D01*
X126117857Y-32515295D02*
X126117857Y-32658152D01*
X126117857Y-32658152D02*
X126165476Y-32753390D01*
X126165476Y-32753390D02*
X126213095Y-32801009D01*
X126213095Y-32801009D02*
X126308333Y-32848628D01*
X126308333Y-32848628D02*
X126689285Y-32848628D01*
X125736904Y-32420057D02*
X125689285Y-32372438D01*
X125689285Y-32372438D02*
X125594047Y-32324819D01*
X125594047Y-32324819D02*
X125355952Y-32324819D01*
X125355952Y-32324819D02*
X125260714Y-32372438D01*
X125260714Y-32372438D02*
X125213095Y-32420057D01*
X125213095Y-32420057D02*
X125165476Y-32515295D01*
X125165476Y-32515295D02*
X125165476Y-32610533D01*
X125165476Y-32610533D02*
X125213095Y-32753390D01*
X125213095Y-32753390D02*
X125784523Y-33324819D01*
X125784523Y-33324819D02*
X125165476Y-33324819D01*
X124832142Y-32324819D02*
X124165476Y-32324819D01*
X124165476Y-32324819D02*
X124594047Y-33324819D01*
X126817857Y-73289580D02*
X126865476Y-73337200D01*
X126865476Y-73337200D02*
X127008333Y-73384819D01*
X127008333Y-73384819D02*
X127103571Y-73384819D01*
X127103571Y-73384819D02*
X127246428Y-73337200D01*
X127246428Y-73337200D02*
X127341666Y-73241961D01*
X127341666Y-73241961D02*
X127389285Y-73146723D01*
X127389285Y-73146723D02*
X127436904Y-72956247D01*
X127436904Y-72956247D02*
X127436904Y-72813390D01*
X127436904Y-72813390D02*
X127389285Y-72622914D01*
X127389285Y-72622914D02*
X127341666Y-72527676D01*
X127341666Y-72527676D02*
X127246428Y-72432438D01*
X127246428Y-72432438D02*
X127103571Y-72384819D01*
X127103571Y-72384819D02*
X127008333Y-72384819D01*
X127008333Y-72384819D02*
X126865476Y-72432438D01*
X126865476Y-72432438D02*
X126817857Y-72480057D01*
X125865476Y-73384819D02*
X126436904Y-73384819D01*
X126151190Y-73384819D02*
X126151190Y-72384819D01*
X126151190Y-72384819D02*
X126246428Y-72527676D01*
X126246428Y-72527676D02*
X126341666Y-72622914D01*
X126341666Y-72622914D02*
X126436904Y-72670533D01*
X125008333Y-72384819D02*
X125198809Y-72384819D01*
X125198809Y-72384819D02*
X125294047Y-72432438D01*
X125294047Y-72432438D02*
X125341666Y-72480057D01*
X125341666Y-72480057D02*
X125436904Y-72622914D01*
X125436904Y-72622914D02*
X125484523Y-72813390D01*
X125484523Y-72813390D02*
X125484523Y-73194342D01*
X125484523Y-73194342D02*
X125436904Y-73289580D01*
X125436904Y-73289580D02*
X125389285Y-73337200D01*
X125389285Y-73337200D02*
X125294047Y-73384819D01*
X125294047Y-73384819D02*
X125103571Y-73384819D01*
X125103571Y-73384819D02*
X125008333Y-73337200D01*
X125008333Y-73337200D02*
X124960714Y-73289580D01*
X124960714Y-73289580D02*
X124913095Y-73194342D01*
X124913095Y-73194342D02*
X124913095Y-72956247D01*
X124913095Y-72956247D02*
X124960714Y-72861009D01*
X124960714Y-72861009D02*
X125008333Y-72813390D01*
X125008333Y-72813390D02*
X125103571Y-72765771D01*
X125103571Y-72765771D02*
X125294047Y-72765771D01*
X125294047Y-72765771D02*
X125389285Y-72813390D01*
X125389285Y-72813390D02*
X125436904Y-72861009D01*
X125436904Y-72861009D02*
X125484523Y-72956247D01*
X130409580Y-28657142D02*
X130457200Y-28609523D01*
X130457200Y-28609523D02*
X130504819Y-28466666D01*
X130504819Y-28466666D02*
X130504819Y-28371428D01*
X130504819Y-28371428D02*
X130457200Y-28228571D01*
X130457200Y-28228571D02*
X130361961Y-28133333D01*
X130361961Y-28133333D02*
X130266723Y-28085714D01*
X130266723Y-28085714D02*
X130076247Y-28038095D01*
X130076247Y-28038095D02*
X129933390Y-28038095D01*
X129933390Y-28038095D02*
X129742914Y-28085714D01*
X129742914Y-28085714D02*
X129647676Y-28133333D01*
X129647676Y-28133333D02*
X129552438Y-28228571D01*
X129552438Y-28228571D02*
X129504819Y-28371428D01*
X129504819Y-28371428D02*
X129504819Y-28466666D01*
X129504819Y-28466666D02*
X129552438Y-28609523D01*
X129552438Y-28609523D02*
X129600057Y-28657142D01*
X130504819Y-29609523D02*
X130504819Y-29038095D01*
X130504819Y-29323809D02*
X129504819Y-29323809D01*
X129504819Y-29323809D02*
X129647676Y-29228571D01*
X129647676Y-29228571D02*
X129742914Y-29133333D01*
X129742914Y-29133333D02*
X129790533Y-29038095D01*
X129504819Y-29942857D02*
X129504819Y-30609523D01*
X129504819Y-30609523D02*
X130504819Y-30180952D01*
X143138094Y-72054819D02*
X143138094Y-71054819D01*
X143138094Y-71054819D02*
X142899999Y-71054819D01*
X142899999Y-71054819D02*
X142757142Y-71102438D01*
X142757142Y-71102438D02*
X142661904Y-71197676D01*
X142661904Y-71197676D02*
X142614285Y-71292914D01*
X142614285Y-71292914D02*
X142566666Y-71483390D01*
X142566666Y-71483390D02*
X142566666Y-71626247D01*
X142566666Y-71626247D02*
X142614285Y-71816723D01*
X142614285Y-71816723D02*
X142661904Y-71911961D01*
X142661904Y-71911961D02*
X142757142Y-72007200D01*
X142757142Y-72007200D02*
X142899999Y-72054819D01*
X142899999Y-72054819D02*
X143138094Y-72054819D01*
X141614285Y-72054819D02*
X142185713Y-72054819D01*
X141899999Y-72054819D02*
X141899999Y-71054819D01*
X141899999Y-71054819D02*
X141995237Y-71197676D01*
X141995237Y-71197676D02*
X142090475Y-71292914D01*
X142090475Y-71292914D02*
X142185713Y-71340533D01*
D11*
X140140580Y-76590000D02*
X139859420Y-76590000D01*
X140140580Y-77610000D02*
X139859420Y-77610000D01*
X119352258Y-39797500D02*
X118877742Y-39797500D01*
X119352258Y-40842500D02*
X118877742Y-40842500D01*
X133977500Y-54362742D02*
X133977500Y-54837258D01*
X135022500Y-54362742D02*
X135022500Y-54837258D01*
X141984420Y-70990000D02*
X142265580Y-70990000D01*
X141984420Y-72010000D02*
X142265580Y-72010000D01*
X143240000Y-46520000D02*
X143240000Y-41220000D01*
X148430000Y-43870000D02*
X151080000Y-43870000D01*
X148430000Y-46520000D02*
X143240000Y-46520000D01*
X148430000Y-46520000D02*
X148430000Y-43870000D01*
X149700000Y-46520000D02*
X151080000Y-46520000D01*
X151080000Y-41220000D02*
X143240000Y-41220000D01*
X151080000Y-43870000D02*
X151080000Y-41220000D01*
X151080000Y-46520000D02*
X151080000Y-45140000D01*
X119342258Y-41397500D02*
X118867742Y-41397500D01*
X119342258Y-42442500D02*
X118867742Y-42442500D01*
X152590000Y-51540580D02*
X152590000Y-51259420D01*
X153610000Y-51540580D02*
X153610000Y-51259420D01*
X126034420Y-72590000D02*
X126315580Y-72590000D01*
X126034420Y-73610000D02*
X126315580Y-73610000D01*
X136777500Y-52462742D02*
X136777500Y-52937258D01*
X137822500Y-52462742D02*
X137822500Y-52937258D01*
X125077500Y-89037742D02*
X125077500Y-89512258D01*
X126122500Y-89037742D02*
X126122500Y-89512258D01*
X120877500Y-45137742D02*
X120877500Y-45612258D01*
X121922500Y-45137742D02*
X121922500Y-45612258D01*
X152590000Y-54259420D02*
X152590000Y-54540580D01*
X153610000Y-54259420D02*
X153610000Y-54540580D01*
X126875279Y-69390000D02*
X126549721Y-69390000D01*
X126875279Y-70410000D02*
X126549721Y-70410000D01*
X123365580Y-70990000D02*
X123084420Y-70990000D01*
X123365580Y-72010000D02*
X123084420Y-72010000D01*
X125790000Y-28840580D02*
X125790000Y-28559420D01*
X126810000Y-28840580D02*
X126810000Y-28559420D01*
X164671898Y-30440000D02*
G75*
G02*
X157611898Y-30440000I-3530000J0D01*
G01*
X157611898Y-30440000D02*
G75*
G02*
X164671898Y-30440000I3530000J0D01*
G01*
X136740000Y-68840000D02*
X136740000Y-70360000D01*
X136740000Y-70360000D02*
X137740000Y-70360000D01*
X136790000Y-68840000D02*
X136740000Y-68840000D01*
X138690000Y-68840000D02*
X137910000Y-68840000D01*
X138860000Y-70360000D02*
X139860000Y-70360000D01*
X139860000Y-68840000D02*
X139810000Y-68840000D01*
X139860000Y-70360000D02*
X139860000Y-68840000D01*
X138250000Y-68540000D02*
X137920000Y-68300000D01*
X138250000Y-68060000D01*
X138250000Y-68540000D01*
G36*
X138250000Y-68540000D02*
G01*
X137920000Y-68300000D01*
X138250000Y-68060000D01*
X138250000Y-68540000D01*
G37*
X140477500Y-47937742D02*
X140477500Y-48412258D01*
X141522500Y-47937742D02*
X141522500Y-48412258D01*
X133777500Y-58712258D02*
X133777500Y-58237742D01*
X134822500Y-58712258D02*
X134822500Y-58237742D01*
X127300000Y-79100000D02*
X127300000Y-81100000D01*
X127300000Y-81100000D02*
X127300000Y-81500000D01*
X127300000Y-81500000D02*
X128100000Y-81500000D01*
X128100000Y-79100000D02*
X127300000Y-79100000D01*
X129900000Y-81500000D02*
X129900000Y-81900000D01*
X129900000Y-81500000D02*
X130900000Y-81500000D01*
X130900000Y-79100000D02*
X129900000Y-79100000D01*
X130900000Y-81100000D02*
X130900000Y-79100000D01*
X130900000Y-81100000D02*
X130900000Y-81500000D01*
X131100000Y-79100000D02*
X131100000Y-81100000D01*
X131100000Y-81100000D02*
X131100000Y-81500000D01*
X138512258Y-37377500D02*
X138037742Y-37377500D01*
X138512258Y-38422500D02*
X138037742Y-38422500D01*
X130777500Y-57287742D02*
X130777500Y-57762258D01*
X131822500Y-57287742D02*
X131822500Y-57762258D01*
X132490000Y-54459420D02*
X132490000Y-54740580D01*
X133510000Y-54459420D02*
X133510000Y-54740580D01*
X151090000Y-54259420D02*
X151090000Y-54540580D01*
X152110000Y-54259420D02*
X152110000Y-54540580D01*
X129984420Y-69490000D02*
X130265580Y-69490000D01*
X129984420Y-70510000D02*
X130265580Y-70510000D01*
X140140580Y-75090000D02*
X139859420Y-75090000D01*
X140140580Y-76110000D02*
X139859420Y-76110000D01*
X141477500Y-62962742D02*
X141477500Y-63437258D01*
X142522500Y-62962742D02*
X142522500Y-63437258D01*
X151090000Y-51540580D02*
X151090000Y-51259420D01*
X152110000Y-51540580D02*
X152110000Y-51259420D01*
X138512258Y-38877500D02*
X138037742Y-38877500D01*
X138512258Y-39922500D02*
X138037742Y-39922500D01*
X135877500Y-48437258D02*
X135877500Y-47962742D01*
X136922500Y-48437258D02*
X136922500Y-47962742D01*
X137477500Y-62362742D02*
X137477500Y-62837258D01*
X138522500Y-62362742D02*
X138522500Y-62837258D01*
X124290000Y-28840580D02*
X124290000Y-28559420D01*
X125310000Y-28840580D02*
X125310000Y-28559420D01*
X123077500Y-82512258D02*
X123077500Y-82037742D01*
X124122500Y-82512258D02*
X124122500Y-82037742D01*
X129984420Y-70990000D02*
X130265580Y-70990000D01*
X129984420Y-72010000D02*
X130265580Y-72010000D01*
X148700000Y-55235000D02*
X148700000Y-51225000D01*
X150700000Y-55235000D02*
X148700000Y-55235000D01*
X150700000Y-55235000D02*
X150700000Y-51225000D01*
X152860000Y-27350000D02*
X148850000Y-27350000D01*
X152860000Y-27350000D02*
X152860000Y-29350000D01*
X152860000Y-29350000D02*
X148850000Y-29350000D01*
X141959420Y-72490000D02*
X142240580Y-72490000D01*
X141959420Y-73510000D02*
X142240580Y-73510000D01*
X129437742Y-72577500D02*
X129912258Y-72577500D01*
X129437742Y-73622500D02*
X129912258Y-73622500D01*
X129290000Y-55559420D02*
X129290000Y-55840580D01*
X130310000Y-55559420D02*
X130310000Y-55840580D01*
X138462258Y-40677500D02*
X137987742Y-40677500D01*
X138462258Y-41722500D02*
X137987742Y-41722500D01*
X120000000Y-27190000D02*
X120000000Y-31200000D01*
X120000000Y-27190000D02*
X122000000Y-27190000D01*
X122000000Y-27190000D02*
X122000000Y-31200000D01*
X128137742Y-89477500D02*
X128612258Y-89477500D01*
X128137742Y-90522500D02*
X128612258Y-90522500D01*
X138712258Y-28777500D02*
X138237742Y-28777500D01*
X138712258Y-29822500D02*
X138237742Y-29822500D01*
X128412258Y-65077500D02*
X127937742Y-65077500D01*
X128412258Y-66122500D02*
X127937742Y-66122500D01*
X120400000Y-80800000D02*
X120400000Y-82200000D01*
X121100000Y-82900000D02*
X121700000Y-82900000D01*
X121700000Y-80100000D02*
X121100000Y-80100000D01*
X122400000Y-82200000D02*
X122400000Y-80800000D01*
X120400000Y-80800000D02*
G75*
G02*
X121100000Y-80100000I699999J1D01*
G01*
X121100000Y-82900000D02*
G75*
G02*
X120400000Y-82200000I0J700000D01*
G01*
X121700000Y-80100000D02*
G75*
G02*
X122400000Y-80800000I1J-699999D01*
G01*
X122400000Y-82200000D02*
G75*
G02*
X121700000Y-82900000I-700000J0D01*
G01*
X125262742Y-32277500D02*
X125737258Y-32277500D01*
X125262742Y-33322500D02*
X125737258Y-33322500D01*
X139990000Y-65459420D02*
X139990000Y-65740580D01*
X141010000Y-65459420D02*
X141010000Y-65740580D01*
X125384420Y-35290000D02*
X125665580Y-35290000D01*
X125384420Y-36310000D02*
X125665580Y-36310000D01*
X154252742Y-27577500D02*
X154727258Y-27577500D01*
X154252742Y-28622500D02*
X154727258Y-28622500D01*
X123365580Y-69490000D02*
X123084420Y-69490000D01*
X123365580Y-70510000D02*
X123084420Y-70510000D01*
X125712258Y-33777500D02*
X125237742Y-33777500D01*
X125712258Y-34822500D02*
X125237742Y-34822500D01*
X126134420Y-70990000D02*
X126415580Y-70990000D01*
X126134420Y-72010000D02*
X126415580Y-72010000D01*
X127290000Y-30011252D02*
X127290000Y-28588748D01*
X129110000Y-30011252D02*
X129110000Y-28588748D01*
X140040000Y-68600000D02*
X144050000Y-68600000D01*
X140040000Y-70600000D02*
X140040000Y-68600000D01*
X140040000Y-70600000D02*
X144050000Y-70600000D01*
%LPC*%
G36*
X120650000Y-81350000D02*
G01*
X122150000Y-81350000D01*
X122150000Y-81650000D01*
X120650000Y-81650000D01*
X120650000Y-81350000D01*
G37*
D12*
X170460000Y-89030000D03*
D13*
X121400000Y-87200000D03*
X133400000Y-87200000D03*
D14*
X129950000Y-82360000D03*
D15*
X128930000Y-84900000D03*
X127910000Y-82360000D03*
X126890000Y-84900000D03*
X125870000Y-82360000D03*
X124850000Y-84900000D03*
D12*
X117660000Y-35110000D03*
D13*
X152000000Y-87200000D03*
X164000000Y-87200000D03*
D14*
X160550000Y-82360000D03*
D15*
X159530000Y-84900000D03*
X158510000Y-82360000D03*
X157490000Y-84900000D03*
X156470000Y-82360000D03*
X155450000Y-84900000D03*
D12*
X170450000Y-35110000D03*
D16*
X138352500Y-74307500D03*
D17*
X140892500Y-74307500D03*
X143432500Y-74307500D03*
D18*
X156580000Y-34180000D03*
X156580000Y-36720000D03*
X156580000Y-39260000D03*
X156580000Y-41800000D03*
X164200000Y-41800000D03*
X164200000Y-39260000D03*
X164200000Y-36720000D03*
X164200000Y-34180000D03*
D19*
X148200000Y-52000000D03*
D20*
X145660000Y-52000000D03*
X143120000Y-52000000D03*
D21*
X162900000Y-53850000D03*
D22*
X156400000Y-57600000D03*
D23*
X156400000Y-55100000D03*
X156400000Y-52600000D03*
X156400000Y-50100000D03*
D13*
X136700000Y-87200000D03*
X148700000Y-87200000D03*
D14*
X145250000Y-82360000D03*
D15*
X144230000Y-84900000D03*
X143210000Y-82360000D03*
X142190000Y-84900000D03*
X141170000Y-82360000D03*
X140150000Y-84900000D03*
D24*
X145880000Y-31100000D03*
D18*
X145880000Y-33640000D03*
X145880000Y-36180000D03*
X145880000Y-38720000D03*
X153500000Y-38720000D03*
X153500000Y-36180000D03*
X153500000Y-33640000D03*
X153500000Y-31100000D03*
D25*
X146000000Y-64400000D03*
D26*
X138000000Y-64400000D03*
D12*
X114900000Y-89000000D03*
D27*
X156050000Y-62450000D03*
X156050000Y-75950000D03*
D28*
X150050000Y-65600000D03*
D29*
X150050000Y-72800000D03*
D30*
X144400000Y-60800000D03*
D31*
X141860000Y-60800000D03*
X139320000Y-60800000D03*
D32*
X140775000Y-77100000D03*
X139225000Y-77100000D03*
D33*
X119940000Y-40320000D03*
X118290000Y-40320000D03*
D34*
X134500000Y-53775000D03*
X134500000Y-55425000D03*
D35*
X141350000Y-71500000D03*
X142900000Y-71500000D03*
D30*
X149700000Y-45140000D03*
D36*
X149700000Y-42600000D03*
X147160000Y-45140000D03*
X147160000Y-42600000D03*
X144620000Y-45140000D03*
X144620000Y-42600000D03*
D33*
X119930000Y-41920000D03*
X118280000Y-41920000D03*
D37*
X153100000Y-52175000D03*
X153100000Y-50625000D03*
D35*
X125400000Y-73100000D03*
X126950000Y-73100000D03*
D34*
X137300000Y-51875000D03*
X137300000Y-53525000D03*
X125600000Y-88450000D03*
X125600000Y-90100000D03*
X121400000Y-44550000D03*
X121400000Y-46200000D03*
D38*
X153100000Y-53625000D03*
X153100000Y-55175000D03*
D39*
X127500000Y-69900000D03*
X125925000Y-69900000D03*
D32*
X124000000Y-71500000D03*
X122450000Y-71500000D03*
D37*
X126300000Y-29475000D03*
X126300000Y-27925000D03*
D40*
X156141898Y-29690000D03*
X156141898Y-31190000D03*
D41*
X137350000Y-68662500D03*
X139250000Y-68662500D03*
X138300000Y-70537500D03*
D34*
X141000000Y-47350000D03*
X141000000Y-49000000D03*
D42*
X134300000Y-59300000D03*
X134300000Y-57650000D03*
D43*
X130300000Y-80300000D03*
X129100000Y-80300000D03*
X127900000Y-80300000D03*
D33*
X139100000Y-37900000D03*
X137450000Y-37900000D03*
D34*
X131300000Y-56700000D03*
X131300000Y-58350000D03*
D38*
X133000000Y-53825000D03*
X133000000Y-55375000D03*
X151600000Y-53625000D03*
X151600000Y-55175000D03*
D35*
X129350000Y-70000000D03*
X130900000Y-70000000D03*
D32*
X140775000Y-75600000D03*
X139225000Y-75600000D03*
D34*
X142000000Y-62375000D03*
X142000000Y-64025000D03*
D37*
X151600000Y-52175000D03*
X151600000Y-50625000D03*
D33*
X139100000Y-39400000D03*
X137450000Y-39400000D03*
D42*
X136400000Y-49025000D03*
X136400000Y-47375000D03*
D34*
X138000000Y-61775000D03*
X138000000Y-63425000D03*
D37*
X124800000Y-29475000D03*
X124800000Y-27925000D03*
D42*
X123600000Y-83100000D03*
X123600000Y-81450000D03*
D35*
X129350000Y-71500000D03*
X130900000Y-71500000D03*
D44*
X149700000Y-54525000D03*
X149700000Y-51225000D03*
D25*
X147200000Y-72080000D03*
D26*
X147200000Y-67000000D03*
D45*
X152150000Y-28350000D03*
X148850000Y-28350000D03*
D35*
X141325000Y-73000000D03*
X142875000Y-73000000D03*
D46*
X128850000Y-73100000D03*
X130500000Y-73100000D03*
D38*
X129800000Y-54925000D03*
X129800000Y-56475000D03*
D33*
X139050000Y-41200000D03*
X137400000Y-41200000D03*
D47*
X121000000Y-27900000D03*
X121000000Y-31200000D03*
D46*
X127550000Y-90000000D03*
X129200000Y-90000000D03*
D33*
X139300000Y-29300000D03*
X137650000Y-29300000D03*
X129000000Y-65600000D03*
X127350000Y-65600000D03*
D48*
X121400000Y-80850000D03*
D49*
X121400000Y-82150000D03*
D46*
X124675000Y-32800000D03*
X126325000Y-32800000D03*
D38*
X140500000Y-64825000D03*
X140500000Y-66375000D03*
D35*
X124750000Y-35800000D03*
X126300000Y-35800000D03*
D46*
X153665000Y-28100000D03*
X155315000Y-28100000D03*
D32*
X124000000Y-70000000D03*
X122450000Y-70000000D03*
D33*
X126300000Y-34300000D03*
X124650000Y-34300000D03*
D35*
X125500000Y-71500000D03*
X127050000Y-71500000D03*
D50*
X128200000Y-30775000D03*
X128200000Y-27825000D03*
D51*
X140750000Y-69600000D03*
X144050000Y-69600000D03*
%LPD*%
M02*
