G04 #@! TF.GenerationSoftware,KiCad,Pcbnew,9.0.6*
G04 #@! TF.CreationDate,2026-03-10T14:58:34+09:00*
G04 #@! TF.ProjectId,MainBoard2026,4d61696e-426f-4617-9264-323032362e6b,rev?*
G04 #@! TF.SameCoordinates,Original*
G04 #@! TF.FileFunction,Legend,Top*
G04 #@! TF.FilePolarity,Positive*
%FSLAX46Y46*%
G04 Gerber Fmt 4.6, Leading zero omitted, Abs format (unit mm)*
G04 Created by KiCad (PCBNEW 9.0.6) date 2026-03-10 14:58:34*
%MOMM*%
%LPD*%
G01*
G04 APERTURE LIST*
G04 Aperture macros list*
%AMRoundRect*
0 Rectangle with rounded corners*
0 $1 Rounding radius*
0 $2 $3 $4 $5 $6 $7 $8 $9 X,Y pos of 4 corners*
0 Add a 4 corners polygon primitive as box body*
4,1,4,$2,$3,$4,$5,$6,$7,$8,$9,$2,$3,0*
0 Add four circle primitives for the rounded corners*
1,1,$1+$1,$2,$3*
1,1,$1+$1,$4,$5*
1,1,$1+$1,$6,$7*
1,1,$1+$1,$8,$9*
0 Add four rect primitives between the rounded corners*
20,1,$1+$1,$2,$3,$4,$5,0*
20,1,$1+$1,$4,$5,$6,$7,0*
20,1,$1+$1,$6,$7,$8,$9,0*
20,1,$1+$1,$8,$9,$2,$3,0*%
G04 Aperture macros list end*
%ADD10C,0.150000*%
%ADD11C,0.100000*%
%ADD12C,0.120000*%
%ADD13C,4.300000*%
%ADD14C,2.300000*%
%ADD15R,1.520000X1.520000*%
%ADD16C,1.520000*%
%ADD17RoundRect,0.100000X0.100000X-0.850000X0.100000X0.850000X-0.100000X0.850000X-0.100000X-0.850000X0*%
%ADD18RoundRect,0.218750X-0.218750X-0.256250X0.218750X-0.256250X0.218750X0.256250X-0.218750X0.256250X0*%
%ADD19R,1.500000X2.300000*%
%ADD20O,1.500000X2.300000*%
%ADD21C,1.600000*%
%ADD22R,1.300000X1.300000*%
%ADD23C,1.300000*%
%ADD24O,2.000000X2.800000*%
%ADD25RoundRect,0.250000X0.725000X-0.600000X0.725000X0.600000X-0.725000X0.600000X-0.725000X-0.600000X0*%
%ADD26O,1.950000X1.700000*%
%ADD27R,1.500000X0.900000*%
%ADD28R,0.900000X1.500000*%
%ADD29C,1.200000*%
%ADD30R,4.200000X4.200000*%
%ADD31R,1.200000X0.700000*%
%ADD32R,0.800000X1.000000*%
%ADD33R,1.200000X1.000000*%
%ADD34R,2.800000X1.000000*%
%ADD35R,1.900000X1.300000*%
%ADD36RoundRect,0.250000X-0.550000X-0.550000X0.550000X-0.550000X0.550000X0.550000X-0.550000X0.550000X0*%
%ADD37R,0.850000X0.850000*%
%ADD38O,0.850000X0.850000*%
%ADD39R,2.000000X0.900000*%
%ADD40RoundRect,1.025000X-1.025000X1.025000X-1.025000X-1.025000X1.025000X-1.025000X1.025000X1.025000X0*%
%ADD41C,4.100000*%
%ADD42R,1.700000X1.700000*%
%ADD43O,1.700000X1.700000*%
%ADD44C,1.700000*%
G04 APERTURE END LIST*
D10*
X169126666Y-84234819D02*
X168793333Y-83758628D01*
X168555238Y-84234819D02*
X168555238Y-83234819D01*
X168555238Y-83234819D02*
X168936190Y-83234819D01*
X168936190Y-83234819D02*
X169031428Y-83282438D01*
X169031428Y-83282438D02*
X169079047Y-83330057D01*
X169079047Y-83330057D02*
X169126666Y-83425295D01*
X169126666Y-83425295D02*
X169126666Y-83568152D01*
X169126666Y-83568152D02*
X169079047Y-83663390D01*
X169079047Y-83663390D02*
X169031428Y-83711009D01*
X169031428Y-83711009D02*
X168936190Y-83758628D01*
X168936190Y-83758628D02*
X168555238Y-83758628D01*
X169555238Y-83711009D02*
X169888571Y-83711009D01*
X170031428Y-84234819D02*
X169555238Y-84234819D01*
X169555238Y-84234819D02*
X169555238Y-83234819D01*
X169555238Y-83234819D02*
X170031428Y-83234819D01*
X170793333Y-83711009D02*
X170460000Y-83711009D01*
X170460000Y-84234819D02*
X170460000Y-83234819D01*
X170460000Y-83234819D02*
X170936190Y-83234819D01*
X171460000Y-83234819D02*
X171460000Y-83472914D01*
X171221905Y-83377676D02*
X171460000Y-83472914D01*
X171460000Y-83472914D02*
X171698095Y-83377676D01*
X171317143Y-83663390D02*
X171460000Y-83472914D01*
X171460000Y-83472914D02*
X171602857Y-83663390D01*
X172221905Y-83234819D02*
X172221905Y-83472914D01*
X171983810Y-83377676D02*
X172221905Y-83472914D01*
X172221905Y-83472914D02*
X172460000Y-83377676D01*
X172079048Y-83663390D02*
X172221905Y-83472914D01*
X172221905Y-83472914D02*
X172364762Y-83663390D01*
X122631666Y-78639819D02*
X122631666Y-79354104D01*
X122631666Y-79354104D02*
X122584047Y-79496961D01*
X122584047Y-79496961D02*
X122488809Y-79592200D01*
X122488809Y-79592200D02*
X122345952Y-79639819D01*
X122345952Y-79639819D02*
X122250714Y-79639819D01*
X123536428Y-78973152D02*
X123536428Y-79639819D01*
X123298333Y-78592200D02*
X123060238Y-79306485D01*
X123060238Y-79306485D02*
X123679285Y-79306485D01*
X120979819Y-72561904D02*
X121789342Y-72561904D01*
X121789342Y-72561904D02*
X121884580Y-72514285D01*
X121884580Y-72514285D02*
X121932200Y-72466666D01*
X121932200Y-72466666D02*
X121979819Y-72371428D01*
X121979819Y-72371428D02*
X121979819Y-72180952D01*
X121979819Y-72180952D02*
X121932200Y-72085714D01*
X121932200Y-72085714D02*
X121884580Y-72038095D01*
X121884580Y-72038095D02*
X121789342Y-71990476D01*
X121789342Y-71990476D02*
X120979819Y-71990476D01*
X120979819Y-71609523D02*
X120979819Y-70990476D01*
X120979819Y-70990476D02*
X121360771Y-71323809D01*
X121360771Y-71323809D02*
X121360771Y-71180952D01*
X121360771Y-71180952D02*
X121408390Y-71085714D01*
X121408390Y-71085714D02*
X121456009Y-71038095D01*
X121456009Y-71038095D02*
X121551247Y-70990476D01*
X121551247Y-70990476D02*
X121789342Y-70990476D01*
X121789342Y-70990476D02*
X121884580Y-71038095D01*
X121884580Y-71038095D02*
X121932200Y-71085714D01*
X121932200Y-71085714D02*
X121979819Y-71180952D01*
X121979819Y-71180952D02*
X121979819Y-71466666D01*
X121979819Y-71466666D02*
X121932200Y-71561904D01*
X121932200Y-71561904D02*
X121884580Y-71609523D01*
X137974405Y-46524819D02*
X137974405Y-45524819D01*
X137974405Y-45524819D02*
X138212500Y-45524819D01*
X138212500Y-45524819D02*
X138355357Y-45572438D01*
X138355357Y-45572438D02*
X138450595Y-45667676D01*
X138450595Y-45667676D02*
X138498214Y-45762914D01*
X138498214Y-45762914D02*
X138545833Y-45953390D01*
X138545833Y-45953390D02*
X138545833Y-46096247D01*
X138545833Y-46096247D02*
X138498214Y-46286723D01*
X138498214Y-46286723D02*
X138450595Y-46381961D01*
X138450595Y-46381961D02*
X138355357Y-46477200D01*
X138355357Y-46477200D02*
X138212500Y-46524819D01*
X138212500Y-46524819D02*
X137974405Y-46524819D01*
X139402976Y-45858152D02*
X139402976Y-46524819D01*
X139164881Y-45477200D02*
X138926786Y-46191485D01*
X138926786Y-46191485D02*
X139545833Y-46191485D01*
X116326666Y-30314819D02*
X115993333Y-29838628D01*
X115755238Y-30314819D02*
X115755238Y-29314819D01*
X115755238Y-29314819D02*
X116136190Y-29314819D01*
X116136190Y-29314819D02*
X116231428Y-29362438D01*
X116231428Y-29362438D02*
X116279047Y-29410057D01*
X116279047Y-29410057D02*
X116326666Y-29505295D01*
X116326666Y-29505295D02*
X116326666Y-29648152D01*
X116326666Y-29648152D02*
X116279047Y-29743390D01*
X116279047Y-29743390D02*
X116231428Y-29791009D01*
X116231428Y-29791009D02*
X116136190Y-29838628D01*
X116136190Y-29838628D02*
X115755238Y-29838628D01*
X116755238Y-29791009D02*
X117088571Y-29791009D01*
X117231428Y-30314819D02*
X116755238Y-30314819D01*
X116755238Y-30314819D02*
X116755238Y-29314819D01*
X116755238Y-29314819D02*
X117231428Y-29314819D01*
X117993333Y-29791009D02*
X117660000Y-29791009D01*
X117660000Y-30314819D02*
X117660000Y-29314819D01*
X117660000Y-29314819D02*
X118136190Y-29314819D01*
X118660000Y-29314819D02*
X118660000Y-29552914D01*
X118421905Y-29457676D02*
X118660000Y-29552914D01*
X118660000Y-29552914D02*
X118898095Y-29457676D01*
X118517143Y-29743390D02*
X118660000Y-29552914D01*
X118660000Y-29552914D02*
X118802857Y-29743390D01*
X119421905Y-29314819D02*
X119421905Y-29552914D01*
X119183810Y-29457676D02*
X119421905Y-29552914D01*
X119421905Y-29552914D02*
X119660000Y-29457676D01*
X119279048Y-29743390D02*
X119421905Y-29552914D01*
X119421905Y-29552914D02*
X119564762Y-29743390D01*
X153231666Y-78639819D02*
X153231666Y-79354104D01*
X153231666Y-79354104D02*
X153184047Y-79496961D01*
X153184047Y-79496961D02*
X153088809Y-79592200D01*
X153088809Y-79592200D02*
X152945952Y-79639819D01*
X152945952Y-79639819D02*
X152850714Y-79639819D01*
X154231666Y-79639819D02*
X153660238Y-79639819D01*
X153945952Y-79639819D02*
X153945952Y-78639819D01*
X153945952Y-78639819D02*
X153850714Y-78782676D01*
X153850714Y-78782676D02*
X153755476Y-78877914D01*
X153755476Y-78877914D02*
X153660238Y-78925533D01*
X169116666Y-30314819D02*
X168783333Y-29838628D01*
X168545238Y-30314819D02*
X168545238Y-29314819D01*
X168545238Y-29314819D02*
X168926190Y-29314819D01*
X168926190Y-29314819D02*
X169021428Y-29362438D01*
X169021428Y-29362438D02*
X169069047Y-29410057D01*
X169069047Y-29410057D02*
X169116666Y-29505295D01*
X169116666Y-29505295D02*
X169116666Y-29648152D01*
X169116666Y-29648152D02*
X169069047Y-29743390D01*
X169069047Y-29743390D02*
X169021428Y-29791009D01*
X169021428Y-29791009D02*
X168926190Y-29838628D01*
X168926190Y-29838628D02*
X168545238Y-29838628D01*
X169545238Y-29791009D02*
X169878571Y-29791009D01*
X170021428Y-30314819D02*
X169545238Y-30314819D01*
X169545238Y-30314819D02*
X169545238Y-29314819D01*
X169545238Y-29314819D02*
X170021428Y-29314819D01*
X170783333Y-29791009D02*
X170450000Y-29791009D01*
X170450000Y-30314819D02*
X170450000Y-29314819D01*
X170450000Y-29314819D02*
X170926190Y-29314819D01*
X171450000Y-29314819D02*
X171450000Y-29552914D01*
X171211905Y-29457676D02*
X171450000Y-29552914D01*
X171450000Y-29552914D02*
X171688095Y-29457676D01*
X171307143Y-29743390D02*
X171450000Y-29552914D01*
X171450000Y-29552914D02*
X171592857Y-29743390D01*
X172211905Y-29314819D02*
X172211905Y-29552914D01*
X171973810Y-29457676D02*
X172211905Y-29552914D01*
X172211905Y-29552914D02*
X172450000Y-29457676D01*
X172069048Y-29743390D02*
X172211905Y-29552914D01*
X172211905Y-29552914D02*
X172354762Y-29743390D01*
X119989405Y-39344819D02*
X119989405Y-38344819D01*
X119989405Y-38344819D02*
X120227500Y-38344819D01*
X120227500Y-38344819D02*
X120370357Y-38392438D01*
X120370357Y-38392438D02*
X120465595Y-38487676D01*
X120465595Y-38487676D02*
X120513214Y-38582914D01*
X120513214Y-38582914D02*
X120560833Y-38773390D01*
X120560833Y-38773390D02*
X120560833Y-38916247D01*
X120560833Y-38916247D02*
X120513214Y-39106723D01*
X120513214Y-39106723D02*
X120465595Y-39201961D01*
X120465595Y-39201961D02*
X120370357Y-39297200D01*
X120370357Y-39297200D02*
X120227500Y-39344819D01*
X120227500Y-39344819D02*
X119989405Y-39344819D01*
X121417976Y-38344819D02*
X121227500Y-38344819D01*
X121227500Y-38344819D02*
X121132262Y-38392438D01*
X121132262Y-38392438D02*
X121084643Y-38440057D01*
X121084643Y-38440057D02*
X120989405Y-38582914D01*
X120989405Y-38582914D02*
X120941786Y-38773390D01*
X120941786Y-38773390D02*
X120941786Y-39154342D01*
X120941786Y-39154342D02*
X120989405Y-39249580D01*
X120989405Y-39249580D02*
X121037024Y-39297200D01*
X121037024Y-39297200D02*
X121132262Y-39344819D01*
X121132262Y-39344819D02*
X121322738Y-39344819D01*
X121322738Y-39344819D02*
X121417976Y-39297200D01*
X121417976Y-39297200D02*
X121465595Y-39249580D01*
X121465595Y-39249580D02*
X121513214Y-39154342D01*
X121513214Y-39154342D02*
X121513214Y-38916247D01*
X121513214Y-38916247D02*
X121465595Y-38821009D01*
X121465595Y-38821009D02*
X121417976Y-38773390D01*
X121417976Y-38773390D02*
X121322738Y-38725771D01*
X121322738Y-38725771D02*
X121132262Y-38725771D01*
X121132262Y-38725771D02*
X121037024Y-38773390D01*
X121037024Y-38773390D02*
X120989405Y-38821009D01*
X120989405Y-38821009D02*
X120941786Y-38916247D01*
X140130595Y-66202319D02*
X140130595Y-67011842D01*
X140130595Y-67011842D02*
X140178214Y-67107080D01*
X140178214Y-67107080D02*
X140225833Y-67154700D01*
X140225833Y-67154700D02*
X140321071Y-67202319D01*
X140321071Y-67202319D02*
X140511547Y-67202319D01*
X140511547Y-67202319D02*
X140606785Y-67154700D01*
X140606785Y-67154700D02*
X140654404Y-67107080D01*
X140654404Y-67107080D02*
X140702023Y-67011842D01*
X140702023Y-67011842D02*
X140702023Y-66202319D01*
X141130595Y-66297557D02*
X141178214Y-66249938D01*
X141178214Y-66249938D02*
X141273452Y-66202319D01*
X141273452Y-66202319D02*
X141511547Y-66202319D01*
X141511547Y-66202319D02*
X141606785Y-66249938D01*
X141606785Y-66249938D02*
X141654404Y-66297557D01*
X141654404Y-66297557D02*
X141702023Y-66392795D01*
X141702023Y-66392795D02*
X141702023Y-66488033D01*
X141702023Y-66488033D02*
X141654404Y-66630890D01*
X141654404Y-66630890D02*
X141082976Y-67202319D01*
X141082976Y-67202319D02*
X141702023Y-67202319D01*
D11*
X155818095Y-33137419D02*
X155818095Y-33946942D01*
X155818095Y-33946942D02*
X155865714Y-34042180D01*
X155865714Y-34042180D02*
X155913333Y-34089800D01*
X155913333Y-34089800D02*
X156008571Y-34137419D01*
X156008571Y-34137419D02*
X156199047Y-34137419D01*
X156199047Y-34137419D02*
X156294285Y-34089800D01*
X156294285Y-34089800D02*
X156341904Y-34042180D01*
X156341904Y-34042180D02*
X156389523Y-33946942D01*
X156389523Y-33946942D02*
X156389523Y-33137419D01*
X157341904Y-33137419D02*
X156865714Y-33137419D01*
X156865714Y-33137419D02*
X156818095Y-33613609D01*
X156818095Y-33613609D02*
X156865714Y-33565990D01*
X156865714Y-33565990D02*
X156960952Y-33518371D01*
X156960952Y-33518371D02*
X157199047Y-33518371D01*
X157199047Y-33518371D02*
X157294285Y-33565990D01*
X157294285Y-33565990D02*
X157341904Y-33613609D01*
X157341904Y-33613609D02*
X157389523Y-33708847D01*
X157389523Y-33708847D02*
X157389523Y-33946942D01*
X157389523Y-33946942D02*
X157341904Y-34042180D01*
X157341904Y-34042180D02*
X157294285Y-34089800D01*
X157294285Y-34089800D02*
X157199047Y-34137419D01*
X157199047Y-34137419D02*
X156960952Y-34137419D01*
X156960952Y-34137419D02*
X156865714Y-34089800D01*
X156865714Y-34089800D02*
X156818095Y-34042180D01*
X146421904Y-53042580D02*
X146421904Y-52233057D01*
X146421904Y-52233057D02*
X146374285Y-52137819D01*
X146374285Y-52137819D02*
X146326666Y-52090200D01*
X146326666Y-52090200D02*
X146231428Y-52042580D01*
X146231428Y-52042580D02*
X146040952Y-52042580D01*
X146040952Y-52042580D02*
X145945714Y-52090200D01*
X145945714Y-52090200D02*
X145898095Y-52137819D01*
X145898095Y-52137819D02*
X145850476Y-52233057D01*
X145850476Y-52233057D02*
X145850476Y-53042580D01*
X144945714Y-52709247D02*
X144945714Y-52042580D01*
X145183809Y-53090200D02*
X145421904Y-52375914D01*
X145421904Y-52375914D02*
X144802857Y-52375914D01*
D10*
X151254819Y-54183333D02*
X151969104Y-54183333D01*
X151969104Y-54183333D02*
X152111961Y-54230952D01*
X152111961Y-54230952D02*
X152207200Y-54326190D01*
X152207200Y-54326190D02*
X152254819Y-54469047D01*
X152254819Y-54469047D02*
X152254819Y-54564285D01*
X151254819Y-53230952D02*
X151254819Y-53707142D01*
X151254819Y-53707142D02*
X151731009Y-53754761D01*
X151731009Y-53754761D02*
X151683390Y-53707142D01*
X151683390Y-53707142D02*
X151635771Y-53611904D01*
X151635771Y-53611904D02*
X151635771Y-53373809D01*
X151635771Y-53373809D02*
X151683390Y-53278571D01*
X151683390Y-53278571D02*
X151731009Y-53230952D01*
X151731009Y-53230952D02*
X151826247Y-53183333D01*
X151826247Y-53183333D02*
X152064342Y-53183333D01*
X152064342Y-53183333D02*
X152159580Y-53230952D01*
X152159580Y-53230952D02*
X152207200Y-53278571D01*
X152207200Y-53278571D02*
X152254819Y-53373809D01*
X152254819Y-53373809D02*
X152254819Y-53611904D01*
X152254819Y-53611904D02*
X152207200Y-53707142D01*
X152207200Y-53707142D02*
X152159580Y-53754761D01*
X137961905Y-48124819D02*
X137961905Y-47124819D01*
X137961905Y-47124819D02*
X138200000Y-47124819D01*
X138200000Y-47124819D02*
X138342857Y-47172438D01*
X138342857Y-47172438D02*
X138438095Y-47267676D01*
X138438095Y-47267676D02*
X138485714Y-47362914D01*
X138485714Y-47362914D02*
X138533333Y-47553390D01*
X138533333Y-47553390D02*
X138533333Y-47696247D01*
X138533333Y-47696247D02*
X138485714Y-47886723D01*
X138485714Y-47886723D02*
X138438095Y-47981961D01*
X138438095Y-47981961D02*
X138342857Y-48077200D01*
X138342857Y-48077200D02*
X138200000Y-48124819D01*
X138200000Y-48124819D02*
X137961905Y-48124819D01*
X139438095Y-47124819D02*
X138961905Y-47124819D01*
X138961905Y-47124819D02*
X138914286Y-47601009D01*
X138914286Y-47601009D02*
X138961905Y-47553390D01*
X138961905Y-47553390D02*
X139057143Y-47505771D01*
X139057143Y-47505771D02*
X139295238Y-47505771D01*
X139295238Y-47505771D02*
X139390476Y-47553390D01*
X139390476Y-47553390D02*
X139438095Y-47601009D01*
X139438095Y-47601009D02*
X139485714Y-47696247D01*
X139485714Y-47696247D02*
X139485714Y-47934342D01*
X139485714Y-47934342D02*
X139438095Y-48029580D01*
X139438095Y-48029580D02*
X139390476Y-48077200D01*
X139390476Y-48077200D02*
X139295238Y-48124819D01*
X139295238Y-48124819D02*
X139057143Y-48124819D01*
X139057143Y-48124819D02*
X138961905Y-48077200D01*
X138961905Y-48077200D02*
X138914286Y-48029580D01*
X137931666Y-78639819D02*
X137931666Y-79354104D01*
X137931666Y-79354104D02*
X137884047Y-79496961D01*
X137884047Y-79496961D02*
X137788809Y-79592200D01*
X137788809Y-79592200D02*
X137645952Y-79639819D01*
X137645952Y-79639819D02*
X137550714Y-79639819D01*
X138360238Y-78735057D02*
X138407857Y-78687438D01*
X138407857Y-78687438D02*
X138503095Y-78639819D01*
X138503095Y-78639819D02*
X138741190Y-78639819D01*
X138741190Y-78639819D02*
X138836428Y-78687438D01*
X138836428Y-78687438D02*
X138884047Y-78735057D01*
X138884047Y-78735057D02*
X138931666Y-78830295D01*
X138931666Y-78830295D02*
X138931666Y-78925533D01*
X138931666Y-78925533D02*
X138884047Y-79068390D01*
X138884047Y-79068390D02*
X138312619Y-79639819D01*
X138312619Y-79639819D02*
X138931666Y-79639819D01*
X120794819Y-45381904D02*
X121604342Y-45381904D01*
X121604342Y-45381904D02*
X121699580Y-45334285D01*
X121699580Y-45334285D02*
X121747200Y-45286666D01*
X121747200Y-45286666D02*
X121794819Y-45191428D01*
X121794819Y-45191428D02*
X121794819Y-45000952D01*
X121794819Y-45000952D02*
X121747200Y-44905714D01*
X121747200Y-44905714D02*
X121699580Y-44858095D01*
X121699580Y-44858095D02*
X121604342Y-44810476D01*
X121604342Y-44810476D02*
X120794819Y-44810476D01*
X121794819Y-43810476D02*
X121794819Y-44381904D01*
X121794819Y-44096190D02*
X120794819Y-44096190D01*
X120794819Y-44096190D02*
X120937676Y-44191428D01*
X120937676Y-44191428D02*
X121032914Y-44286666D01*
X121032914Y-44286666D02*
X121080533Y-44381904D01*
X136844819Y-57828333D02*
X137559104Y-57828333D01*
X137559104Y-57828333D02*
X137701961Y-57875952D01*
X137701961Y-57875952D02*
X137797200Y-57971190D01*
X137797200Y-57971190D02*
X137844819Y-58114047D01*
X137844819Y-58114047D02*
X137844819Y-58209285D01*
X136844819Y-56923571D02*
X136844819Y-57114047D01*
X136844819Y-57114047D02*
X136892438Y-57209285D01*
X136892438Y-57209285D02*
X136940057Y-57256904D01*
X136940057Y-57256904D02*
X137082914Y-57352142D01*
X137082914Y-57352142D02*
X137273390Y-57399761D01*
X137273390Y-57399761D02*
X137654342Y-57399761D01*
X137654342Y-57399761D02*
X137749580Y-57352142D01*
X137749580Y-57352142D02*
X137797200Y-57304523D01*
X137797200Y-57304523D02*
X137844819Y-57209285D01*
X137844819Y-57209285D02*
X137844819Y-57018809D01*
X137844819Y-57018809D02*
X137797200Y-56923571D01*
X137797200Y-56923571D02*
X137749580Y-56875952D01*
X137749580Y-56875952D02*
X137654342Y-56828333D01*
X137654342Y-56828333D02*
X137416247Y-56828333D01*
X137416247Y-56828333D02*
X137321009Y-56875952D01*
X137321009Y-56875952D02*
X137273390Y-56923571D01*
X137273390Y-56923571D02*
X137225771Y-57018809D01*
X137225771Y-57018809D02*
X137225771Y-57209285D01*
X137225771Y-57209285D02*
X137273390Y-57304523D01*
X137273390Y-57304523D02*
X137321009Y-57352142D01*
X137321009Y-57352142D02*
X137416247Y-57399761D01*
X148928095Y-28224819D02*
X148928095Y-29034342D01*
X148928095Y-29034342D02*
X148975714Y-29129580D01*
X148975714Y-29129580D02*
X149023333Y-29177200D01*
X149023333Y-29177200D02*
X149118571Y-29224819D01*
X149118571Y-29224819D02*
X149309047Y-29224819D01*
X149309047Y-29224819D02*
X149404285Y-29177200D01*
X149404285Y-29177200D02*
X149451904Y-29129580D01*
X149451904Y-29129580D02*
X149499523Y-29034342D01*
X149499523Y-29034342D02*
X149499523Y-28224819D01*
X150404285Y-28224819D02*
X150213809Y-28224819D01*
X150213809Y-28224819D02*
X150118571Y-28272438D01*
X150118571Y-28272438D02*
X150070952Y-28320057D01*
X150070952Y-28320057D02*
X149975714Y-28462914D01*
X149975714Y-28462914D02*
X149928095Y-28653390D01*
X149928095Y-28653390D02*
X149928095Y-29034342D01*
X149928095Y-29034342D02*
X149975714Y-29129580D01*
X149975714Y-29129580D02*
X150023333Y-29177200D01*
X150023333Y-29177200D02*
X150118571Y-29224819D01*
X150118571Y-29224819D02*
X150309047Y-29224819D01*
X150309047Y-29224819D02*
X150404285Y-29177200D01*
X150404285Y-29177200D02*
X150451904Y-29129580D01*
X150451904Y-29129580D02*
X150499523Y-29034342D01*
X150499523Y-29034342D02*
X150499523Y-28796247D01*
X150499523Y-28796247D02*
X150451904Y-28701009D01*
X150451904Y-28701009D02*
X150404285Y-28653390D01*
X150404285Y-28653390D02*
X150309047Y-28605771D01*
X150309047Y-28605771D02*
X150118571Y-28605771D01*
X150118571Y-28605771D02*
X150023333Y-28653390D01*
X150023333Y-28653390D02*
X149975714Y-28701009D01*
X149975714Y-28701009D02*
X149928095Y-28796247D01*
D11*
X147132580Y-63395714D02*
X148132580Y-63395714D01*
X148132580Y-63395714D02*
X148132580Y-63633809D01*
X148132580Y-63633809D02*
X148084961Y-63776666D01*
X148084961Y-63776666D02*
X147989723Y-63871904D01*
X147989723Y-63871904D02*
X147894485Y-63919523D01*
X147894485Y-63919523D02*
X147704009Y-63967142D01*
X147704009Y-63967142D02*
X147561152Y-63967142D01*
X147561152Y-63967142D02*
X147370676Y-63919523D01*
X147370676Y-63919523D02*
X147275438Y-63871904D01*
X147275438Y-63871904D02*
X147180200Y-63776666D01*
X147180200Y-63776666D02*
X147132580Y-63633809D01*
X147132580Y-63633809D02*
X147132580Y-63395714D01*
X148037342Y-64348095D02*
X148084961Y-64395714D01*
X148084961Y-64395714D02*
X148132580Y-64490952D01*
X148132580Y-64490952D02*
X148132580Y-64729047D01*
X148132580Y-64729047D02*
X148084961Y-64824285D01*
X148084961Y-64824285D02*
X148037342Y-64871904D01*
X148037342Y-64871904D02*
X147942104Y-64919523D01*
X147942104Y-64919523D02*
X147846866Y-64919523D01*
X147846866Y-64919523D02*
X147704009Y-64871904D01*
X147704009Y-64871904D02*
X147132580Y-64300476D01*
X147132580Y-64300476D02*
X147132580Y-64919523D01*
X148132580Y-65538571D02*
X148132580Y-65633809D01*
X148132580Y-65633809D02*
X148084961Y-65729047D01*
X148084961Y-65729047D02*
X148037342Y-65776666D01*
X148037342Y-65776666D02*
X147942104Y-65824285D01*
X147942104Y-65824285D02*
X147751628Y-65871904D01*
X147751628Y-65871904D02*
X147513533Y-65871904D01*
X147513533Y-65871904D02*
X147323057Y-65824285D01*
X147323057Y-65824285D02*
X147227819Y-65776666D01*
X147227819Y-65776666D02*
X147180200Y-65729047D01*
X147180200Y-65729047D02*
X147132580Y-65633809D01*
X147132580Y-65633809D02*
X147132580Y-65538571D01*
X147132580Y-65538571D02*
X147180200Y-65443333D01*
X147180200Y-65443333D02*
X147227819Y-65395714D01*
X147227819Y-65395714D02*
X147323057Y-65348095D01*
X147323057Y-65348095D02*
X147513533Y-65300476D01*
X147513533Y-65300476D02*
X147751628Y-65300476D01*
X147751628Y-65300476D02*
X147942104Y-65348095D01*
X147942104Y-65348095D02*
X148037342Y-65395714D01*
X148037342Y-65395714D02*
X148084961Y-65443333D01*
X148084961Y-65443333D02*
X148132580Y-65538571D01*
D10*
X113566666Y-84204819D02*
X113233333Y-83728628D01*
X112995238Y-84204819D02*
X112995238Y-83204819D01*
X112995238Y-83204819D02*
X113376190Y-83204819D01*
X113376190Y-83204819D02*
X113471428Y-83252438D01*
X113471428Y-83252438D02*
X113519047Y-83300057D01*
X113519047Y-83300057D02*
X113566666Y-83395295D01*
X113566666Y-83395295D02*
X113566666Y-83538152D01*
X113566666Y-83538152D02*
X113519047Y-83633390D01*
X113519047Y-83633390D02*
X113471428Y-83681009D01*
X113471428Y-83681009D02*
X113376190Y-83728628D01*
X113376190Y-83728628D02*
X112995238Y-83728628D01*
X113995238Y-83681009D02*
X114328571Y-83681009D01*
X114471428Y-84204819D02*
X113995238Y-84204819D01*
X113995238Y-84204819D02*
X113995238Y-83204819D01*
X113995238Y-83204819D02*
X114471428Y-83204819D01*
X115233333Y-83681009D02*
X114900000Y-83681009D01*
X114900000Y-84204819D02*
X114900000Y-83204819D01*
X114900000Y-83204819D02*
X115376190Y-83204819D01*
X115900000Y-83204819D02*
X115900000Y-83442914D01*
X115661905Y-83347676D02*
X115900000Y-83442914D01*
X115900000Y-83442914D02*
X116138095Y-83347676D01*
X115757143Y-83633390D02*
X115900000Y-83442914D01*
X115900000Y-83442914D02*
X116042857Y-83633390D01*
X116661905Y-83204819D02*
X116661905Y-83442914D01*
X116423810Y-83347676D02*
X116661905Y-83442914D01*
X116661905Y-83442914D02*
X116900000Y-83347676D01*
X116519048Y-83633390D02*
X116661905Y-83442914D01*
X116661905Y-83442914D02*
X116804762Y-83633390D01*
X167004819Y-69533333D02*
X167719104Y-69533333D01*
X167719104Y-69533333D02*
X167861961Y-69580952D01*
X167861961Y-69580952D02*
X167957200Y-69676190D01*
X167957200Y-69676190D02*
X168004819Y-69819047D01*
X168004819Y-69819047D02*
X168004819Y-69914285D01*
X167433390Y-68914285D02*
X167385771Y-69009523D01*
X167385771Y-69009523D02*
X167338152Y-69057142D01*
X167338152Y-69057142D02*
X167242914Y-69104761D01*
X167242914Y-69104761D02*
X167195295Y-69104761D01*
X167195295Y-69104761D02*
X167100057Y-69057142D01*
X167100057Y-69057142D02*
X167052438Y-69009523D01*
X167052438Y-69009523D02*
X167004819Y-68914285D01*
X167004819Y-68914285D02*
X167004819Y-68723809D01*
X167004819Y-68723809D02*
X167052438Y-68628571D01*
X167052438Y-68628571D02*
X167100057Y-68580952D01*
X167100057Y-68580952D02*
X167195295Y-68533333D01*
X167195295Y-68533333D02*
X167242914Y-68533333D01*
X167242914Y-68533333D02*
X167338152Y-68580952D01*
X167338152Y-68580952D02*
X167385771Y-68628571D01*
X167385771Y-68628571D02*
X167433390Y-68723809D01*
X167433390Y-68723809D02*
X167433390Y-68914285D01*
X167433390Y-68914285D02*
X167481009Y-69009523D01*
X167481009Y-69009523D02*
X167528628Y-69057142D01*
X167528628Y-69057142D02*
X167623866Y-69104761D01*
X167623866Y-69104761D02*
X167814342Y-69104761D01*
X167814342Y-69104761D02*
X167909580Y-69057142D01*
X167909580Y-69057142D02*
X167957200Y-69009523D01*
X167957200Y-69009523D02*
X168004819Y-68914285D01*
X168004819Y-68914285D02*
X168004819Y-68723809D01*
X168004819Y-68723809D02*
X167957200Y-68628571D01*
X167957200Y-68628571D02*
X167909580Y-68580952D01*
X167909580Y-68580952D02*
X167814342Y-68533333D01*
X167814342Y-68533333D02*
X167623866Y-68533333D01*
X167623866Y-68533333D02*
X167528628Y-68580952D01*
X167528628Y-68580952D02*
X167481009Y-68628571D01*
X167481009Y-68628571D02*
X167433390Y-68723809D01*
X147664700Y-75671428D02*
X147664700Y-74528571D01*
X148236128Y-75099999D02*
X147093271Y-75099999D01*
X147664700Y-63371428D02*
X147664700Y-62228571D01*
X119976905Y-40944819D02*
X119976905Y-39944819D01*
X119976905Y-39944819D02*
X120215000Y-39944819D01*
X120215000Y-39944819D02*
X120357857Y-39992438D01*
X120357857Y-39992438D02*
X120453095Y-40087676D01*
X120453095Y-40087676D02*
X120500714Y-40182914D01*
X120500714Y-40182914D02*
X120548333Y-40373390D01*
X120548333Y-40373390D02*
X120548333Y-40516247D01*
X120548333Y-40516247D02*
X120500714Y-40706723D01*
X120500714Y-40706723D02*
X120453095Y-40801961D01*
X120453095Y-40801961D02*
X120357857Y-40897200D01*
X120357857Y-40897200D02*
X120215000Y-40944819D01*
X120215000Y-40944819D02*
X119976905Y-40944819D01*
X120929286Y-40040057D02*
X120976905Y-39992438D01*
X120976905Y-39992438D02*
X121072143Y-39944819D01*
X121072143Y-39944819D02*
X121310238Y-39944819D01*
X121310238Y-39944819D02*
X121405476Y-39992438D01*
X121405476Y-39992438D02*
X121453095Y-40040057D01*
X121453095Y-40040057D02*
X121500714Y-40135295D01*
X121500714Y-40135295D02*
X121500714Y-40230533D01*
X121500714Y-40230533D02*
X121453095Y-40373390D01*
X121453095Y-40373390D02*
X120881667Y-40944819D01*
X120881667Y-40944819D02*
X121500714Y-40944819D01*
D11*
X142140200Y-59566667D02*
X142092580Y-59709524D01*
X142092580Y-59709524D02*
X142092580Y-59947619D01*
X142092580Y-59947619D02*
X142140200Y-60042857D01*
X142140200Y-60042857D02*
X142187819Y-60090476D01*
X142187819Y-60090476D02*
X142283057Y-60138095D01*
X142283057Y-60138095D02*
X142378295Y-60138095D01*
X142378295Y-60138095D02*
X142473533Y-60090476D01*
X142473533Y-60090476D02*
X142521152Y-60042857D01*
X142521152Y-60042857D02*
X142568771Y-59947619D01*
X142568771Y-59947619D02*
X142616390Y-59757143D01*
X142616390Y-59757143D02*
X142664009Y-59661905D01*
X142664009Y-59661905D02*
X142711628Y-59614286D01*
X142711628Y-59614286D02*
X142806866Y-59566667D01*
X142806866Y-59566667D02*
X142902104Y-59566667D01*
X142902104Y-59566667D02*
X142997342Y-59614286D01*
X142997342Y-59614286D02*
X143044961Y-59661905D01*
X143044961Y-59661905D02*
X143092580Y-59757143D01*
X143092580Y-59757143D02*
X143092580Y-59995238D01*
X143092580Y-59995238D02*
X143044961Y-60138095D01*
X143092580Y-60471429D02*
X142092580Y-60709524D01*
X142092580Y-60709524D02*
X142806866Y-60900000D01*
X142806866Y-60900000D02*
X142092580Y-61090476D01*
X142092580Y-61090476D02*
X143092580Y-61328572D01*
X143092580Y-61614286D02*
X143092580Y-62233333D01*
X143092580Y-62233333D02*
X142711628Y-61900000D01*
X142711628Y-61900000D02*
X142711628Y-62042857D01*
X142711628Y-62042857D02*
X142664009Y-62138095D01*
X142664009Y-62138095D02*
X142616390Y-62185714D01*
X142616390Y-62185714D02*
X142521152Y-62233333D01*
X142521152Y-62233333D02*
X142283057Y-62233333D01*
X142283057Y-62233333D02*
X142187819Y-62185714D01*
X142187819Y-62185714D02*
X142140200Y-62138095D01*
X142140200Y-62138095D02*
X142092580Y-62042857D01*
X142092580Y-62042857D02*
X142092580Y-61757143D01*
X142092580Y-61757143D02*
X142140200Y-61661905D01*
X142140200Y-61661905D02*
X142187819Y-61614286D01*
D12*
X121190000Y-80090000D02*
X121190000Y-85830000D01*
X121190000Y-80090000D02*
X133610000Y-80090000D01*
X121190000Y-88580000D02*
X121190000Y-93310000D01*
X121190000Y-93310000D02*
X133610000Y-93310000D01*
X133610000Y-80090000D02*
X133610000Y-85830000D01*
X133610000Y-88580000D02*
X133610000Y-93310000D01*
X133770000Y-82360000D02*
X134270000Y-82860000D01*
X134270000Y-81860000D02*
X133770000Y-82360000D01*
X134270000Y-81860000D02*
X134270000Y-82860000D01*
X122365000Y-69040000D02*
X122890000Y-69040000D01*
X122365000Y-74560000D02*
X122365000Y-69040000D01*
X122890000Y-74560000D02*
X122365000Y-74560000D01*
X132260000Y-69040000D02*
X132785000Y-69040000D01*
X132785000Y-69040000D02*
X132785000Y-74560000D01*
X132785000Y-74560000D02*
X132260000Y-74560000D01*
X122885000Y-75300000D02*
X122415000Y-75640000D01*
X122415000Y-74960000D01*
X122885000Y-75300000D01*
G36*
X122885000Y-75300000D02*
G01*
X122415000Y-75640000D01*
X122415000Y-74960000D01*
X122885000Y-75300000D01*
G37*
X137227500Y-46765000D02*
X137227500Y-48235000D01*
X137227500Y-48235000D02*
X139512500Y-48235000D01*
X139512500Y-46765000D02*
X137227500Y-46765000D01*
X151790000Y-80090000D02*
X151790000Y-85830000D01*
X151790000Y-80090000D02*
X164210000Y-80090000D01*
X151790000Y-88580000D02*
X151790000Y-93310000D01*
X151790000Y-93310000D02*
X164210000Y-93310000D01*
X164210000Y-80090000D02*
X164210000Y-85830000D01*
X164210000Y-88580000D02*
X164210000Y-93310000D01*
X164370000Y-82360000D02*
X164870000Y-82860000D01*
X164870000Y-81860000D02*
X164370000Y-82360000D01*
X164870000Y-81860000D02*
X164870000Y-82860000D01*
X119242500Y-39585000D02*
X119242500Y-41055000D01*
X119242500Y-41055000D02*
X121527500Y-41055000D01*
X121527500Y-39585000D02*
X119242500Y-39585000D01*
X134742500Y-75367500D02*
X134742500Y-76607500D01*
X134742500Y-76607500D02*
X135982500Y-76607500D01*
X134982500Y-67747500D02*
X146702500Y-67747500D01*
X134982500Y-76367500D02*
X134982500Y-67747500D01*
X146702500Y-67747500D02*
X146702500Y-76367500D01*
X146702500Y-76367500D02*
X134982500Y-76367500D01*
D11*
X154890000Y-28990000D02*
X165890000Y-28990000D01*
X165890000Y-46990000D01*
X154890000Y-46990000D01*
X154890000Y-28990000D01*
D10*
X137060000Y-57410000D02*
X137060000Y-50230000D01*
X154140000Y-50230000D02*
X137060000Y-50230000D01*
X154140000Y-50230000D02*
X154140000Y-57420000D01*
X154140000Y-57420000D02*
X137060000Y-57410000D01*
D12*
X152890000Y-47490000D02*
X152890000Y-48710000D01*
X152890000Y-48710000D02*
X155790000Y-48710000D01*
X152890000Y-58990000D02*
X152890000Y-60210000D01*
X152890000Y-60210000D02*
X165710000Y-60210000D01*
X154800000Y-57200000D02*
X155200000Y-57600000D01*
X154800000Y-58000000D02*
X154800000Y-57200000D01*
X155200000Y-57600000D02*
X154800000Y-58000000D01*
X155790000Y-48710000D02*
X155790000Y-48990000D01*
X155790000Y-58710000D02*
X155790000Y-58990000D01*
X155790000Y-58990000D02*
X152890000Y-58990000D01*
X158400000Y-49550000D02*
X158400000Y-47490000D01*
X158400000Y-50650000D02*
X161810000Y-50650000D01*
X158400000Y-51150000D02*
X158400000Y-50650000D01*
X158400000Y-56550000D02*
X158400000Y-57050000D01*
X158400000Y-57050000D02*
X161810000Y-57050000D01*
X158400000Y-58150000D02*
X158400000Y-60210000D01*
X159800000Y-53050000D02*
X161600000Y-53050000D01*
X159800000Y-54650000D02*
X159800000Y-53050000D01*
X161600000Y-53050000D02*
X161600000Y-54650000D01*
X161600000Y-54650000D02*
X159800000Y-54650000D01*
X161810000Y-49550000D02*
X158400000Y-49550000D01*
X161810000Y-50650000D02*
X161810000Y-49550000D01*
X161810000Y-57050000D02*
X161810000Y-58150000D01*
X161810000Y-58150000D02*
X158400000Y-58150000D01*
X163410000Y-48600000D02*
X165710000Y-48600000D01*
X163410000Y-51150000D02*
X158400000Y-51150000D01*
X163410000Y-52250000D02*
X163410000Y-48600000D01*
X163410000Y-56550000D02*
X158400000Y-56550000D01*
X163410000Y-59100000D02*
X163410000Y-55450000D01*
X165710000Y-47490000D02*
X152890000Y-47490000D01*
X165710000Y-59100000D02*
X163410000Y-59100000D01*
X165710000Y-60210000D02*
X165710000Y-47490000D01*
X137215000Y-48365000D02*
X137215000Y-49835000D01*
X137215000Y-49835000D02*
X139500000Y-49835000D01*
X139500000Y-48365000D02*
X137215000Y-48365000D01*
X136490000Y-80090000D02*
X136490000Y-85830000D01*
X136490000Y-80090000D02*
X148910000Y-80090000D01*
X136490000Y-88580000D02*
X136490000Y-93310000D01*
X136490000Y-93310000D02*
X148910000Y-93310000D01*
X148910000Y-80090000D02*
X148910000Y-85830000D01*
X148910000Y-88580000D02*
X148910000Y-93310000D01*
X149070000Y-82360000D02*
X149570000Y-82860000D01*
X149570000Y-81860000D02*
X149070000Y-82360000D01*
X149570000Y-81860000D02*
X149570000Y-82860000D01*
X122830000Y-20330000D02*
X122830000Y-26490000D01*
X122830000Y-20330000D02*
X141070000Y-20330000D01*
X122830000Y-45290000D02*
X122830000Y-46070000D01*
X122830000Y-46070000D02*
X123830000Y-46070000D01*
X141070000Y-20330000D02*
X141070000Y-26745000D01*
X141070000Y-45290000D02*
X141070000Y-46070000D01*
X141070000Y-46070000D02*
X140070000Y-46070000D01*
X122825000Y-27215000D02*
X122325000Y-27215000D01*
X122825000Y-26715000D01*
X122825000Y-27215000D01*
G36*
X122825000Y-27215000D02*
G01*
X122325000Y-27215000D01*
X122825000Y-26715000D01*
X122825000Y-27215000D01*
G37*
X119480000Y-51625000D02*
X119480000Y-53485000D01*
X119480000Y-51625000D02*
X119680000Y-51425000D01*
X119480000Y-53485000D02*
X119680000Y-53695000D01*
X119480000Y-60575000D02*
X119830000Y-60065000D01*
X119480000Y-62885000D02*
X119480000Y-60575000D01*
X119480000Y-62885000D02*
X119680000Y-63085000D01*
X119680000Y-63085000D02*
X119680000Y-63345000D01*
X119830000Y-53695000D02*
X119680000Y-53695000D01*
X119830000Y-53695000D02*
X119830000Y-60065000D01*
X124440000Y-50595000D02*
X122640000Y-50595000D01*
X130440000Y-50595000D02*
X125740000Y-50595000D01*
X135750000Y-50595000D02*
X132140000Y-50595000D01*
X135750000Y-51045000D02*
X135750000Y-50595000D01*
X135750000Y-62645000D02*
X135750000Y-64565000D01*
X135750000Y-64565000D02*
X121740000Y-64565000D01*
X147040000Y-29770000D02*
X147040000Y-40050000D01*
X147040000Y-40050000D02*
X152340000Y-40050000D01*
X148690000Y-29770000D02*
X147040000Y-29770000D01*
X152340000Y-29770000D02*
X150690000Y-29770000D01*
X152340000Y-40050000D02*
X152340000Y-29770000D01*
X150690000Y-29770000D02*
G75*
G02*
X148690000Y-29770000I-1000000J0D01*
G01*
X148090000Y-67910000D02*
X148090000Y-71650000D01*
X166510000Y-61340000D02*
X152200000Y-61340000D01*
X166510000Y-61340000D02*
X166510000Y-77060000D01*
X166510000Y-77060000D02*
X152200000Y-77060000D01*
X148677042Y-63333194D02*
G75*
G02*
X152200000Y-61340000I3522957J-2116805D01*
G01*
X152200000Y-77060000D02*
G75*
G02*
X148269587Y-74151648I0J4110000D01*
G01*
X119230000Y-41185000D02*
X119230000Y-42655000D01*
X119230000Y-42655000D02*
X121515000Y-42655000D01*
X121515000Y-41185000D02*
X119230000Y-41185000D01*
X137990000Y-59470000D02*
X137990000Y-62130000D01*
X143130000Y-59470000D02*
X137990000Y-59470000D01*
X143130000Y-59470000D02*
X143130000Y-62130000D01*
X143130000Y-62130000D02*
X137990000Y-62130000D01*
X144400000Y-59470000D02*
X145730000Y-59470000D01*
X145730000Y-59470000D02*
X145730000Y-60800000D01*
%LPC*%
D13*
X170460000Y-89030000D03*
D14*
X121400000Y-87200000D03*
X133400000Y-87200000D03*
D15*
X129950000Y-82360000D03*
D16*
X128930000Y-84900000D03*
X127910000Y-82360000D03*
X126890000Y-84900000D03*
X125870000Y-82360000D03*
X124850000Y-84900000D03*
D17*
X123350000Y-75300000D03*
X124000000Y-75300000D03*
X124650000Y-75300000D03*
X125300000Y-75300000D03*
X125950000Y-75300000D03*
X126600000Y-75300000D03*
X127250000Y-75300000D03*
X127900000Y-75300000D03*
X128550000Y-75300000D03*
X129200000Y-75300000D03*
X129850000Y-75300000D03*
X130500000Y-75300000D03*
X131150000Y-75300000D03*
X131800000Y-75300000D03*
X131800000Y-68300000D03*
X131150000Y-68300000D03*
X130500000Y-68300000D03*
X129850000Y-68300000D03*
X129200000Y-68300000D03*
X128550000Y-68300000D03*
X127900000Y-68300000D03*
X127250000Y-68300000D03*
X126600000Y-68300000D03*
X125950000Y-68300000D03*
X125300000Y-68300000D03*
X124650000Y-68300000D03*
X124000000Y-68300000D03*
X123350000Y-68300000D03*
D18*
X137925000Y-47500000D03*
X139500000Y-47500000D03*
D13*
X117660000Y-35110000D03*
D14*
X152000000Y-87200000D03*
X164000000Y-87200000D03*
D15*
X160550000Y-82360000D03*
D16*
X159530000Y-84900000D03*
X158510000Y-82360000D03*
X157490000Y-84900000D03*
X156470000Y-82360000D03*
X155450000Y-84900000D03*
D13*
X170450000Y-35110000D03*
D18*
X119940000Y-40320000D03*
X121515000Y-40320000D03*
D19*
X138352500Y-74307500D03*
D20*
X140892500Y-74307500D03*
X143432500Y-74307500D03*
D21*
X156580000Y-34180000D03*
X156580000Y-36720000D03*
X156580000Y-39260000D03*
X156580000Y-41800000D03*
X164200000Y-41800000D03*
X164200000Y-39260000D03*
X164200000Y-36720000D03*
X164200000Y-34180000D03*
D22*
X148200000Y-52000000D03*
D23*
X145660000Y-52000000D03*
X143120000Y-52000000D03*
D24*
X162900000Y-53850000D03*
D25*
X156400000Y-57600000D03*
D26*
X156400000Y-55100000D03*
X156400000Y-52600000D03*
X156400000Y-50100000D03*
D18*
X137912500Y-49100000D03*
X139487500Y-49100000D03*
D14*
X136700000Y-87200000D03*
X148700000Y-87200000D03*
D15*
X145250000Y-82360000D03*
D16*
X144230000Y-84900000D03*
X143210000Y-82360000D03*
X142190000Y-84900000D03*
X141170000Y-82360000D03*
X140150000Y-84900000D03*
D27*
X123200000Y-27940000D03*
X123200000Y-29210000D03*
X123200000Y-30480000D03*
X123200000Y-31750000D03*
X123200000Y-33020000D03*
X123200000Y-34290000D03*
X123200000Y-35560000D03*
X123200000Y-36830000D03*
X123200000Y-38100000D03*
X123200000Y-39370000D03*
X123200000Y-40640000D03*
X123200000Y-41910000D03*
X123200000Y-43180000D03*
X123200000Y-44450000D03*
D28*
X126240000Y-45700000D03*
X127510000Y-45700000D03*
X128780000Y-45700000D03*
X130050000Y-45700000D03*
X131320000Y-45700000D03*
X132590000Y-45700000D03*
X133860000Y-45700000D03*
X135130000Y-45700000D03*
X136400000Y-45700000D03*
X137670000Y-45700000D03*
D27*
X140700000Y-44450000D03*
X140700000Y-43180000D03*
X140700000Y-41910000D03*
X140700000Y-40640000D03*
X140700000Y-39370000D03*
X140700000Y-38100000D03*
X140700000Y-36830000D03*
X140700000Y-35560000D03*
X140700000Y-34290000D03*
X140700000Y-33020000D03*
X140700000Y-31750000D03*
X140700000Y-30480000D03*
X140700000Y-29210000D03*
X140700000Y-27940000D03*
D29*
X130107500Y-35280000D03*
X131270000Y-34117500D03*
D30*
X131270000Y-35280000D03*
D29*
X131270000Y-36442500D03*
X132432500Y-35280000D03*
D31*
X135590000Y-60345000D03*
X135590000Y-59245000D03*
X135590000Y-58145000D03*
X135590000Y-57045000D03*
X135590000Y-55945000D03*
X135590000Y-54845000D03*
X135590000Y-53745000D03*
X135590000Y-52645000D03*
X135590000Y-51695000D03*
D32*
X125090000Y-50745000D03*
D33*
X131290000Y-50745000D03*
D34*
X120940000Y-50745000D03*
D33*
X135590000Y-61895000D03*
D35*
X120490000Y-64245000D03*
D36*
X145880000Y-31100000D03*
D21*
X145880000Y-33640000D03*
X145880000Y-36180000D03*
X145880000Y-38720000D03*
X153500000Y-38720000D03*
X153500000Y-36180000D03*
X153500000Y-33640000D03*
X153500000Y-31100000D03*
D37*
X146000000Y-64400000D03*
D38*
X138000000Y-64400000D03*
D13*
X114900000Y-89000000D03*
D39*
X156050000Y-62450000D03*
X156050000Y-75950000D03*
D40*
X150050000Y-65600000D03*
D41*
X150050000Y-72800000D03*
D18*
X119927500Y-41920000D03*
X121502500Y-41920000D03*
D42*
X144400000Y-60800000D03*
D43*
X141860000Y-60800000D03*
X139320000Y-60800000D03*
D42*
X149700000Y-45140000D03*
D44*
X149700000Y-42600000D03*
X147160000Y-45140000D03*
X147160000Y-42600000D03*
X144620000Y-45140000D03*
X144620000Y-42600000D03*
D37*
X147200000Y-72080000D03*
D38*
X147200000Y-67000000D03*
%LPD*%
M02*
