G04 #@! TF.GenerationSoftware,KiCad,Pcbnew,9.0.6*
G04 #@! TF.CreationDate,2026-03-10T14:58:34+09:00*
G04 #@! TF.ProjectId,MainBoard2026,4d61696e-426f-4617-9264-323032362e6b,rev?*
G04 #@! TF.SameCoordinates,Original*
G04 #@! TF.FileFunction,Paste,Bot*
G04 #@! TF.FilePolarity,Positive*
%FSLAX46Y46*%
G04 Gerber Fmt 4.6, Leading zero omitted, Abs format (unit mm)*
G04 Created by KiCad (PCBNEW 9.0.6) date 2026-03-10 14:58:34*
%MOMM*%
%LPD*%
G01*
G04 APERTURE LIST*
G04 Aperture macros list*
%AMRoundRect*
0 Rectangle with rounded corners*
0 $1 Rounding radius*
0 $2 $3 $4 $5 $6 $7 $8 $9 X,Y pos of 4 corners*
0 Add a 4 corners polygon primitive as box body*
4,1,4,$2,$3,$4,$5,$6,$7,$8,$9,$2,$3,0*
0 Add four circle primitives for the rounded corners*
1,1,$1+$1,$2,$3*
1,1,$1+$1,$4,$5*
1,1,$1+$1,$6,$7*
1,1,$1+$1,$8,$9*
0 Add four rect primitives between the rounded corners*
20,1,$1+$1,$2,$3,$4,$5,0*
20,1,$1+$1,$4,$5,$6,$7,0*
20,1,$1+$1,$6,$7,$8,$9,0*
20,1,$1+$1,$8,$9,$2,$3,0*%
G04 Aperture macros list end*
%ADD10RoundRect,0.225000X0.225000X0.250000X-0.225000X0.250000X-0.225000X-0.250000X0.225000X-0.250000X0*%
%ADD11RoundRect,0.200000X0.200000X0.275000X-0.200000X0.275000X-0.200000X-0.275000X0.200000X-0.275000X0*%
%ADD12RoundRect,0.200000X-0.275000X0.200000X-0.275000X-0.200000X0.275000X-0.200000X0.275000X0.200000X0*%
%ADD13RoundRect,0.225000X-0.225000X-0.250000X0.225000X-0.250000X0.225000X0.250000X-0.225000X0.250000X0*%
%ADD14RoundRect,0.225000X0.250000X-0.225000X0.250000X0.225000X-0.250000X0.225000X-0.250000X-0.225000X0*%
%ADD15RoundRect,0.225000X-0.250000X0.225000X-0.250000X-0.225000X0.250000X-0.225000X0.250000X0.225000X0*%
%ADD16RoundRect,0.218750X0.218750X0.256250X-0.218750X0.256250X-0.218750X-0.256250X0.218750X-0.256250X0*%
%ADD17R,2.000000X0.800000*%
%ADD18RoundRect,0.150000X-0.150000X0.587500X-0.150000X-0.587500X0.150000X-0.587500X0.150000X0.587500X0*%
%ADD19RoundRect,0.200000X0.275000X-0.200000X0.275000X0.200000X-0.275000X0.200000X-0.275000X-0.200000X0*%
%ADD20R,0.400000X1.900000*%
%ADD21RoundRect,0.225000X0.375000X-0.225000X0.375000X0.225000X-0.375000X0.225000X-0.375000X-0.225000X0*%
%ADD22RoundRect,0.225000X0.225000X0.375000X-0.225000X0.375000X-0.225000X-0.375000X0.225000X-0.375000X0*%
%ADD23RoundRect,0.200000X-0.200000X-0.275000X0.200000X-0.275000X0.200000X0.275000X-0.200000X0.275000X0*%
%ADD24RoundRect,0.225000X-0.375000X0.225000X-0.375000X-0.225000X0.375000X-0.225000X0.375000X0.225000X0*%
%ADD25RoundRect,0.250000X0.650000X-0.325000X0.650000X0.325000X-0.650000X0.325000X-0.650000X-0.325000X0*%
%ADD26RoundRect,0.225000X-0.225000X-0.375000X0.225000X-0.375000X0.225000X0.375000X-0.225000X0.375000X0*%
G04 APERTURE END LIST*
D10*
X140775000Y-77100000D03*
X139225000Y-77100000D03*
D11*
X119940000Y-40320000D03*
X118290000Y-40320000D03*
D12*
X134500000Y-53775000D03*
X134500000Y-55425000D03*
D13*
X141350000Y-71500000D03*
X142900000Y-71500000D03*
D11*
X119930000Y-41920000D03*
X118280000Y-41920000D03*
D14*
X153100000Y-52175000D03*
X153100000Y-50625000D03*
D13*
X125400000Y-73100000D03*
X126950000Y-73100000D03*
D12*
X137300000Y-51875000D03*
X137300000Y-53525000D03*
X125600000Y-88450000D03*
X125600000Y-90100000D03*
X121400000Y-44550000D03*
X121400000Y-46200000D03*
D15*
X153100000Y-53625000D03*
X153100000Y-55175000D03*
D16*
X127500000Y-69900000D03*
X125925000Y-69900000D03*
D10*
X124000000Y-71500000D03*
X122450000Y-71500000D03*
D14*
X126300000Y-29475000D03*
X126300000Y-27925000D03*
D17*
X156141898Y-29690000D03*
X156141898Y-31190000D03*
D18*
X137350000Y-68662500D03*
X139250000Y-68662500D03*
X138300000Y-70537500D03*
D12*
X141000000Y-47350000D03*
X141000000Y-49000000D03*
D19*
X134300000Y-59300000D03*
X134300000Y-57650000D03*
D20*
X130300000Y-80300000D03*
X129100000Y-80300000D03*
X127900000Y-80300000D03*
D11*
X139100000Y-37900000D03*
X137450000Y-37900000D03*
D12*
X131300000Y-56700000D03*
X131300000Y-58350000D03*
D15*
X133000000Y-53825000D03*
X133000000Y-55375000D03*
X151600000Y-53625000D03*
X151600000Y-55175000D03*
D13*
X129350000Y-70000000D03*
X130900000Y-70000000D03*
D10*
X140775000Y-75600000D03*
X139225000Y-75600000D03*
D12*
X142000000Y-62375000D03*
X142000000Y-64025000D03*
D14*
X151600000Y-52175000D03*
X151600000Y-50625000D03*
D11*
X139100000Y-39400000D03*
X137450000Y-39400000D03*
D19*
X136400000Y-49025000D03*
X136400000Y-47375000D03*
D12*
X138000000Y-61775000D03*
X138000000Y-63425000D03*
D14*
X124800000Y-29475000D03*
X124800000Y-27925000D03*
D19*
X123600000Y-83100000D03*
X123600000Y-81450000D03*
D13*
X129350000Y-71500000D03*
X130900000Y-71500000D03*
D21*
X149700000Y-54525000D03*
X149700000Y-51225000D03*
D22*
X152150000Y-28350000D03*
X148850000Y-28350000D03*
D13*
X141325000Y-73000000D03*
X142875000Y-73000000D03*
D23*
X128850000Y-73100000D03*
X130500000Y-73100000D03*
D15*
X129800000Y-54925000D03*
X129800000Y-56475000D03*
D11*
X139050000Y-41200000D03*
X137400000Y-41200000D03*
D24*
X121000000Y-27900000D03*
X121000000Y-31200000D03*
D23*
X127550000Y-90000000D03*
X129200000Y-90000000D03*
D11*
X139300000Y-29300000D03*
X137650000Y-29300000D03*
X129000000Y-65600000D03*
X127350000Y-65600000D03*
D23*
X124675000Y-32800000D03*
X126325000Y-32800000D03*
D15*
X140500000Y-64825000D03*
X140500000Y-66375000D03*
D13*
X124750000Y-35800000D03*
X126300000Y-35800000D03*
D23*
X153665000Y-28100000D03*
X155315000Y-28100000D03*
D10*
X124000000Y-70000000D03*
X122450000Y-70000000D03*
D11*
X126300000Y-34300000D03*
X124650000Y-34300000D03*
D13*
X125500000Y-71500000D03*
X127050000Y-71500000D03*
D25*
X128200000Y-30775000D03*
X128200000Y-27825000D03*
D26*
X140750000Y-69600000D03*
X144050000Y-69600000D03*
M02*
