M48
; DRILL file {KiCad 9.0.6} date 2026-04-28T16:02:02+0900
; FORMAT={-:-/ absolute / metric / decimal}
; #@! TF.CreationDate,2026-04-28T16:02:02+09:00
; #@! TF.GenerationSoftware,Kicad,Pcbnew,9.0.6
; #@! TF.FileFunction,Plated,1,2,PTH
FMAT,2
METRIC
; #@! TA.AperFunction,Plated,PTH,ViaDrill
T1C0.300
; #@! TA.AperFunction,Plated,PTH,ViaDrill
T2C0.500
; #@! TA.AperFunction,Plated,PTH,ComponentDrill
T3C0.500
; #@! TA.AperFunction,Plated,PTH,ComponentDrill
T4C0.600
; #@! TA.AperFunction,Plated,PTH,ComponentDrill
T5C0.700
; #@! TA.AperFunction,Plated,PTH,ComponentDrill
T6C0.800
; #@! TA.AperFunction,Plated,PTH,ComponentDrill
T7C0.900
; #@! TA.AperFunction,Plated,PTH,ComponentDrill
T8C0.950
; #@! TA.AperFunction,Plated,PTH,ComponentDrill
T9C1.000
; #@! TA.AperFunction,Plated,PTH,ComponentDrill
T10C1.100
; #@! TA.AperFunction,Plated,PTH,ComponentDrill
T11C2.700
%
G90
G05
T1
X117.21Y-39.99
X117.42Y-28.62
X117.53Y-84.3
X118.28Y-41.92
X118.98Y-80.71
X119.2Y-47.0
X119.22Y-54.26
X119.22Y-58.42
X119.23Y-75.43
X119.24Y-69.71
X120.0Y-43.95
X120.51Y-37.3
X121.9Y-91.4
X121.93Y-77.72
X122.7Y-58.5
X123.2Y-27.94
X123.2Y-48.2
X123.4Y-54.2
X123.42Y-50.7
X124.5Y-62.6
X124.8Y-65.7
X126.18Y-47.1
X126.3Y-35.8
X126.42Y-39.58
X126.7Y-91.2
X127.03Y-87.19
X127.47Y-49.81
X127.76Y-44.07
X128.2Y-27.825
X129.1Y-80.0
X129.2Y-61.27
X129.38Y-39.65
X130.45Y-38.19
X131.1Y-30.4
X131.23Y-47.85
X131.29Y-50.745
X131.4Y-84.9
X131.8Y-53.2
X132.03Y-43.54
X133.03Y-68.38
X133.12Y-39.37
X133.3Y-31.4
X133.4Y-78.1
X133.5Y-91.1
X133.6Y-62.3
X134.8Y-33.8
X135.59Y-54.845
X135.7Y-30.0
X135.7Y-68.0
X135.8Y-40.47
X136.02Y-42.97
X136.93Y-71.52
X137.7Y-81.5
X138.78Y-34.59
X138.92Y-31.99
X139.6Y-91.3
X139.8Y-57.6
X140.6Y-52.1
X140.74Y-62.42
X142.9Y-78.5
X143.17Y-66.35
X143.5Y-30.6
X143.5Y-54.1
X144.3Y-57.5
X145.1Y-91.2
X145.3Y-72.1
X145.76Y-27.35
X146.2Y-53.9
X148.48Y-33.77
X149.1Y-38.94
X149.2Y-31.08
X150.0Y-77.9
X150.3Y-58.1
X150.4Y-47.5
X150.83Y-36.26
X151.1Y-82.32
X151.4Y-91.4
X151.8Y-69.0
X152.2Y-84.7
X152.6Y-62.6
X153.1Y-53.625
X153.2Y-42.8
X154.06Y-29.48
X156.8Y-91.2
X157.12Y-27.45
X157.2Y-68.6
X157.2Y-74.1
X157.2Y-79.4
X158.4Y-48.6
X158.4Y-56.6
X158.4Y-63.6
X158.5Y-35.8
X158.5Y-42.9
X161.2Y-30.69
X162.3Y-79.0
X162.3Y-85.3
X162.3Y-91.3
X162.5Y-74.3
X162.6Y-48.7
X162.6Y-63.6
X162.6Y-69.1
X162.8Y-35.5
X162.8Y-42.8
X162.9Y-56.8
X166.0Y-28.27
X167.63Y-83.4
X169.16Y-28.5
T2
X119.927Y-41.92
X119.94Y-40.32
X122.45Y-70.0
X122.52Y-84.3
X123.2Y-29.21
X123.2Y-35.56
X123.2Y-44.45
X124.0Y-70.0
X124.65Y-77.425
X125.4Y-73.1
X125.6Y-88.5
X125.7Y-52.6
X126.5Y-44.0
X127.556Y-76.768
X128.174Y-47.07
X128.629Y-76.634
X128.85Y-73.1
X129.0Y-65.6
X129.35Y-70.0
X130.3Y-42.4
X131.1Y-77.5
X131.23Y-59.73
X131.3Y-58.35
X132.639Y-57.6
X134.344Y-72.757
X134.4Y-42.31
X134.4Y-52.3
X134.47Y-55.415
X135.59Y-52.645
X135.59Y-53.745
X135.59Y-57.045
X135.59Y-59.245
X136.4Y-45.7
X136.4Y-47.375
X136.4Y-49.025
X136.55Y-55.611
X136.59Y-64.6
X137.3Y-53.525
X137.34Y-43.12
X138.15Y-52.32
X138.9Y-53.255
X139.0Y-46.3
X139.487Y-49.1
X140.7Y-29.21
X140.7Y-30.48
X140.7Y-33.02
X140.7Y-34.29
X140.7Y-38.1
X140.7Y-39.37
X140.7Y-40.64
X141.0Y-47.35
X141.0Y-49.0
X142.83Y-42.69
X143.75Y-44.043
X144.3Y-37.5
X146.71Y-84.94
X149.7Y-51.225
T3
X138.0Y-64.4
X146.0Y-64.4
X147.2Y-67.0
X147.2Y-72.08
T5
X143.12Y-52.0
X145.66Y-52.0
X148.2Y-52.0
T6
X145.88Y-31.1
X145.88Y-33.64
X145.88Y-36.18
X145.88Y-38.72
X153.5Y-31.1
X153.5Y-33.64
X153.5Y-36.18
X153.5Y-38.72
T7
X124.85Y-84.9
X125.87Y-82.36
X126.89Y-84.9
X127.91Y-82.36
X128.93Y-84.9
X129.95Y-82.36
X140.15Y-84.9
X141.17Y-82.36
X142.19Y-84.9
X143.21Y-82.36
X144.23Y-84.9
X145.25Y-82.36
X155.45Y-84.9
X156.47Y-82.36
X157.49Y-84.9
X158.51Y-82.36
X159.53Y-84.9
X160.55Y-82.36
T8
X156.4Y-50.1
X156.4Y-52.6
X156.4Y-55.1
X156.4Y-57.6
T9
X130.107Y-35.28
X131.27Y-34.117
X131.27Y-36.442
X132.433Y-35.28
X138.352Y-74.307
X139.32Y-60.8
X140.892Y-74.307
X141.86Y-60.8
X143.433Y-74.307
X144.4Y-60.8
X144.62Y-42.6
X144.62Y-45.14
X147.16Y-42.6
X147.16Y-45.14
X149.7Y-42.6
X149.7Y-45.14
T10
X156.58Y-34.18
X156.58Y-36.72
X156.58Y-39.26
X156.58Y-41.8
X164.2Y-34.18
X164.2Y-36.72
X164.2Y-39.26
X164.2Y-41.8
T11
X150.05Y-65.6
X150.05Y-72.8
T4
X156.6Y-62.45G85X155.5Y-62.45
G05
X156.6Y-75.95G85X155.5Y-75.95
G05
M30
