G04 #@! TF.GenerationSoftware,KiCad,Pcbnew,9.0.6*
G04 #@! TF.CreationDate,2026-04-28T16:01:40+09:00*
G04 #@! TF.ProjectId,MainBoard2026,4d61696e-426f-4617-9264-323032362e6b,rev?*
G04 #@! TF.SameCoordinates,Original*
G04 #@! TF.FileFunction,Paste,Top*
G04 #@! TF.FilePolarity,Positive*
%FSLAX46Y46*%
G04 Gerber Fmt 4.6, Leading zero omitted, Abs format (unit mm)*
G04 Created by KiCad (PCBNEW 9.0.6) date 2026-04-28 16:01:40*
%MOMM*%
%LPD*%
G01*
G04 APERTURE LIST*
G04 Aperture macros list*
%AMRoundRect*
0 Rectangle with rounded corners*
0 $1 Rounding radius*
0 $2 $3 $4 $5 $6 $7 $8 $9 X,Y pos of 4 corners*
0 Add a 4 corners polygon primitive as box body*
4,1,4,$2,$3,$4,$5,$6,$7,$8,$9,$2,$3,0*
0 Add four circle primitives for the rounded corners*
1,1,$1+$1,$2,$3*
1,1,$1+$1,$4,$5*
1,1,$1+$1,$6,$7*
1,1,$1+$1,$8,$9*
0 Add four rect primitives between the rounded corners*
20,1,$1+$1,$2,$3,$4,$5,0*
20,1,$1+$1,$4,$5,$6,$7,0*
20,1,$1+$1,$6,$7,$8,$9,0*
20,1,$1+$1,$8,$9,$2,$3,0*%
G04 Aperture macros list end*
%ADD10RoundRect,0.100000X0.100000X-0.850000X0.100000X0.850000X-0.100000X0.850000X-0.100000X-0.850000X0*%
%ADD11RoundRect,0.218750X-0.218750X-0.256250X0.218750X-0.256250X0.218750X0.256250X-0.218750X0.256250X0*%
%ADD12R,1.500000X0.900000*%
%ADD13R,0.900000X1.500000*%
%ADD14R,1.050000X1.050000*%
%ADD15R,1.200000X0.700000*%
%ADD16R,0.800000X1.000000*%
%ADD17R,1.200000X1.000000*%
%ADD18R,2.800000X1.000000*%
%ADD19R,1.900000X1.300000*%
G04 APERTURE END LIST*
D10*
X123350000Y-75300000D03*
X124000000Y-75300000D03*
X124650000Y-75300000D03*
X125300000Y-75300000D03*
X125950000Y-75300000D03*
X126600000Y-75300000D03*
X127250000Y-75300000D03*
X127900000Y-75300000D03*
X128550000Y-75300000D03*
X129200000Y-75300000D03*
X129850000Y-75300000D03*
X130500000Y-75300000D03*
X131150000Y-75300000D03*
X131800000Y-75300000D03*
X131800000Y-68300000D03*
X131150000Y-68300000D03*
X130500000Y-68300000D03*
X129850000Y-68300000D03*
X129200000Y-68300000D03*
X128550000Y-68300000D03*
X127900000Y-68300000D03*
X127250000Y-68300000D03*
X126600000Y-68300000D03*
X125950000Y-68300000D03*
X125300000Y-68300000D03*
X124650000Y-68300000D03*
X124000000Y-68300000D03*
X123350000Y-68300000D03*
D11*
X137925000Y-47500000D03*
X139500000Y-47500000D03*
X119940000Y-40320000D03*
X121515000Y-40320000D03*
X137912500Y-49100000D03*
X139487500Y-49100000D03*
D12*
X123200000Y-27940000D03*
X123200000Y-29210000D03*
X123200000Y-30480000D03*
X123200000Y-31750000D03*
X123200000Y-33020000D03*
X123200000Y-34290000D03*
X123200000Y-35560000D03*
X123200000Y-36830000D03*
X123200000Y-38100000D03*
X123200000Y-39370000D03*
X123200000Y-40640000D03*
X123200000Y-41910000D03*
X123200000Y-43180000D03*
X123200000Y-44450000D03*
D13*
X126240000Y-45700000D03*
X127510000Y-45700000D03*
X128780000Y-45700000D03*
X130050000Y-45700000D03*
X131320000Y-45700000D03*
X132590000Y-45700000D03*
X133860000Y-45700000D03*
X135130000Y-45700000D03*
X136400000Y-45700000D03*
X137670000Y-45700000D03*
D12*
X140700000Y-44450000D03*
X140700000Y-43180000D03*
X140700000Y-41910000D03*
X140700000Y-40640000D03*
X140700000Y-39370000D03*
X140700000Y-38100000D03*
X140700000Y-36830000D03*
X140700000Y-35560000D03*
X140700000Y-34290000D03*
X140700000Y-33020000D03*
X140700000Y-31750000D03*
X140700000Y-30480000D03*
X140700000Y-29210000D03*
X140700000Y-27940000D03*
D14*
X129745000Y-33755000D03*
X129745000Y-35280000D03*
X129745000Y-36805000D03*
X131270000Y-33755000D03*
X131270000Y-35280000D03*
X131270000Y-36805000D03*
X132795000Y-33755000D03*
X132795000Y-35280000D03*
X132795000Y-36805000D03*
D15*
X135590000Y-60345000D03*
X135590000Y-59245000D03*
X135590000Y-58145000D03*
X135590000Y-57045000D03*
X135590000Y-55945000D03*
X135590000Y-54845000D03*
X135590000Y-53745000D03*
X135590000Y-52645000D03*
X135590000Y-51695000D03*
D16*
X125090000Y-50745000D03*
D17*
X131290000Y-50745000D03*
D18*
X120940000Y-50745000D03*
D17*
X135590000Y-61895000D03*
D19*
X120490000Y-64245000D03*
D11*
X119927500Y-41920000D03*
X121502500Y-41920000D03*
M02*
